<?xml version="1.0" standalone="no"?>
<!DOCTYPE svg PUBLIC "-//W3C//DTD SVG 1.1//EN" "http://www.w3.org/Graphics/SVG/1.1/DTD/svg11.dtd" >
<svg xmlns="http://www.w3.org/2000/svg">
<metadata>
Created by FontPrep 20130207 at Thu Mar  5 17:35:41 2015
 By Prashant Sani
Designed by Paul van der Laan &#38; Pieter van Rosmalen 2008. Produced by Bold Monday. For exclusive use by AUDI AG and its affiliates only.
</metadata>
<defs>
<font id="d7dd8a78608600e95580f8489b0bbd40" horiz-adv-x='1024' >
  <font-face 
    font-family="AudiType-Bold"
    font-weight="700"
    font-stretch="normal"
    units-per-em="2048"
    panose-1="2 11 8 3 4 2 0 0 0 3"
    ascent="1556"
    descent="-492"
    x-height="1051"
    cap-height="1483"
    bbox="-412 -492 4542 2007"
    underline-thickness="102"
    underline-position="-102"
    unicode-range="U+000D-FB04"
  />
<missing-glyph horiz-adv-x="544" 
d="M98 -430v1884h348v-1884h-348z" />
    <glyph glyph-name="uniFB00" unicode="ff" horiz-adv-x="1576" 
d="M496 817v-817h-283v817h-172v234h172v123q0 197 110 300t310 103q129 0 219 -29v-217q-74 17 -168 17t-141 -46t-47 -147v-104h475v123q0 197 109 300q110 103 311 103q129 0 219 -29v-217q-74 17 -168 17q-189 1 -189 -193v-104h316v-234h-316v-817h-282v817h-475z" />
    <glyph glyph-name="fi" unicode="fi" horiz-adv-x="1435" 
d="M987 1208v275h281v-275h-281zM41 817v234h172v123q0 197 110 300t310 103q129 0 219 -29v-217q-74 17 -168 17t-141 -46t-47 -147v-104h772v-1051h-281v817h-491v-817h-283v817h-172z" />
    <glyph glyph-name="fl" unicode="fl" horiz-adv-x="1499" 
d="M1245 -16q-260 0 -260 274v1294h281v-1257q0 -39 17 -55q33 -31 151 -9v-223q-70 -24 -189 -24zM41 817v234h172v123q0 197 110 300t310 103q129 0 219 -29v-217q-74 17 -168 17t-141 -46t-47 -147v-104h315v-234h-315v-817h-283v817h-172z" />
    <glyph glyph-name="uniFB03" unicode="ffi" horiz-adv-x="2193" 
d="M1745 1208v275h280v-275h-280zM41 817v234h172v123q0 197 110 300t310 103q129 0 219 -29v-217q-74 17 -168 17t-141 -46t-47 -147v-104h475v123q0 197 109 300q110 103 311 103q129 0 219 -29v-217q-74 17 -168 17q-189 1 -189 -193v-104h772v-1051h-280v817h-492v-817
h-282v817h-475v-817h-283v817h-172z" />
    <glyph glyph-name="uniFB04" unicode="ffl" horiz-adv-x="2318" 
d="M2003 -16q-260 0 -260 274v1294h280v-1257q-1 -39 17 -55q35 -32 151 -9v-223q-69 -24 -188 -24zM41 817v234h172v123q0 197 110 300t310 103q129 0 219 -29v-217q-74 17 -168 17t-141 -46t-47 -147v-104h475v123q0 197 109 300q110 103 311 103q129 0 219 -29v-217
q-74 17 -168 17q-189 1 -189 -193v-104h316v-234h-316v-817h-282v817h-475v-817h-283v817h-172z" />
    <glyph glyph-name=".notdef" horiz-adv-x="544" 
d="M98 -430v1884h348v-1884h-348z" />
    <glyph glyph-name=".null" horiz-adv-x="0" 
 />
    <glyph glyph-name=".null" horiz-adv-x="0" 
 />
    <glyph glyph-name="nonmarkingreturn" horiz-adv-x="681" 
 />
    <glyph glyph-name="CR" unicode="&#xd;" horiz-adv-x="0" 
 />
    <glyph glyph-name="space" unicode=" " horiz-adv-x="524" 
 />
    <glyph glyph-name="exclam" unicode="!" horiz-adv-x="722" 
d="M201 0v303h321v-303h-321zM209 1098v385h305v-385q0 -154 -45 -457l-29 -195h-157l-31 193q-43 258 -43 459z" />
    <glyph glyph-name="quotedbl" unicode="&#x22;" horiz-adv-x="970" 
d="M551 1280v203h276v-203q0 -68 -45 -270l-26 -107h-131l-27 107q-47 211 -47 270zM143 1280v203h277v-203q0 -68 -45 -270l-27 -107h-131l-27 107q-47 211 -47 270z" />
    <glyph glyph-name="numbersign" unicode="#" 
d="M569 889l-30 -303h252l30 303h-252zM133 373v213h176l31 303h-207v213h227l25 256h229l-24 -256h252l24 256h230l-25 -256h154v-213h-174l-31 -303h205v-213h-226l-26 -281h-230l27 281h-252l-26 -281h-230l27 281h-156z" />
    <glyph glyph-name="dollar" unicode="$" 
d="M532 -119v187q-254 14 -382 84v227q68 -31 198 -55t234 -25q332 0 331 168q1 73 -65 105t-160 54t-108 25q-219 51 -319 134q-99 83 -99 246t99 264t296 132v195h225v-184q233 -12 365 -86v-228q-78 33 -203 58t-227 24q-262 0 -262 -159q-1 -74 65 -106q66 -31 160 -53
t108 -26q218 -51 318 -134t100 -247q0 -163 -114 -271t-334 -136v-193h-226z" />
    <glyph glyph-name="percent" unicode="%" horiz-adv-x="2195" 
d="M524 0l901 1483h246l-901 -1483h-246zM1661 172q84 0 127 62t43 168t-43 170q-43 62 -127 62t-127 -62t-43 -168t43 -170q43 -62 127 -62zM1658 -25q-204 0 -306 118t-102 308q0 191 104 311q106 120 310 120t306 -118t102 -308t-104 -311q-106 -120 -310 -120zM535 848
q84 0 127 62t43 168t-43 170q-43 62 -127 62t-127 -62t-43 -168t43 -170q43 -62 127 -62zM532 651q-204 0 -307 118q-102 118 -102 308q0 191 105 311q106 120 310 120t306 -118t102 -308t-105 -311q-105 -120 -309 -120z" />
    <glyph glyph-name="ampersand" unicode="&#x26;" horiz-adv-x="1720" 
d="M504 1154q0 -66 35 -116t106 -116h2q113 55 162 107q49 51 49 121t-47 112t-130 41q-83 0 -130 -41q-47 -42 -47 -108zM668 203q172 0 299 92l-398 358q-186 -96 -186 -241q0 -96 81 -152t204 -57zM650 -33q-267 0 -408 121t-142 293q0 264 306 424q-180 184 -180 348
t124 263q125 100 329 100t330 -90t126 -250q0 -236 -316 -398l-10 -4l311 -280q49 119 49 264v129h439v-213h-174q-12 -190 -123 -355l356 -319h-375l-153 137q-222 -170 -489 -170z" />
    <glyph glyph-name="quotesingle" unicode="'" horiz-adv-x="563" 
d="M143 1280v203h277v-203q0 -68 -45 -270l-27 -107h-131l-27 107q-47 211 -47 270z" />
    <glyph glyph-name="parenleft" unicode="(" horiz-adv-x="864" 
d="M453 683q0 -257 105 -510t261 -361h-205q-188 100 -301 347t-112 523q0 276 112 523q113 247 301 347h205q-158 -112 -262 -362t-104 -507z" />
    <glyph glyph-name="parenright" unicode=")" horiz-adv-x="864" 
d="M664 682q0 -276 -113 -523t-301 -347h-205q156 110 261 362q213 511 1 1017q-104 251 -262 361h205q188 -100 301 -347t113 -523z" />
    <glyph glyph-name="asterisk" unicode="*" horiz-adv-x="999" 
d="M207 1012h-113v192h113q74 0 155 -16q-51 53 -90 125l-57 98l166 96l57 -98q41 -76 62 -143q25 72 63 143l58 98l165 -96l-57 -98q-39 -70 -90 -125q68 16 154 16h112v-192h-112q-90 0 -156 16q51 -57 90 -125l57 -98l-166 -96l-57 98q-39 68 -63 141q-20 -72 -62 -141
l-57 -98l-166 96l57 98q35 68 88 123q-70 -14 -151 -14z" />
    <glyph glyph-name="plus" unicode="+" horiz-adv-x="1228" 
d="M61 487v246h424v410h258v-410h424v-246h-424v-409h-258v409h-424z" />
    <glyph glyph-name="comma" unicode="," horiz-adv-x="698" 
d="M352 303q188 0 189 -137q0 -94 -43 -180t-146 -213l-67 -84h-205l141 327l-41 287h172z" />
    <glyph glyph-name="hyphen" unicode="-" horiz-adv-x="755" 
d="M100 473v277h555v-277h-555z" />
    <glyph glyph-name="period" unicode="." horiz-adv-x="698" 
d="M188 0v303h322v-303h-322z" />
    <glyph glyph-name="slash" unicode="/" horiz-adv-x="1003" 
d="M37 0l668 1552h262l-666 -1552h-264z" />
    <glyph glyph-name="zero" unicode="0" 
d="M678 199q145 0 210 139t64 403q0 264 -64 404q-65 139 -210 139t-210 -139t-65 -403t65 -404q65 -139 210 -139zM678 1516q334 0 458 -227q111 -203 109 -541q0 -439 -171 -629q-136 -152 -414 -152q-150 1 -265 59q-287 146 -284 709q0 439 171 629q135 152 396 152z
" />
    <glyph glyph-name="one" unicode="1" 
d="M215 0v246h334v968l-334 -73v245l436 97h187v-1237h333v-246h-956z" />
    <glyph glyph-name="two" unicode="2" 
d="M119 0v215l313 262q230 191 326 315t96 237t-72 178t-217 65q-211 0 -415 -101v238q172 107 450 107t416 -132q137 -132 137 -338q0 -207 -169 -399q-85 -96 -165 -167t-203 -167l-98 -75h701v-238h-1100z" />
    <glyph glyph-name="three" unicode="3" 
d="M1204 410q0 -199 -154 -321t-453 -122q-298 0 -437 86v238q164 -80 436 -80q147 0 228 58q81 57 81 159t-85 160t-255 59h-176v246h176q139 0 225 45q84 45 84 142t-76 145q-77 47 -202 47q-229 0 -401 -84v237q63 39 188 65t238 26q262 0 407 -111t146 -293
q0 -229 -222 -338q252 -109 252 -364z" />
    <glyph glyph-name="four" unicode="4" 
d="M760 526v334q0 143 14 262q-59 -119 -133 -217l-283 -379h402zM760 0v291h-729v190l749 1002h269v-957h251v-235h-251v-291h-289z" />
    <glyph glyph-name="five" unicode="5" 
d="M616 -33q-296 0 -436 86v238q164 -80 416 -80q289 0 289 223q0 91 -94 158q-63 43 -192 68t-219 28q-89 2 -151 4l27 791h885v-238h-604l-13 -313q659 -53 660 -492q0 -211 -136 -342t-432 -131z" />
    <glyph glyph-name="six" unicode="6" 
d="M694 741q-145 0 -274 -90q0 -223 73 -337t203 -116t197 72q68 72 68 199q-1 272 -267 272zM1249 486q-1 -230 -149 -374t-407 -145t-411 183t-151 524q0 412 177 626t511 216q211 0 348 -64v-238q-155 70 -347 70t-282 -106t-110 -320q135 115 311 115q246 0 378 -128
q132 -129 132 -359z" />
    <glyph glyph-name="seven" unicode="7" 
d="M160 1245v238h1036v-201l-590 -1282h-311l582 1245h-717z" />
    <glyph glyph-name="eight" unicode="8" 
d="M680 872q109 0 168 62t59 158t-60 150t-168 54t-169 -54t-61 -150t61 -158t170 -62zM680 195q131 0 201 62q69 61 69 163t-69 169q-70 67 -202 67t-202 -68q-69 -66 -69 -167t70 -164q71 -62 202 -62zM1251 395q0 -193 -145 -311t-427 -117q-282 0 -427 118t-146 310
q0 285 275 383q-219 98 -219 338q0 193 135 296q135 104 382 104t382 -104t135 -296q0 -242 -211 -338q266 -98 266 -383z" />
    <glyph glyph-name="nine" unicode="9" 
d="M662 762q152 0 274 90q-4 213 -78 322q-74 108 -201 110t-195 -68t-67 -192q1 -262 267 -262zM537 -33q-211 0 -349 64v237q154 -70 348 -70t284 112q89 112 110 335q-135 -115 -314 -115q-246 0 -378 125t-132 351t148 368t408 142q259 0 411 -184t152 -523
q0 -412 -177 -627t-511 -215z" />
    <glyph glyph-name="colon" unicode=":" horiz-adv-x="698" 
d="M188 0v303h322v-303h-322zM188 748v303h322v-303h-322z" />
    <glyph glyph-name="semicolon" unicode=";" horiz-adv-x="698" 
d="M352 303q188 0 189 -137q0 -94 -43 -180t-146 -213l-67 -84h-205l141 327l-41 287h172zM188 748v303h322v-303h-322z" />
    <glyph glyph-name="less" unicode="&#x3c;" horiz-adv-x="1228" 
d="M741 92l-628 514l628 514h365l-629 -514l629 -514h-365z" />
    <glyph glyph-name="equal" unicode="=" horiz-adv-x="1228" 
d="M86 731v246h1057v-246h-1057zM86 240v245h1057v-245h-1057z" />
    <glyph glyph-name="greater" unicode="&#x3e;" horiz-adv-x="1228" 
d="M117 92l633 514l-633 514h364l633 -514l-633 -514h-364z" />
    <glyph glyph-name="question" unicode="?" horiz-adv-x="1097" 
d="M287 0v303h321v-303h-321zM692 1090q0 90 -64 136q-65 46 -175 46q-195 0 -363 -90v237q150 97 383 97t375 -108t143 -286q0 -113 -58 -213t-127 -159t-177 -134l-47 -30l-21 -140h-239l-31 224l153 102q129 86 189 157q59 71 59 161z" />
    <glyph glyph-name="at" unicode="@" horiz-adv-x="2207" 
d="M1014 242q129 0 221 88l104 497q-98 37 -200 37q-141 0 -223 -116q-81 -117 -80 -291q0 -95 44 -155t134 -60zM1034 -438q-438 0 -679 238t-240 649q0 465 291 768q290 303 748 303t698 -220t241 -557q0 -338 -160 -528q-161 -190 -397 -190t-303 163q-98 -164 -322 -163
q-159 -1 -249 113t-91 296q1 260 149 454t406 193q176 0 273 -86l26 56h220l-156 -732q-13 -51 9 -87t79 -35q113 0 200 139t87 381q0 610 -713 610q-355 0 -581 -240t-226 -630q0 -330 175 -514t507 -185q270 0 436 80v-192q-182 -84 -428 -84z" />
    <glyph glyph-name="A" unicode="A" horiz-adv-x="1411" 
d="M629 958l-135 -405h407l-133 405q-49 147 -70 269q-20 -122 -69 -269zM16 0l535 1483h309l535 -1483h-310l-106 319h-563l-105 -319h-295z" />
    <glyph glyph-name="B" unicode="B" horiz-adv-x="1351" 
d="M668 1251h-193v-389h176q121 0 173 52t53 153q0 184 -209 184zM702 645h-227v-416h252q221 0 221 199q0 217 -246 217zM184 0v1483h502q244 -1 366 -101t122 -290q0 -221 -168 -318q240 -104 239 -371q0 -187 -125 -295t-387 -108h-549z" />
    <glyph glyph-name="C" unicode="C" horiz-adv-x="1271" 
d="M774 1266q-366 0 -366 -537q0 -266 91 -390t285 -124q231 0 414 76v-240q-191 -84 -459 -84q-315 0 -474 205q-159 204 -159 566t166 570t486 208q260 0 424 -91v-239q-164 80 -408 80z" />
    <glyph glyph-name="D" unicode="D" horiz-adv-x="1503" 
d="M698 1245h-225v-1007h225q391 0 391 504t-391 503zM184 0v1483h525q680 0 680 -742q0 -329 -157 -535t-523 -206h-525z" />
    <glyph glyph-name="E" unicode="E" horiz-adv-x="1239" 
d="M184 0v1483h936v-238h-647v-366h557v-238h-557v-403h655v-238h-944z" />
    <glyph glyph-name="F" unicode="F" horiz-adv-x="1157" 
d="M184 0v1483h883v-238h-594v-405h539v-238h-539v-602h-289z" />
    <glyph glyph-name="G" unicode="G" horiz-adv-x="1490" 
d="M825 1266q-417 0 -417 -536q0 -274 106 -394q106 -121 307 -121q141 0 238 21v479h289v-645q-240 -103 -547 -103q-694 0 -695 781q0 360 182 564t521 204q272 0 448 -95v-241q-176 86 -432 86z" />
    <glyph glyph-name="H" unicode="H" horiz-adv-x="1531" 
d="M1059 0v643h-586v-643h-289v1483h289v-602h586v602h289v-1483h-289z" />
    <glyph glyph-name="I" unicode="I" horiz-adv-x="874" 
d="M123 1253v230h629v-230h-170v-1024h170v-229h-629v229h170v1024h-170z" />
    <glyph glyph-name="J" unicode="J" horiz-adv-x="757" 
d="M74 1253v230h499v-1286q0 -256 -129 -386t-364 -130q-80 0 -117 14v237q39 -8 103 -8q118 0 168 77t51 228v1024h-211z" />
    <glyph glyph-name="K" unicode="K" horiz-adv-x="1378" 
d="M184 0v1483h289v-652l502 652h354l-469 -594q-70 -90 -129 -135q63 -45 139 -140l496 -614h-354l-539 674v-674h-289z" />
    <glyph glyph-name="L" unicode="L" horiz-adv-x="1087" 
d="M184 0v1483h287v-1245h580v-238h-867z" />
    <glyph glyph-name="M" unicode="M" horiz-adv-x="1869" 
d="M184 0v1483h303l351 -602q68 -119 98 -217q27 90 98 217l350 602h302v-1483h-273v819q0 125 19 309q-57 -164 -132 -286l-278 -469h-176l-279 469q-66 109 -129 282q18 -184 19 -305v-819h-273z" />
    <glyph glyph-name="N" unicode="N" horiz-adv-x="1570" 
d="M184 0v1483h293l537 -856q51 -80 112 -226q-16 137 -16 226v856h276v-1483h-292l-537 856q-51 80 -115 225q18 -158 19 -225v-856h-277z" />
    <glyph glyph-name="O" unicode="O" horiz-adv-x="1527" 
d="M764 211q350 0 350 530t-350 531q-350 0 -350 -530t350 -531zM764 -33q-374 0 -519 230q-132 206 -130 544q0 774 649 775q372 0 519 -230q130 -203 130 -545q0 -774 -649 -774z" />
    <glyph glyph-name="P" unicode="P" horiz-adv-x="1277" 
d="M674 1260h-203v-523h178q268 0 269 264q0 121 -62 190t-182 69zM184 0v1483h516q512 0 512 -482q0 -237 -133 -363t-401 -126h-207v-512h-287z" />
    <glyph glyph-name="Q" unicode="Q" horiz-adv-x="1527" 
d="M764 211q350 0 350 530t-350 531q-350 0 -350 -530t350 -531zM1413 741q0 -555 -338 -712q51 -23 99 -72l229 -231h-266q-55 0 -81 10t-59 43l-188 190l-45 -2q-374 0 -519 230q-132 206 -130 544q0 774 649 775q372 0 519 -230q130 -203 130 -545z" />
    <glyph glyph-name="R" unicode="R" horiz-adv-x="1372" 
d="M662 1260h-191v-455h191q120 0 188 59q68 60 68 172t-68 168t-188 56zM184 0v1483h504q524 0 524 -441q0 -160 -84 -265t-210 -140q63 -31 106 -100l328 -537h-338l-291 477q-43 70 -72 89t-98 20h-82v-586h-287z" />
    <glyph glyph-name="S" unicode="S" horiz-adv-x="1269" 
d="M555 -33q-311 0 -453 86v238q164 -80 433 -80q324 0 323 203q0 84 -65 131q-67 47 -263 92t-308 149t-112 302t133 313q132 115 426 115t427 -86v-238q-166 80 -422 80t-256 -195q0 -84 66 -128t266 -88t309 -148t109 -302t-152 -321q-150 -123 -461 -123z" />
    <glyph glyph-name="T" unicode="T" horiz-adv-x="1136" 
d="M41 1245v238h1055v-238h-383v-1245h-289v1245h-383z" />
    <glyph glyph-name="U" unicode="U" horiz-adv-x="1470" 
d="M735 -33q-174 0 -291 40t-177 118t-84 168t-23 213v977h289v-936q-1 -188 65 -262t222 -74t220 74q66 74 66 262v936h289v-977q0 -123 -24 -213t-84 -168t-177 -118t-291 -40z" />
    <glyph glyph-name="V" unicode="V" horiz-adv-x="1370" 
d="M535 0l-519 1483h324l293 -953q41 -135 57 -204q20 102 55 204l302 953h307l-518 -1483h-301z" />
    <glyph glyph-name="W" unicode="W" horiz-adv-x="2160" 
d="M1362 0l-248 946q-14 47 -35 166q-18 -106 -32 -166l-248 -946h-328l-446 1483h307l254 -957q18 -68 43 -227q23 129 49 227l258 957h289l258 -957q27 -98 49 -227q18 131 43 227l254 957h307l-446 -1483h-328z" />
    <glyph glyph-name="X" unicode="X" horiz-adv-x="1314" 
d="M4 0l483 760l-460 723h335l252 -428q29 -53 45 -101q25 59 50 101l254 428h323l-461 -723l486 -760h-336l-277 471q-23 39 -47 100q-10 -33 -47 -100l-276 -471h-324z" />
    <glyph glyph-name="Y" unicode="Y" horiz-adv-x="1308" 
d="M510 0v563l-502 920h334l219 -467q70 -150 92 -217q29 80 95 217l219 467h333l-501 -920v-563h-289z" />
    <glyph glyph-name="Z" unicode="Z" horiz-adv-x="1249" 
d="M78 0v221l727 1024h-703v238h1039v-221l-725 -1024h755v-238h-1093z" />
    <glyph glyph-name="bracketleft" unicode="[" horiz-adv-x="864" 
d="M266 -190v1742h459v-153h-215v-1436h215v-153h-459z" />
    <glyph glyph-name="backslash" unicode="\" horiz-adv-x="1003" 
d="M702 0l-665 1552h262l668 -1552h-265z" />
    <glyph glyph-name="bracketright" unicode="]" horiz-adv-x="864" 
d="M139 -190v153h215v1436h-215v153h459v-1742h-459z" />
    <glyph glyph-name="asciicircum" unicode="^" horiz-adv-x="933" 
d="M37 897l278 586h306l276 -586h-240l-190 377l-191 -377h-239z" />
    <glyph glyph-name="underscore" unicode="_" horiz-adv-x="880" 
d="M-20 -246v246h921v-246h-921z" />
    <glyph glyph-name="grave" unicode="`" horiz-adv-x="933" 
d="M512 1204l-303 324h323l193 -324h-213z" />
    <glyph glyph-name="a" unicode="a" horiz-adv-x="1142" 
d="M694 444q-326 0 -326 -126q2 -135 168 -136q92 0 181 60v202h-23zM717 647q0 103 -50 147t-169 44q-188 0 -336 -66v223q154 86 380 86t341 -99t114 -320v-662h-256l-14 80q-133 -113 -297 -113t-257 86q-91 86 -91 228q0 346 553 346l82 -2v22z" />
    <glyph glyph-name="b" unicode="b" horiz-adv-x="1277" 
d="M658 205q125 0 185 88t60 229q0 140 -61 232q-60 92 -186 92t-207 -53v-537q84 -51 209 -51zM705 -33q-168 0 -275 105l-18 -72h-244v1552h281v-575q107 106 305 106t317 -145q119 -146 119 -408t-129 -412t-356 -151z" />
    <glyph glyph-name="c" unicode="c" horiz-adv-x="956" 
d="M547 -31q-219 -1 -341 147t-122 412t124 408t347 145q223 0 328 -55v-229q-113 41 -251 41t-199 -84q-62 -84 -62 -224t63 -230q63 -89 184 -89q160 0 273 41v-223q-125 -60 -344 -60z" />
    <glyph glyph-name="d" unicode="d" horiz-adv-x="1273" 
d="M620 205q123 0 205 51v537q-86 53 -212 53t-184 -87t-58 -229t63 -234q63 -91 186 -91zM530 -33q-204 0 -325 150q-121 149 -121 411t126 408t355 147q154 0 260 -75v544h281v-1552h-240l-24 90q-108 -123 -312 -123z" />
    <glyph glyph-name="e" unicode="e" horiz-adv-x="1112" 
d="M559 864q-178 0 -194 -221h389q-17 221 -195 221zM602 -31q-254 1 -387 147t-133 400t115 411t360 156q129 0 225 -45t150 -124q105 -154 102 -371q0 -61 -6 -99h-666q16 -233 273 -233q193 0 340 53v-221q-158 -74 -373 -74z" />
    <glyph glyph-name="f" unicode="f" horiz-adv-x="819" 
d="M41 817v234h172v123q0 197 110 300t310 103q129 0 219 -29v-217q-74 17 -168 17t-141 -46t-47 -147v-104h315v-234h-315v-817h-283v817h-172z" />
    <glyph glyph-name="g" unicode="g" horiz-adv-x="1277" 
d="M375 530q-1 -142 63 -234q64 -91 187 -91t204 51v537q-86 53 -212 53t-184 -87t-58 -229zM1110 29q0 -261 -142 -391t-397 -130q-256 0 -401 78v230q156 -66 336 -66t252 60t71 208v54q-109 -104 -304 -104t-316 149t-121 411t126 408t355 147q170 0 279 -98l18 66h244
v-1022z" />
    <glyph glyph-name="h" unicode="h" horiz-adv-x="1284" 
d="M168 0v1552h281v-573q123 104 315 104t284 -104q93 -104 93 -291v-688h-281v651q0 188 -192 189q-127 0 -219 -58v-782h-281z" />
    <glyph glyph-name="i" unicode="i" horiz-adv-x="616" 
d="M168 1208v275h281v-275h-281zM168 0v1051h281v-1051h-281z" />
    <glyph glyph-name="j" unicode="j" horiz-adv-x="616" 
d="M168 1208v275h281v-275h-281zM-23 -479q-70 0 -114 18v225q41 -8 86 -8q219 0 219 285v1010h281v-1008q1 -264 -125 -393t-347 -129z" />
    <glyph glyph-name="k" unicode="k" horiz-adv-x="1181" 
d="M168 0v1552h281v-925l366 424h334l-338 -392q-47 -53 -115 -100q53 -37 121 -117l354 -442h-348l-374 475v-475h-281z" />
    <glyph glyph-name="l" unicode="l" horiz-adv-x="679" 
d="M426 -16q-260 0 -260 274v1294h280v-1257q0 -39 18 -55q35 -32 150 -9v-223q-69 -24 -188 -24z" />
    <glyph glyph-name="m" unicode="m" horiz-adv-x="1976" 
d="M860 0v651q0 188 -192 189q-127 0 -219 -58v-782h-281v1051h244l22 -86q131 119 340 119t303 -146q145 145 377 145q193 0 286 -104t93 -291v-688h-281v651q0 188 -192 189q-127 0 -219 -58v-782h-281z" />
    <glyph glyph-name="n" unicode="n" horiz-adv-x="1284" 
d="M168 0v1051h244l22 -86q131 119 326 119t288 -105q93 -104 93 -291v-688h-281v651q0 188 -192 189q-127 0 -219 -58v-782h-281z" />
    <glyph glyph-name="o" unicode="o" horiz-adv-x="1216" 
d="M608 195q236 1 236 331t-236 330t-236 -330t236 -331zM1133 527q-1 -257 -131 -409t-397 -151q-267 0 -394 150q-127 151 -127 407t130 408t397 152t395 -150q127 -150 127 -407z" />
    <glyph glyph-name="p" unicode="p" horiz-adv-x="1275" 
d="M658 205q125 0 185 88t60 229q0 140 -61 232q-60 92 -186 92t-207 -53v-537q84 -51 209 -51zM168 -467v1518h244l22 -88q106 121 312 121t325 -146t119 -408t-129 -412t-356 -151q-152 0 -256 74v-508h-281z" />
    <glyph glyph-name="q" unicode="q" horiz-adv-x="1277" 
d="M375 530q-1 -142 63 -234q64 -91 187 -91t204 51v537q-86 53 -212 53t-184 -87t-58 -229zM829 -467v539q-109 -104 -304 -104t-316 149t-121 411t126 408t355 147q170 0 279 -98l18 66h244v-1518h-281z" />
    <glyph glyph-name="r" unicode="r" horiz-adv-x="833" 
d="M168 0v1051h264l10 -131q106 162 273 161q51 0 86 -12v-268q-68 14 -135 14q-129 0 -217 -84v-731h-281z" />
    <glyph glyph-name="s" unicode="s" horiz-adv-x="995" 
d="M457 -31q-105 -1 -209 19t-154 49v225q52 -25 156 -43t188 -18q199 0 199 96q0 51 -43 75q-42 24 -190 58t-224 112q-76 76 -76 222t109 232t334 85q94 0 190 -19t140 -50v-226q-55 27 -153 45t-177 19q-154 0 -154 -92q0 -49 41 -72q42 -22 190 -58t225 -112t77 -219
t-123 -235t-346 -93z" />
    <glyph glyph-name="t" unicode="t" horiz-adv-x="878" 
d="M45 817v234h164v325h280v-325h345v-234h-345v-450q0 -84 32 -119t126 -35t182 18v-219q-117 -43 -254 -43q-207 0 -287 94t-79 285v469h-164z" />
    <glyph glyph-name="u" unicode="u" horiz-adv-x="1265" 
d="M516 -33q-188 1 -280 105t-93 290v689h281v-652q0 -190 192 -190q111 0 201 55v787h281v-1051h-244l-23 84q-127 -117 -315 -117z" />
    <glyph glyph-name="v" unicode="v" horiz-adv-x="1075" 
d="M389 0l-381 1051h305l191 -623q23 -82 37 -160q20 96 41 160l200 623h285l-375 -1051h-303z" />
    <glyph glyph-name="w" unicode="w" horiz-adv-x="1673" 
d="M1030 0l-158 557q-25 76 -36 158q-18 -92 -37 -158l-160 -557h-281l-342 1051h293l158 -576q18 -66 35 -164q25 119 39 164l164 576h264l159 -576q25 -98 39 -170q18 109 37 170l162 576h291l-344 -1051h-283z" />
    <glyph glyph-name="x" unicode="x" horiz-adv-x="1091" 
d="M10 0l377 532l-367 519h328l203 -326l205 326h317l-371 -516l379 -535h-325l-213 346l-215 -346h-318z" />
    <glyph glyph-name="y" unicode="y" horiz-adv-x="1075" 
d="M106 -479q-63 0 -106 14v229q41 -8 94 -8q119 0 185 43t118 185l-389 1067h305l191 -621q23 -80 37 -162q20 102 41 162l200 621h285l-377 -1061q-92 -258 -223 -364q-132 -105 -361 -105z" />
    <glyph glyph-name="z" unicode="z" horiz-adv-x="1052" 
d="M90 0v172l502 645h-490v234h861v-172l-504 -646h524v-233h-893z" />
    <glyph glyph-name="braceleft" unicode="{" horiz-adv-x="929" 
d="M668 -190q-172 0 -254 66t-82 226v332q0 90 -37 130t-119 40h-53v156h53q82 0 119 40t37 130v330q0 162 82 228t254 64h123v-153h-76q-78 0 -109 -44t-31 -141v-284q0 -184 -137 -248q137 -61 137 -246v-289q0 -96 31 -140t109 -44h76v-153h-123z" />
    <glyph glyph-name="bar" unicode="|" horiz-adv-x="729" 
d="M254 -467v2019h221v-2019h-221z" />
    <glyph glyph-name="braceright" unicode="}" horiz-adv-x="929" 
d="M139 -190v153h76q78 0 109 44t30 140v289q0 186 135 246q-135 63 -135 248v284q0 96 -30 141q-31 44 -109 44h-76v153h123q172 0 254 -66t82 -226v-330q0 -90 37 -130t119 -40h53v-156h-53q-82 0 -119 -40t-37 -130v-332q0 -162 -82 -228t-254 -64h-123z" />
    <glyph glyph-name="asciitilde" unicode="~" horiz-adv-x="1085" 
d="M713 438q-85 0 -185 47t-143 47t-71 -24t-29 -64h-199q0 154 81 249t202 95q84 0 186 -47t146 -47t72 24t28 64h198q-1 -154 -83 -249t-203 -95z" />
    <glyph glyph-name="uni00A0" unicode="&#xa0;" horiz-adv-x="524" 
 />
    <glyph glyph-name="exclamdown" unicode="&#xa1;" horiz-adv-x="722" 
d="M522 1051v-303h-321v303h321zM514 -47v-385h-305v385q0 154 45 457l29 194h157l31 -192q43 -258 43 -459z" />
    <glyph glyph-name="cent" unicode="&#xa2;" 
d="M616 -66v232q-233 28 -351 178t-118 392t119 393t350 184v235h226v-229q174 -12 295 -66v-229q-154 61 -367 61q-160 0 -250 -86t-90 -254q0 -348 350 -348q203 0 373 58v-230q-147 -53 -311 -63v-228h-226z" />
    <glyph glyph-name="sterling" unicode="&#xa3;" 
d="M197 629v213h178v250q0 200 123 312t338 112q147 0 260 -46v-221q-94 33 -206 33t-169 -55t-57 -158v-227h403v-213h-403v-217q0 -129 -74 -179h639v-233h-1069v209h37q88 0 133 59t45 156v205h-178z" />
    <glyph glyph-name="currency" unicode="&#xa4;" 
d="M678 508q100 0 167 70t66 172q0 102 -66 172q-67 70 -167 70t-167 -70t-67 -172t67 -172t167 -70zM678 289q-129 0 -242 61l-131 -141l-168 168l139 129q-63 109 -63 245t63 240l-139 131l168 168l131 -143q111 63 242 63t240 -63l133 143l168 -168l-142 -131
q66 -109 66 -241t-66 -244l142 -129l-168 -168l-133 141q-111 -61 -240 -61z" />
    <glyph glyph-name="yen" unicode="&#xa5;" 
d="M117 666v196h254l-338 621h334l219 -467q70 -150 92 -217q29 80 94 217l219 467h334l-338 -621h248v-196h-356l-56 -105v-76h412v-196h-412v-289h-288v289h-418v196h418v76l-58 105h-360z" />
    <glyph glyph-name="brokenbar" unicode="&#xa6;" horiz-adv-x="729" 
d="M254 915v637h221v-637h-221zM254 -190v636h221v-636h-221z" />
    <glyph glyph-name="section" unicode="&#xa7;" 
d="M975 621q0 53 -31 79t-96 48l-277 81q-55 14 -116 45q-70 -55 -70 -139q0 -51 31 -79t98 -48l277 -82q61 -18 112 -45q72 57 72 140zM746 1284q-200 0 -199 -117q0 -80 160 -125l235 -65q305 -88 305 -303q0 -90 -60 -168t-153 -117q82 -86 82 -190q0 -175 -141 -267
t-369 -92q-116 0 -232 22t-177 52v225q188 -68 385 -67q231 0 231 116q0 45 -43 73t-125 50l-235 68q-297 86 -297 303q0 90 60 168t153 115q-82 86 -82 192q0 174 136 266t353 93q111 0 225 -20t164 -50v-225q-176 63 -376 63z" />
    <glyph glyph-name="dieresis" unicode="&#xa8;" horiz-adv-x="933" 
d="M537 1241v250h268v-250h-268zM129 1241v250h268v-250h-268z" />
    <glyph glyph-name="copyright" unicode="&#xa9;" horiz-adv-x="1781" 
d="M891 131q276 0 419 165q142 166 142 446t-142 445t-418 165t-420 -165q-142 -165 -142 -446t142 -445t419 -165zM891 -33q-352 0 -558 217t-206 557t206 557q206 218 558 218t558 -218t206 -557q0 -340 -206 -557t-558 -217zM895 313q-197 0 -294 119q-97 118 -97 312
t106 311t303 116q152 0 258 -55v-176q-102 45 -245 45q-90 0 -142 -63t-51 -186q0 -124 45 -180t167 -56t237 47v-180q-129 -54 -287 -54z" />
    <glyph glyph-name="ordfeminine" unicode="&#xaa;" horiz-adv-x="1034" 
d="M475 766q96 0 178 51v154h-24q-151 0 -221 -25t-70 -82q0 -98 137 -98zM90 170v225h817v-225h-817zM653 1133q0 156 -194 155q-164 0 -289 -51v188q133 70 327 70q193 0 291 -82t99 -266v-541h-213l-15 74q-115 -94 -257 -94t-221 72t-79 188q0 150 120 216t358 64l73 -2
v9z" />
    <glyph glyph-name="guillemotleft" unicode="&#xab;" horiz-adv-x="1335" 
d="M967 233l-349 381l349 381h241l-280 -381l280 -381h-241zM475 233l-348 381l348 381h242l-281 -381l281 -381h-242z" />
    <glyph glyph-name="logicalnot" unicode="&#xac;" horiz-adv-x="1228" 
d="M909 201v286h-848v246h1106v-532h-258z" />
    <glyph glyph-name="uni00AD" unicode="&#xad;" horiz-adv-x="755" 
d="M100 473v277h555v-277h-555z" />
    <glyph glyph-name="registered" unicode="&#xae;" horiz-adv-x="1380" 
d="M680 1202h-82v-151h78q111 0 110 84q0 67 -106 67zM457 719v592h241q106 0 168 -44t64 -132q0 -123 -121 -162q14 -8 35 -35l141 -219h-160l-118 186q-23 37 -66 37h-43v-223h-141zM690 563q188 0 309 127q121 128 121 318t-121 317t-309 127t-309 -127t-121 -317
t121 -318t309 -127zM690 438q-242 0 -408 160t-165 410q0 250 166 410q165 160 407 159q242 0 408 -160q166 -159 166 -409t-166 -410t-408 -160z" />
    <glyph glyph-name="macron" unicode="&#xaf;" horiz-adv-x="933" 
d="M154 1251v213h626v-213h-626z" />
    <glyph glyph-name="degree" unicode="&#xb0;" horiz-adv-x="1032" 
d="M696 1114q0 76 -49 130t-131 54t-131 -54t-49 -130t48 -128t132 -52t132 52t48 128zM516 1495q168 1 282 -109t115 -271t-113 -269t-284 -109q-170 0 -284 109q-114 110 -114 270t116 270q114 110 282 109z" />
    <glyph glyph-name="plusminus" unicode="&#xb1;" horiz-adv-x="1228" 
d="M82 0v246h1065v-246h-1065zM82 694v246h403v305h258v-305h404v-246h-404v-313h-258v313h-403z" />
    <glyph glyph-name="twosuperior" unicode="&#xb2;" horiz-adv-x="897" 
d="M98 752v151l146 94q158 102 221 167t63 132q0 100 -161 101q-131 0 -254 -60v156q123 72 293 72t256 -75q88 -75 88 -183q0 -203 -318 -387h363v-168h-697z" />
    <glyph glyph-name="threesuperior" unicode="&#xb3;" horiz-adv-x="897" 
d="M410 739q-184 0 -275 52v159q106 -45 272 -45t166 86q0 45 -47 74t-141 29h-113v147h113q74 1 127 19t53 57q0 82 -147 82t-264 -47v155q124 57 282 57t254 -62t96 -154q0 -133 -139 -185q145 -51 146 -188q1 -111 -99 -173t-284 -63z" />
    <glyph glyph-name="acute" unicode="&#xb4;" horiz-adv-x="933" 
d="M209 1204l192 324h324l-303 -324h-213z" />
    <glyph glyph-name="mu" unicode="&#xb5;" horiz-adv-x="1310" 
d="M547 -25q-61 0 -117 19q18 -80 19 -225v-236h-281v1518h281v-648q0 -186 192 -186q119 0 201 49v785h280v-756q0 -39 14 -55q25 -28 130 -11v-223q-66 -23 -176 -22q-160 0 -218 116q-135 -125 -325 -125z" />
    <glyph glyph-name="paragraph" unicode="&#xb6;" horiz-adv-x="1585" 
d="M694 -467v1102q-282 0 -412 116q-130 117 -130 309t129 308t413 115h637v-1950h-227v1751h-182v-1751h-228z" />
    <glyph glyph-name="periodcentered" unicode="&#xb7;" horiz-adv-x="768" 
d="M223 461v303h322v-303h-322z" />
    <glyph glyph-name="cedilla" unicode="&#xb8;" horiz-adv-x="933" 
d="M383 -303q98 0 98 63q0 35 -44 59t-103 27l102 174h146l-58 -118q62 -6 108 -50t46 -104q0 -90 -75 -138t-193 -48q-60 0 -117 14v131q45 -10 90 -10z" />
    <glyph glyph-name="onesuperior" unicode="&#xb9;" horiz-adv-x="897" 
d="M141 752v168h203v444l-203 -45v176l277 57h139v-632h203v-168h-619z" />
    <glyph glyph-name="ordmasculine" unicode="&#xba;" horiz-adv-x="1114" 
d="M94 170v225h926v-225h-926zM557 782q209 0 209 259t-209 259t-209 -259t209 -259zM1008 1041q0 -211 -113 -333t-341 -122t-338 121t-110 333t113 333q113 122 340 122t338 -121t111 -333z" />
    <glyph glyph-name="guillemotright" unicode="&#xbb;" horiz-adv-x="1335" 
d="M618 233l281 381l-281 381h242l348 -381l-348 -381h-242zM127 233l281 381l-281 381h242l348 -381l-348 -381h-242z" />
    <glyph glyph-name="onequarter" unicode="&#xbc;" horiz-adv-x="2054" 
d="M1626 266v160q0 74 8 117q-41 -76 -96 -144l-106 -133h194zM1626 0v125h-416v123l435 553h194v-535h148v-141h-148v-125h-213zM485 0l863 1483h217l-860 -1483h-220zM141 682v168h203v444l-203 -45v176l277 58h139v-633h203v-168h-619z" />
    <glyph glyph-name="onehalf" unicode="&#xbd;" horiz-adv-x="2054" 
d="M1255 0v152l146 94q158 102 221 167t64 132q0 100 -162 100q-131 0 -254 -59v155q122 72 292 72t258 -75t87 -183q0 -199 -318 -387h363v-168h-697zM485 0l863 1483h217l-860 -1483h-220zM141 682v168h203v444l-203 -45v176l277 58h139v-633h203v-168h-619z" />
    <glyph glyph-name="threequarters" unicode="&#xbe;" horiz-adv-x="2054" 
d="M1626 266v160q0 74 8 117q-41 -76 -96 -144l-106 -133h194zM1626 0v125h-416v123l435 553h194v-535h148v-141h-148v-125h-213zM485 0l863 1483h217l-860 -1483h-220zM410 670q-184 0 -275 51v160q106 -45 272 -45t166 86q0 46 -47 74t-141 28h-113v147h113q74 1 127 19
t53 57q0 82 -147 82t-264 -47v156q124 57 282 57t254 -62t96 -155q0 -133 -139 -184q145 -51 146 -189q1 -111 -99 -173t-284 -62z" />
    <glyph glyph-name="questiondown" unicode="&#xbf;" horiz-adv-x="1097" 
d="M811 1053v-303h-322v303h322zM406 -37q0 -90 64 -136t175 -46q193 0 363 90v-238q-150 -96 -383 -96t-376 108q-142 108 -143 285q0 113 59 213q58 99 127 159t177 134l47 31l21 139h239l31 -223l-154 -102q-129 -86 -188 -157t-59 -161z" />
    <glyph glyph-name="Agrave" unicode="&#xc0;" horiz-adv-x="1411" 
d="M629 1581l-303 324h323l193 -324h-213zM629 958l-135 -405h407l-133 405q-49 147 -70 269q-20 -122 -69 -269zM16 0l535 1483h309l535 -1483h-310l-106 319h-563l-105 -319h-295z" />
    <glyph glyph-name="Aacute" unicode="&#xc1;" horiz-adv-x="1411" 
d="M559 1581l193 324h323l-303 -324h-213zM629 958l-135 -405h407l-133 405q-49 147 -70 269q-20 -122 -69 -269zM16 0l535 1483h309l535 -1483h-310l-106 319h-563l-105 -319h-295z" />
    <glyph glyph-name="Acircumflex" unicode="&#xc2;" horiz-adv-x="1411" 
d="M356 1581l217 324h256l218 -324h-205l-142 168l-139 -168h-205zM629 958l-135 -405h407l-133 405q-49 147 -70 269q-20 -122 -69 -269zM16 0l535 1483h309l535 -1483h-310l-106 319h-563l-105 -319h-295z" />
    <glyph glyph-name="Atilde" unicode="&#xc3;" horiz-adv-x="1411" 
d="M313 1593q0 137 68 217t176 80q68 0 154 -48t118 -48q90 0 91 90h167q1 -137 -69 -217t-178 -80q-68 0 -152 48t-117 48q-86 0 -90 -90h-168zM629 958l-135 -405h407l-133 405q-49 147 -70 269q-20 -122 -69 -269zM16 0l535 1483h309l535 -1483h-310l-106 319h-563
l-105 -319h-295z" />
    <glyph glyph-name="Adieresis" unicode="&#xc4;" horiz-adv-x="1411" 
d="M770 1618v250h268v-250h-268zM362 1618v250h269v-250h-269zM629 958l-135 -405h407l-133 405q-49 147 -70 269q-20 -122 -69 -269zM16 0l535 1483h309l535 -1483h-310l-106 319h-563l-105 -319h-295z" />
    <glyph glyph-name="Aring" unicode="&#xc5;" horiz-adv-x="1411" 
d="M801 1773q0 41 -29 71t-72 30q-42 0 -72 -30t-30 -72t30 -71q30 -30 72 -30t72 30q29 30 29 72zM946 1774q0 -100 -70 -167t-176 -67q-104 0 -175 67t-70 167t71 166t174 67q104 -1 175 -67t71 -166zM629 958l-135 -405h407l-133 405q-49 147 -70 269q-20 -122 -69 -269z
M16 0l535 1483h309l535 -1483h-310l-106 319h-563l-105 -319h-295z" />
    <glyph glyph-name="AE" unicode="&#xc6;" horiz-adv-x="1966" 
d="M911 553v692h-112l-271 -692h383zM911 0v319h-475l-125 -319h-295l582 1483h1249v-238h-647v-366h557v-238h-557v-403h655v-238h-944z" />
    <glyph glyph-name="Ccedilla" unicode="&#xc7;" horiz-adv-x="1271" 
d="M774 1266q-366 0 -366 -537q0 -266 91 -390t285 -124q231 0 414 76v-240q-170 -76 -395 -82l-31 -67q62 -6 108 -50t46 -104q0 -90 -75 -138t-194 -48q-59 0 -116 14v131q45 -10 90 -10q98 0 98 63q0 35 -44 59t-103 27l73 125q-272 27 -410 230q-139 203 -139 551
t166 556t486 208q260 0 424 -91v-239q-164 80 -408 80z" />
    <glyph glyph-name="Egrave" unicode="&#xc8;" horiz-adv-x="1239" 
d="M584 1581l-303 324h323l193 -324h-213zM184 0v1483h936v-238h-647v-366h557v-238h-557v-403h655v-238h-944z" />
    <glyph glyph-name="Eacute" unicode="&#xc9;" horiz-adv-x="1239" 
d="M514 1581l193 324h323l-303 -324h-213zM184 0v1483h936v-238h-647v-366h557v-238h-557v-403h655v-238h-944z" />
    <glyph glyph-name="Ecircumflex" unicode="&#xca;" horiz-adv-x="1239" 
d="M311 1581l217 324h256l217 -324h-204l-142 168l-139 -168h-205zM184 0v1483h936v-238h-647v-366h557v-238h-557v-403h655v-238h-944z" />
    <glyph glyph-name="Edieresis" unicode="&#xcb;" horiz-adv-x="1239" 
d="M725 1618v250h268v-250h-268zM317 1618v250h269v-250h-269zM184 0v1483h936v-238h-647v-366h557v-238h-557v-403h655v-238h-944z" />
    <glyph glyph-name="Igrave" unicode="&#xcc;" horiz-adv-x="874" 
d="M365 1581l-304 324h324l193 -324h-213zM123 1253v230h629v-230h-170v-1024h170v-229h-629v229h170v1024h-170z" />
    <glyph glyph-name="Iacute" unicode="&#xcd;" horiz-adv-x="874" 
d="M295 1581l192 324h324l-303 -324h-213zM123 1253v230h629v-230h-170v-1024h170v-229h-629v229h170v1024h-170z" />
    <glyph glyph-name="Icircumflex" unicode="&#xce;" horiz-adv-x="874" 
d="M92 1581l217 324h256l217 -324h-204l-142 168l-139 -168h-205zM123 1253v230h629v-230h-170v-1024h170v-229h-629v229h170v1024h-170z" />
    <glyph glyph-name="Idieresis" unicode="&#xcf;" horiz-adv-x="874" 
d="M506 1618v250h268v-250h-268zM98 1618v250h269v-250h-269zM123 1253v230h629v-230h-170v-1024h170v-229h-629v229h170v1024h-170z" />
    <glyph glyph-name="Eth" unicode="&#xd0;" horiz-adv-x="1523" 
d="M719 1245h-225v-391h284v-246h-284v-370h225q391 0 391 504t-391 503zM78 608v246h127v629h524q680 0 680 -742q0 -329 -157 -535t-523 -206h-524v608h-127z" />
    <glyph glyph-name="Ntilde" unicode="&#xd1;" horiz-adv-x="1570" 
d="M397 1593q0 137 68 217t176 80q68 0 154 -48t118 -48q90 0 91 90h167q1 -137 -69 -217t-178 -80q-68 0 -152 48t-117 48q-86 0 -90 -90h-168zM184 0v1483h293l537 -856q51 -80 112 -226q-16 137 -16 226v856h276v-1483h-292l-537 856q-51 80 -115 225q18 -158 19 -225
v-856h-277z" />
    <glyph glyph-name="Ograve" unicode="&#xd2;" horiz-adv-x="1527" 
d="M692 1581l-303 324h324l192 -324h-213zM764 211q350 0 350 530t-350 531q-350 0 -350 -530t350 -531zM764 -33q-374 0 -519 230q-132 206 -130 544q0 774 649 775q372 0 519 -230q130 -203 130 -545q0 -774 -649 -774z" />
    <glyph glyph-name="Oacute" unicode="&#xd3;" horiz-adv-x="1527" 
d="M623 1581l192 324h324l-303 -324h-213zM764 211q350 0 350 530t-350 531q-350 0 -350 -530t350 -531zM764 -33q-374 0 -519 230q-132 206 -130 544q0 774 649 775q372 0 519 -230q130 -203 130 -545q0 -774 -649 -774z" />
    <glyph glyph-name="Ocircumflex" unicode="&#xd4;" horiz-adv-x="1527" 
d="M420 1581l217 324h256l217 -324h-205l-141 168l-139 -168h-205zM764 211q350 0 350 530t-350 531q-350 0 -350 -530t350 -531zM764 -33q-374 0 -519 230q-132 206 -130 544q0 774 649 775q372 0 519 -230q130 -203 130 -545q0 -774 -649 -774z" />
    <glyph glyph-name="Otilde" unicode="&#xd5;" horiz-adv-x="1527" 
d="M377 1593q0 137 67 217q68 80 177 80q67 0 153 -48t119 -48q90 0 90 90h168q0 -137 -70 -217t-178 -80q-67 0 -151 48t-117 48q-86 0 -90 -90h-168zM764 211q350 0 350 530t-350 531q-350 0 -350 -530t350 -531zM764 -33q-374 0 -519 230q-132 206 -130 544
q0 774 649 775q372 0 519 -230q130 -203 130 -545q0 -774 -649 -774z" />
    <glyph glyph-name="Odieresis" unicode="&#xd6;" horiz-adv-x="1527" 
d="M834 1618v250h268v-250h-268zM426 1618v250h268v-250h-268zM764 211q350 0 350 530t-350 531q-350 0 -350 -530t350 -531zM764 -33q-374 0 -519 230q-132 206 -130 544q0 774 649 775q372 0 519 -230q130 -203 130 -545q0 -774 -649 -774z" />
    <glyph glyph-name="multiply" unicode="&#xd7;" horiz-adv-x="1228" 
d="M315 129l-182 182l299 299l-299 299l182 183l299 -299l299 299l183 -183l-299 -299l299 -299l-183 -182l-299 299z" />
    <glyph glyph-name="Oslash" unicode="&#xd8;" horiz-adv-x="1527" 
d="M764 211q350 0 350 530q0 162 -33 273l-522 -738q78 -65 205 -65zM414 741q0 -166 32 -276l525 737q-82 70 -207 70q-350 -1 -350 -531zM764 -33q-229 0 -379 94l-57 -81h-226l148 208q-135 190 -135 553q0 774 649 775q233 0 381 -97l61 84h224l-152 -213
q135 -190 135 -549q0 -774 -649 -774z" />
    <glyph glyph-name="Ugrave" unicode="&#xd9;" horiz-adv-x="1470" 
d="M664 1581l-304 324h324l193 -324h-213zM735 -33q-174 0 -291 40t-177 118t-84 168t-23 213v977h289v-936q-1 -188 65 -262t222 -74t220 74q66 74 66 262v936h289v-977q0 -123 -24 -213t-84 -168t-177 -118t-291 -40z" />
    <glyph glyph-name="Uacute" unicode="&#xda;" horiz-adv-x="1470" 
d="M594 1581l192 324h324l-303 -324h-213zM735 -33q-174 0 -291 40t-177 118t-84 168t-23 213v977h289v-936q-1 -188 65 -262t222 -74t220 74q66 74 66 262v936h289v-977q0 -123 -24 -213t-84 -168t-177 -118t-291 -40z" />
    <glyph glyph-name="Ucircumflex" unicode="&#xdb;" horiz-adv-x="1470" 
d="M391 1581l217 324h256l217 -324h-204l-142 168l-139 -168h-205zM735 -33q-174 0 -291 40t-177 118t-84 168t-23 213v977h289v-936q-1 -188 65 -262t222 -74t220 74q66 74 66 262v936h289v-977q0 -123 -24 -213t-84 -168t-177 -118t-291 -40z" />
    <glyph glyph-name="Udieresis" unicode="&#xdc;" horiz-adv-x="1470" 
d="M805 1618v250h268v-250h-268zM397 1618v250h269v-250h-269zM735 -33q-174 0 -291 40t-177 118t-84 168t-23 213v977h289v-936q-1 -188 65 -262t222 -74t220 74q66 74 66 262v936h289v-977q0 -123 -24 -213t-84 -168t-177 -118t-291 -40z" />
    <glyph glyph-name="Yacute" unicode="&#xdd;" horiz-adv-x="1308" 
d="M516 1581l193 324h323l-303 -324h-213zM510 0v563l-502 920h334l219 -467q70 -150 92 -217q29 80 95 217l219 467h333l-501 -920v-563h-289z" />
    <glyph glyph-name="Thorn" unicode="&#xde;" horiz-adv-x="1277" 
d="M674 1034h-203v-522h178q268 0 269 264q0 122 -62 190t-182 68zM184 0v1483h287v-226h229q512 0 512 -481q0 -238 -133 -364t-401 -125h-207v-287h-287z" />
    <glyph glyph-name="germandbls" unicode="&#xdf;" horiz-adv-x="1331" 
d="M840 -31q-170 0 -277 64v227q123 -61 273 -61q168 0 168 151q0 68 -38 119t-132 98l-271 133v191l115 47q205 84 205 238q0 70 -50 122t-153 52q-231 0 -231 -273v-1077h-281v1104q0 229 145 351t369 122t353 -113q130 -113 130 -280q1 -125 -71 -218t-185 -139l-71 -28
l86 -37q186 -80 274 -170t88 -247t-114 -267t-332 -109z" />
    <glyph glyph-name="agrave" unicode="&#xe0;" horiz-adv-x="1142" 
d="M494 1204l-304 324h324l193 -324h-213zM694 444q-326 0 -326 -126q2 -135 168 -136q92 0 181 60v202h-23zM717 647q0 103 -50 147t-169 44q-188 0 -336 -66v223q154 86 380 86t341 -99t114 -320v-662h-256l-14 80q-133 -113 -297 -113t-257 86q-91 86 -91 228
q0 346 553 346l82 -2v22z" />
    <glyph glyph-name="aacute" unicode="&#xe1;" horiz-adv-x="1142" 
d="M424 1204l192 324h324l-303 -324h-213zM694 444q-326 0 -326 -126q2 -135 168 -136q92 0 181 60v202h-23zM717 647q0 103 -50 147t-169 44q-188 0 -336 -66v223q154 86 380 86t341 -99t114 -320v-662h-256l-14 80q-133 -113 -297 -113t-257 86q-91 86 -91 228
q0 346 553 346l82 -2v22z" />
    <glyph glyph-name="acircumflex" unicode="&#xe2;" horiz-adv-x="1142" 
d="M221 1204l217 324h256l217 -324h-204l-142 168l-139 -168h-205zM694 444q-326 0 -326 -126q2 -135 168 -136q92 0 181 60v202h-23zM717 647q0 103 -50 147t-169 44q-188 0 -336 -66v223q154 86 380 86t341 -99t114 -320v-662h-256l-14 80q-133 -113 -297 -113t-257 86
q-91 86 -91 228q0 346 553 346l82 -2v22z" />
    <glyph glyph-name="atilde" unicode="&#xe3;" horiz-adv-x="1142" 
d="M178 1217q0 137 68 217t176 79q68 0 154 -48t118 -48q90 0 90 90h168q0 -137 -70 -217t-177 -80q-68 0 -152 48t-117 49q-86 0 -90 -90h-168zM694 444q-326 0 -326 -126q2 -135 168 -136q92 0 181 60v202h-23zM717 647q0 103 -50 147t-169 44q-188 0 -336 -66v223
q154 86 380 86t341 -99t114 -320v-662h-256l-14 80q-133 -113 -297 -113t-257 86q-91 86 -91 228q0 346 553 346l82 -2v22z" />
    <glyph glyph-name="adieresis" unicode="&#xe4;" horiz-adv-x="1142" 
d="M635 1241v250h268v-250h-268zM227 1241v250h269v-250h-269zM694 444q-326 0 -326 -126q2 -135 168 -136q92 0 181 60v202h-23zM717 647q0 103 -50 147t-169 44q-188 0 -336 -66v223q154 86 380 86t341 -99t114 -320v-662h-256l-14 80q-133 -113 -297 -113t-257 86
q-91 86 -91 228q0 346 553 346l82 -2v22z" />
    <glyph glyph-name="aring" unicode="&#xe5;" horiz-adv-x="1142" 
d="M666 1429q0 41 -29 71t-72 30t-73 -30t-29 -72q0 -42 30 -71q31 -30 73 -30t71 30t29 72zM811 1430q0 -100 -71 -167t-175 -67t-175 67t-71 167t71 166t175 67q104 -1 175 -67t71 -166zM694 444q-326 0 -326 -126q2 -135 168 -136q92 0 181 60v202h-23zM717 647
q0 103 -50 147t-169 44q-188 0 -336 -66v223q154 86 380 86t341 -99t114 -320v-662h-256l-14 80q-133 -113 -297 -113t-257 86q-91 86 -91 228q0 346 553 346l82 -2v22z" />
    <glyph glyph-name="ae" unicode="&#xe6;" horiz-adv-x="1746" 
d="M1192 864q-176 0 -193 -221h390q-21 221 -197 221zM694 444q-326 0 -326 -126q2 -135 168 -136q92 0 181 56v206h-23zM717 647q0 99 -52 145t-171 46q-184 0 -332 -66v223q154 86 382 86t337 -125q111 127 311 127q129 0 225 -45q95 -45 149 -124q105 -154 103 -371
q0 -61 -6 -99h-666q16 -236 273 -235q193 0 340 53v-221q-158 -74 -392 -74t-372 152q-141 -152 -404 -152q-166 0 -263 86t-97 228q0 346 553 346l82 -2v22z" />
    <glyph glyph-name="ccedilla" unicode="&#xe7;" horiz-adv-x="956" 
d="M444 -303q98 0 99 63q0 35 -44 59t-104 27l76 129q-186 27 -287 170q-100 143 -100 395t124 396t347 145q223 0 328 -55v-229q-113 41 -251 41t-199 -84q-62 -84 -62 -224t63 -230q63 -89 184 -89q160 0 273 41v-223q-102 -47 -273 -58l-32 -69q63 -6 108 -50t45 -104
q-1 -90 -75 -138t-193 -48q-60 0 -117 14v131q45 -10 90 -10z" />
    <glyph glyph-name="egrave" unicode="&#xe8;" horiz-adv-x="1112" 
d="M485 1204l-303 324h324l192 -324h-213zM559 864q-178 0 -194 -221h389q-17 221 -195 221zM602 -31q-254 1 -387 147t-133 400t115 411t360 156q129 0 225 -45t150 -124q105 -154 102 -371q0 -61 -6 -99h-666q16 -233 273 -233q193 0 340 53v-221q-158 -74 -373 -74z" />
    <glyph glyph-name="eacute" unicode="&#xe9;" horiz-adv-x="1112" 
d="M416 1204l192 324h324l-303 -324h-213zM559 864q-178 0 -194 -221h389q-17 221 -195 221zM602 -31q-254 1 -387 147t-133 400t115 411t360 156q129 0 225 -45t150 -124q105 -154 102 -371q0 -61 -6 -99h-666q16 -233 273 -233q193 0 340 53v-221q-158 -74 -373 -74z" />
    <glyph glyph-name="ecircumflex" unicode="&#xea;" horiz-adv-x="1112" 
d="M213 1204l217 324h256l217 -324h-205l-141 168l-139 -168h-205zM559 864q-178 0 -194 -221h389q-17 221 -195 221zM602 -31q-254 1 -387 147t-133 400t115 411t360 156q129 0 225 -45t150 -124q105 -154 102 -371q0 -61 -6 -99h-666q16 -233 273 -233q193 0 340 53v-221
q-158 -74 -373 -74z" />
    <glyph glyph-name="edieresis" unicode="&#xeb;" horiz-adv-x="1112" 
d="M627 1241v250h268v-250h-268zM219 1241v250h268v-250h-268zM559 864q-178 0 -194 -221h389q-17 221 -195 221zM602 -31q-254 1 -387 147t-133 400t115 411t360 156q129 0 225 -45t150 -124q105 -154 102 -371q0 -61 -6 -99h-666q16 -233 273 -233q193 0 340 53v-221
q-158 -74 -373 -74z" />
    <glyph glyph-name="igrave" unicode="&#xec;" horiz-adv-x="616" 
d="M236 1204l-304 324h324l193 -324h-213zM168 0v1051h281v-1051h-281z" />
    <glyph glyph-name="iacute" unicode="&#xed;" horiz-adv-x="616" 
d="M166 1204l192 324h324l-303 -324h-213zM168 0v1051h281v-1051h-281z" />
    <glyph glyph-name="icircumflex" unicode="&#xee;" horiz-adv-x="616" 
d="M-37 1204l217 324h256l217 -324h-204l-142 168l-139 -168h-205zM168 0v1051h281v-1051h-281z" />
    <glyph glyph-name="idieresis" unicode="&#xef;" horiz-adv-x="616" 
d="M377 1241v250h268v-250h-268zM-31 1241v250h269v-250h-269zM168 0v1051h281v-1051h-281z" />
    <glyph glyph-name="eth" unicode="&#xf0;" horiz-adv-x="1216" 
d="M608 195q236 -1 236 291t-236 292t-236 -292t236 -291zM1133 526q0 -260 -127 -410q-126 -150 -400 -149q-274 0 -398 139q-124 140 -124 372t124 368t339 135q123 0 219 -66q-78 125 -191 236l-296 -121v176l151 62q-86 59 -172 102l115 133q154 -55 282 -143l324 131
v-176l-178 -72q332 -311 332 -717z" />
    <glyph glyph-name="ntilde" unicode="&#xf1;" horiz-adv-x="1284" 
d="M266 1217q0 137 68 217t176 79q68 0 154 -48t118 -48q90 0 90 90h168q0 -137 -70 -217t-177 -80q-68 0 -152 48t-117 49q-86 0 -90 -90h-168zM168 0v1051h244l22 -86q131 119 326 119t288 -105q93 -104 93 -291v-688h-281v651q0 188 -192 189q-127 0 -219 -58v-782h-281z
" />
    <glyph glyph-name="ograve" unicode="&#xf2;" horiz-adv-x="1216" 
d="M537 1204l-304 324h324l193 -324h-213zM608 195q236 1 236 331t-236 330t-236 -330t236 -331zM1133 527q-1 -257 -131 -409t-397 -151q-267 0 -394 150q-127 151 -127 407t130 408t397 152t395 -150q127 -150 127 -407z" />
    <glyph glyph-name="oacute" unicode="&#xf3;" horiz-adv-x="1216" 
d="M467 1204l192 324h324l-303 -324h-213zM608 195q236 1 236 331t-236 330t-236 -330t236 -331zM1133 527q-1 -257 -131 -409t-397 -151q-267 0 -394 150q-127 151 -127 407t130 408t397 152t395 -150q127 -150 127 -407z" />
    <glyph glyph-name="ocircumflex" unicode="&#xf4;" horiz-adv-x="1216" 
d="M264 1204l217 324h256l217 -324h-204l-142 168l-139 -168h-205zM608 195q236 1 236 331t-236 330t-236 -330t236 -331zM1133 527q-1 -257 -131 -409t-397 -151q-267 0 -394 150q-127 151 -127 407t130 408t397 152t395 -150q127 -150 127 -407z" />
    <glyph glyph-name="otilde" unicode="&#xf5;" horiz-adv-x="1216" 
d="M221 1217q0 137 68 217t176 79q67 0 153 -48t119 -48q90 0 90 90h168q1 -137 -69 -217t-178 -80q-68 0 -152 48t-117 49q-86 0 -90 -90h-168zM608 195q236 1 236 331t-236 330t-236 -330t236 -331zM1133 527q-1 -257 -131 -409t-397 -151q-267 0 -394 150
q-127 151 -127 407t130 408t397 152t395 -150q127 -150 127 -407z" />
    <glyph glyph-name="odieresis" unicode="&#xf6;" horiz-adv-x="1216" 
d="M678 1241v250h268v-250h-268zM270 1241v250h269v-250h-269zM608 195q236 1 236 331t-236 330t-236 -330t236 -331zM1133 527q-1 -257 -131 -409t-397 -151q-267 0 -394 150q-127 151 -127 407t130 408t397 152t395 -150q127 -150 127 -407z" />
    <glyph glyph-name="divide" unicode="&#xf7;" horiz-adv-x="1228" 
d="M475 889v274h281v-274h-281zM475 57v275h281v-275h-281zM61 494v233h1106v-233h-1106z" />
    <glyph glyph-name="oslash" unicode="&#xf8;" horiz-adv-x="1216" 
d="M373 524q0 -82 14 -141l354 432q-57 41 -133 41q-235 0 -235 -332zM608 195q236 0 236 331q0 72 -17 142l-352 -435q51 -38 133 -38zM608 -33q-184 0 -309 76l-51 -63h-193l133 163q-104 139 -104 388t130 401t394 151q186 0 310 -77l53 65h190l-135 -166
q106 -139 106 -387t-130 -400t-394 -151z" />
    <glyph glyph-name="ugrave" unicode="&#xf9;" horiz-adv-x="1265" 
d="M549 1204l-303 324h323l193 -324h-213zM516 -33q-188 1 -280 105t-93 290v689h281v-652q0 -190 192 -190q111 0 201 55v787h281v-1051h-244l-23 84q-127 -117 -315 -117z" />
    <glyph glyph-name="uacute" unicode="&#xfa;" horiz-adv-x="1265" 
d="M479 1204l193 324h323l-303 -324h-213zM516 -33q-188 1 -280 105t-93 290v689h281v-652q0 -190 192 -190q111 0 201 55v787h281v-1051h-244l-23 84q-127 -117 -315 -117z" />
    <glyph glyph-name="ucircumflex" unicode="&#xfb;" horiz-adv-x="1265" 
d="M276 1204l218 324h256l217 -324h-205l-141 168l-140 -168h-205zM516 -33q-188 1 -280 105t-93 290v689h281v-652q0 -190 192 -190q111 0 201 55v787h281v-1051h-244l-23 84q-127 -117 -315 -117z" />
    <glyph glyph-name="udieresis" unicode="&#xfc;" horiz-adv-x="1265" 
d="M690 1241v250h268v-250h-268zM283 1241v250h268v-250h-268zM516 -33q-188 1 -280 105t-93 290v689h281v-652q0 -190 192 -190q111 0 201 55v787h281v-1051h-244l-23 84q-127 -117 -315 -117z" />
    <glyph glyph-name="yacute" unicode="&#xfd;" horiz-adv-x="1075" 
d="M401 1204l193 324h324l-304 -324h-213zM106 -479q-63 0 -106 14v229q41 -8 94 -8q119 0 185 43t118 185l-389 1067h305l191 -621q23 -80 37 -162q20 102 41 162l200 621h285l-377 -1061q-92 -258 -223 -364q-132 -105 -361 -105z" />
    <glyph glyph-name="thorn" unicode="&#xfe;" horiz-adv-x="1275" 
d="M658 205q125 0 185 88t60 229q0 140 -61 232q-60 92 -186 92t-207 -53v-537q84 -51 209 -51zM168 -467v2019h281v-575q107 106 305 106t317 -145q119 -146 119 -408t-129 -412t-356 -151q-152 0 -256 74v-508h-281z" />
    <glyph glyph-name="ydieresis" unicode="&#xff;" horiz-adv-x="1075" 
d="M612 1241v250h269v-250h-269zM205 1241v250h268v-250h-268zM106 -479q-63 0 -106 14v229q41 -8 94 -8q119 0 185 43t118 185l-389 1067h305l191 -621q23 -80 37 -162q20 102 41 162l200 621h285l-377 -1061q-92 -258 -223 -364q-132 -105 -361 -105z" />
    <glyph glyph-name="Amacron" unicode="&#x100;" horiz-adv-x="1411" 
d="M387 1628v213h627v-213h-627zM629 958l-135 -405h407l-133 405q-49 147 -70 269q-20 -122 -69 -269zM16 0l535 1483h309l535 -1483h-310l-106 319h-563l-105 -319h-295z" />
    <glyph glyph-name="amacron" unicode="&#x101;" horiz-adv-x="1142" 
d="M252 1251v213h627v-213h-627zM694 444q-326 0 -326 -126q2 -135 168 -136q92 0 181 60v202h-23zM717 647q0 103 -50 147t-169 44q-188 0 -336 -66v223q154 86 380 86t341 -99t114 -320v-662h-256l-14 80q-133 -113 -297 -113t-257 86q-91 86 -91 228q0 346 553 346l82 -2
v22z" />
    <glyph glyph-name="Abreve" unicode="&#x102;" horiz-adv-x="1411" 
d="M700 1571q-160 0 -250 94t-98 240h176q4 -61 50 -105t122 -45q78 0 121 45t49 105h179q-5 -145 -97 -239t-252 -95zM629 958l-135 -405h407l-133 405q-49 147 -70 269q-20 -122 -69 -269zM16 0l535 1483h309l535 -1483h-310l-106 319h-563l-105 -319h-295z" />
    <glyph glyph-name="abreve" unicode="&#x103;" horiz-adv-x="1142" 
d="M565 1194q-160 0 -251 94t-97 240h176q4 -62 49 -106t123 -44t121 45t49 105h178q-6 -146 -97 -240t-251 -94zM694 444q-326 0 -326 -126q2 -135 168 -136q92 0 181 60v202h-23zM717 647q0 103 -50 147t-169 44q-188 0 -336 -66v223q154 86 380 86t341 -99t114 -320v-662
h-256l-14 80q-133 -113 -297 -113t-257 86q-91 86 -91 228q0 346 553 346l82 -2v22z" />
    <glyph glyph-name="Aogonek" unicode="&#x104;" horiz-adv-x="1411" 
d="M629 958l-135 -405h407l-133 405q-49 147 -70 269q-20 -122 -69 -269zM1188 -438q-127 0 -197 52t-69 146q0 123 163 240l-106 319h-563l-105 -319h-295l535 1483h309l535 -1483h-156q-111 -115 -111 -201t105 -86q25 0 65 8v-147q-49 -12 -110 -12z" />
    <glyph glyph-name="aogonek" unicode="&#x105;" horiz-adv-x="1142" 
d="M694 444q-326 0 -326 -126q2 -135 168 -136q92 0 181 60v202h-23zM717 647q0 103 -50 147t-169 44q-188 0 -336 -66v223q154 86 380 86t341 -99t114 -320v-662h-102q-111 -115 -111 -201t105 -86q25 0 65 8v-147q-49 -12 -110 -12q-127 0 -197 52t-69 146q0 123 163 240
l-14 80q-133 -113 -297 -113t-257 86q-91 86 -91 228q0 346 553 346l82 -2v22z" />
    <glyph glyph-name="Cacute" unicode="&#x106;" horiz-adv-x="1271" 
d="M604 1581l193 324h323l-303 -324h-213zM774 1266q-366 0 -366 -537q0 -266 91 -390t285 -124q231 0 414 76v-240q-191 -84 -459 -84q-315 0 -474 205q-159 204 -159 566t166 570t486 208q260 0 424 -91v-239q-164 80 -408 80z" />
    <glyph glyph-name="cacute" unicode="&#x107;" horiz-adv-x="956" 
d="M416 1204l192 324h324l-303 -324h-213zM547 -31q-219 -1 -341 147t-122 412t124 408t347 145q223 0 328 -55v-229q-113 41 -251 41t-199 -84q-62 -84 -62 -224t63 -230q63 -89 184 -89q160 0 273 41v-223q-125 -60 -344 -60z" />
    <glyph glyph-name="Ccircumflex" unicode="&#x108;" horiz-adv-x="1271" 
d="M401 1581l217 324h256l218 -324h-205l-142 168l-139 -168h-205zM774 1266q-366 0 -366 -537q0 -266 91 -390t285 -124q231 0 414 76v-240q-191 -84 -459 -84q-315 0 -474 205q-159 204 -159 566t166 570t486 208q260 0 424 -91v-239q-164 80 -408 80z" />
    <glyph glyph-name="ccircumflex" unicode="&#x109;" horiz-adv-x="956" 
d="M213 1204l217 324h256l217 -324h-205l-141 168l-139 -168h-205zM547 -31q-219 -1 -341 147t-122 412t124 408t347 145q223 0 328 -55v-229q-113 41 -251 41t-199 -84q-62 -84 -62 -224t63 -230q63 -89 184 -89q160 0 273 41v-223q-125 -60 -344 -60z" />
    <glyph glyph-name="Cdotaccent" unicode="&#x10a;" horiz-adv-x="1271" 
d="M602 1618v266h285v-266h-285zM774 1266q-366 0 -366 -537q0 -266 91 -390t285 -124q231 0 414 76v-240q-191 -84 -459 -84q-315 0 -474 205q-159 204 -159 566t166 570t486 208q260 0 424 -91v-239q-164 80 -408 80z" />
    <glyph glyph-name="cdotaccent" unicode="&#x10b;" horiz-adv-x="956" 
d="M414 1241v266h284v-266h-284zM547 -31q-219 -1 -341 147t-122 412t124 408t347 145q223 0 328 -55v-229q-113 41 -251 41t-199 -84q-62 -84 -62 -224t63 -230q63 -89 184 -89q160 0 273 41v-223q-125 -60 -344 -60z" />
    <glyph glyph-name="Ccaron" unicode="&#x10c;" horiz-adv-x="1271" 
d="M872 1581h-256l-217 324h205l139 -170l142 170h205zM774 1266q-366 0 -366 -537q0 -266 91 -390t285 -124q231 0 414 76v-240q-191 -84 -459 -84q-315 0 -474 205q-159 204 -159 566t166 570t486 208q260 0 424 -91v-239q-164 80 -408 80z" />
    <glyph glyph-name="ccaron" unicode="&#x10d;" horiz-adv-x="956" 
d="M684 1204h-256l-217 324h205l139 -170l141 170h205zM547 -31q-219 -1 -341 147t-122 412t124 408t347 145q223 0 328 -55v-229q-113 41 -251 41t-199 -84q-62 -84 -62 -224t63 -230q63 -89 184 -89q160 0 273 41v-223q-125 -60 -344 -60z" />
    <glyph glyph-name="Dcaron" unicode="&#x10e;" horiz-adv-x="1503" 
d="M852 1581h-256l-217 324h205l139 -170l141 170h205zM698 1245h-225v-1007h225q391 0 391 504t-391 503zM184 0v1483h525q680 0 680 -742q0 -329 -157 -535t-523 -206h-525z" />
    <glyph glyph-name="dcaron" unicode="&#x10f;" horiz-adv-x="1273" 
d="M1403 1552q53 0 87 -30t34 -76q0 -47 -21 -93q-21 -47 -37 -75q-16 -27 -22 -38t-24 -39t-23 -38l-35 -57h-154l76 237l-63 209h182zM620 205q123 0 205 51v537q-86 53 -212 53t-184 -87t-58 -229t63 -234q63 -91 186 -91zM530 -33q-204 0 -325 150q-121 149 -121 411
t126 408t355 147q154 0 260 -75v544h281v-1552h-240l-24 90q-108 -123 -312 -123z" />
    <glyph glyph-name="Dcroat" unicode="&#x110;" horiz-adv-x="1523" 
d="M719 1245h-225v-391h284v-246h-284v-370h225q391 0 391 504t-391 503zM78 608v246h127v629h524q680 0 680 -742q0 -329 -157 -535t-523 -206h-524v608h-127z" />
    <glyph glyph-name="dcroat" unicode="&#x111;" horiz-adv-x="1273" 
d="M620 205q123 0 205 51v537q-86 53 -212 53t-184 -87t-58 -229t63 -234q63 -91 186 -91zM641 1214v222h184v116h281v-116h123v-222h-123v-1214h-240l-24 90q-108 -123 -312 -123t-325 150q-121 149 -121 411t126 408t355 147q154 0 260 -75v206h-184z" />
    <glyph glyph-name="Emacron" unicode="&#x112;" horiz-adv-x="1239" 
d="M342 1628v213h627v-213h-627zM184 0v1483h936v-238h-647v-366h557v-238h-557v-403h655v-238h-944z" />
    <glyph glyph-name="emacron" unicode="&#x113;" horiz-adv-x="1112" 
d="M244 1251v213h626v-213h-626zM559 864q-178 0 -194 -221h389q-17 221 -195 221zM602 -31q-254 1 -387 147t-133 400t115 411t360 156q129 0 225 -45t150 -124q105 -154 102 -371q0 -61 -6 -99h-666q16 -233 273 -233q193 0 340 53v-221q-158 -74 -373 -74z" />
    <glyph glyph-name="Ebreve" unicode="&#x114;" horiz-adv-x="1239" 
d="M655 1571q-160 0 -251 94t-97 240h176q4 -61 49 -105t123 -45q78 0 121 45t49 105h179q-6 -145 -98 -239t-251 -95zM184 0v1483h936v-238h-647v-366h557v-238h-557v-403h655v-238h-944z" />
    <glyph glyph-name="ebreve" unicode="&#x115;" horiz-adv-x="1112" 
d="M557 1194q-160 0 -251 94t-97 240h176q4 -62 49 -106t123 -44t121 45t49 105h178q-6 -146 -97 -240t-251 -94zM559 864q-178 0 -194 -221h389q-17 221 -195 221zM602 -31q-254 1 -387 147t-133 400t115 411t360 156q129 0 225 -45t150 -124q105 -154 102 -371
q0 -61 -6 -99h-666q16 -233 273 -233q193 0 340 53v-221q-158 -74 -373 -74z" />
    <glyph glyph-name="Edotaccent" unicode="&#x116;" horiz-adv-x="1239" 
d="M512 1618v266h285v-266h-285zM184 0v1483h936v-238h-647v-366h557v-238h-557v-403h655v-238h-944z" />
    <glyph glyph-name="edotaccent" unicode="&#x117;" horiz-adv-x="1112" 
d="M414 1241v266h284v-266h-284zM559 864q-178 0 -194 -221h389q-17 221 -195 221zM602 -31q-254 1 -387 147t-133 400t115 411t360 156q129 0 225 -45t150 -124q105 -154 102 -371q0 -61 -6 -99h-666q16 -233 273 -233q193 0 340 53v-221q-158 -74 -373 -74z" />
    <glyph glyph-name="Eogonek" unicode="&#x118;" horiz-adv-x="1239" 
d="M184 0v1483h936v-238h-647v-366h557v-238h-557v-403h655v-238h-69q-111 -115 -111 -201t105 -86q25 0 65 8v-147q-49 -12 -110 -12q-127 0 -197 52t-70 146q0 123 164 240h-721z" />
    <glyph glyph-name="eogonek" unicode="&#x119;" horiz-adv-x="1112" 
d="M559 864q-178 0 -194 -221h389q-17 221 -195 221zM846 -438q-127 0 -197 50t-69 140q0 119 135 223q-104 -6 -113 -6q-254 1 -387 147t-133 400t115 411t360 156q129 0 225 -45t150 -124q105 -154 102 -371q0 -61 -6 -99h-666q16 -233 273 -233q193 0 340 53v-221
q-82 -41 -135 -116t-54 -128q0 -86 105 -86q25 0 65 8v-147q-49 -12 -110 -12z" />
    <glyph glyph-name="Ecaron" unicode="&#x11a;" horiz-adv-x="1239" 
d="M782 1581h-256l-217 324h205l139 -170l142 170h204zM184 0v1483h936v-238h-647v-366h557v-238h-557v-403h655v-238h-944z" />
    <glyph glyph-name="ecaron" unicode="&#x11b;" horiz-adv-x="1112" 
d="M684 1204h-256l-217 324h205l139 -170l141 170h205zM559 864q-178 0 -194 -221h389q-17 221 -195 221zM602 -31q-254 1 -387 147t-133 400t115 411t360 156q129 0 225 -45t150 -124q105 -154 102 -371q0 -61 -6 -99h-666q16 -233 273 -233q193 0 340 53v-221
q-158 -74 -373 -74z" />
    <glyph glyph-name="Gcircumflex" unicode="&#x11c;" horiz-adv-x="1490" 
d="M451 1581l217 324h256l217 -324h-205l-141 168l-140 -168h-204zM825 1266q-417 0 -417 -536q0 -274 106 -394q106 -121 307 -121q141 0 238 21v479h289v-645q-240 -103 -547 -103q-694 0 -695 781q0 360 182 564t521 204q272 0 448 -95v-241q-176 86 -432 86z" />
    <glyph glyph-name="gcircumflex" unicode="&#x11d;" horiz-adv-x="1277" 
d="M266 1204l217 324h256l217 -324h-204l-142 168l-139 -168h-205zM375 530q-1 -142 63 -234q64 -91 187 -91t204 51v537q-86 53 -212 53t-184 -87t-58 -229zM1110 29q0 -261 -142 -391t-397 -130q-256 0 -401 78v230q156 -66 336 -66t252 60t71 208v54q-109 -104 -304 -104
t-316 149t-121 411t126 408t355 147q170 0 279 -98l18 66h244v-1022z" />
    <glyph glyph-name="Gbreve" unicode="&#x11e;" horiz-adv-x="1490" 
d="M795 1571q-160 0 -251 94t-98 240h177q4 -61 49 -105t123 -45q79 0 121 45t49 105h178q-6 -145 -97 -239t-251 -95zM825 1266q-417 0 -417 -536q0 -274 106 -394q106 -121 307 -121q141 0 238 21v479h289v-645q-240 -103 -547 -103q-694 0 -695 781q0 360 182 564
t521 204q272 0 448 -95v-241q-176 86 -432 86z" />
    <glyph glyph-name="gbreve" unicode="&#x11f;" horiz-adv-x="1277" 
d="M610 1194q-160 0 -251 94t-97 240h176q4 -62 49 -106t123 -44t121 45t49 105h178q-6 -146 -97 -240t-251 -94zM375 530q-1 -142 63 -234q64 -91 187 -91t204 51v537q-86 53 -212 53t-184 -87t-58 -229zM1110 29q0 -261 -142 -391t-397 -130q-256 0 -401 78v230
q156 -66 336 -66t252 60t71 208v54q-109 -104 -304 -104t-316 149t-121 411t126 408t355 147q170 0 279 -98l18 66h244v-1022z" />
    <glyph glyph-name="Gdotaccent" unicode="&#x120;" horiz-adv-x="1490" 
d="M651 1618v266h285v-266h-285zM825 1266q-417 0 -417 -536q0 -274 106 -394q106 -121 307 -121q141 0 238 21v479h289v-645q-240 -103 -547 -103q-694 0 -695 781q0 360 182 564t521 204q272 0 448 -95v-241q-176 86 -432 86z" />
    <glyph glyph-name="gdotaccent" unicode="&#x121;" horiz-adv-x="1277" 
d="M467 1241v266h285v-266h-285zM375 530q-1 -142 63 -234q64 -91 187 -91t204 51v537q-86 53 -212 53t-184 -87t-58 -229zM1110 29q0 -261 -142 -391t-397 -130q-256 0 -401 78v230q156 -66 336 -66t252 60t71 208v54q-109 -104 -304 -104t-316 149t-121 411t126 408
t355 147q170 0 279 -98l18 66h244v-1022z" />
    <glyph glyph-name="Gcommaaccent" unicode="&#x122;" horiz-adv-x="1490" 
d="M846 -86q55 0 87 -33t32 -86q0 -139 -226 -248l-82 -39l-92 97l140 149l-41 160h182zM825 1266q-417 0 -417 -536q0 -274 106 -394q106 -121 307 -121q141 0 238 21v479h289v-645q-240 -103 -547 -103q-694 0 -695 781q0 360 182 564t521 204q272 0 448 -95v-241
q-176 86 -432 86z" />
    <glyph glyph-name="gcommaaccent" unicode="&#x123;" horiz-adv-x="1277" 
d="M565 1204q-55 0 -87 33t-32 97t65 130t161 113l82 39l92 -96l-139 -154l41 -162h-183zM375 530q-1 -142 63 -234q64 -91 187 -91t204 51v537q-86 53 -212 53t-184 -87t-58 -229zM1110 29q0 -261 -142 -391t-397 -130q-256 0 -401 78v230q156 -66 336 -66t252 60t71 208
v54q-109 -104 -304 -104t-316 149t-121 411t126 408t355 147q170 0 279 -98l18 66h244v-1022z" />
    <glyph glyph-name="Hcircumflex" unicode="&#x124;" horiz-adv-x="1531" 
d="M422 1581l217 324h256l217 -324h-205l-141 168l-139 -168h-205zM1059 0v643h-586v-643h-289v1483h289v-602h586v602h289v-1483h-289z" />
    <glyph glyph-name="hcircumflex" unicode="&#x125;" horiz-adv-x="1284" 
d="M-37 1614l217 323h256l217 -323h-204l-142 168l-139 -168h-205zM168 0v1552h281v-573q123 104 315 104t284 -104q93 -104 93 -291v-688h-281v651q0 188 -192 189q-127 0 -219 -58v-782h-281z" />
    <glyph glyph-name="Hbar" unicode="&#x126;" horiz-adv-x="1564" 
d="M489 881h586v194h-586v-194zM78 1075v221h123v187h288v-187h586v187h289v-187h123v-221h-123v-1075h-289v643h-586v-643h-288v1075h-123z" />
    <glyph glyph-name="hbar" unicode="&#x127;" horiz-adv-x="1284" 
d="M45 1214v222h123v116h281v-116h184v-222h-184v-235q123 104 315 104t284 -104q93 -104 93 -291v-688h-281v651q0 188 -192 189q-127 0 -219 -58v-782h-281v1214h-123z" />
    <glyph glyph-name="Itilde" unicode="&#x128;" horiz-adv-x="874" 
d="M49 1593q0 137 68 217t176 80q67 0 153 -48t119 -48q90 0 90 90h168q1 -137 -69 -217t-179 -80q-67 0 -151 48t-117 48q-86 0 -90 -90h-168zM123 1253v230h629v-230h-170v-1024h170v-229h-629v229h170v1024h-170z" />
    <glyph glyph-name="itilde" unicode="&#x129;" horiz-adv-x="616" 
d="M-80 1217q0 137 68 217t176 79q68 0 154 -48t118 -48q90 0 90 90h168q0 -137 -70 -217t-178 -80q-68 0 -152 48t-116 49q-86 0 -90 -90h-168zM168 0v1051h281v-1051h-281z" />
    <glyph glyph-name="Imacron" unicode="&#x12a;" horiz-adv-x="874" 
d="M123 1628v213h627v-213h-627zM123 1253v230h629v-230h-170v-1024h170v-229h-629v229h170v1024h-170z" />
    <glyph glyph-name="imacron" unicode="&#x12b;" horiz-adv-x="616" 
d="M-6 1251v213h627v-213h-627zM168 0v1051h281v-1051h-281z" />
    <glyph glyph-name="Ibreve" unicode="&#x12c;" horiz-adv-x="874" 
d="M436 1571q-160 0 -251 94t-97 240h176q4 -61 49 -105t123 -45q78 0 121 45t49 105h178q-6 -145 -97 -239t-251 -95zM123 1253v230h629v-230h-170v-1024h170v-229h-629v229h170v1024h-170z" />
    <glyph glyph-name="ibreve" unicode="&#x12d;" horiz-adv-x="616" 
d="M307 1194q-160 0 -251 94t-97 240h176q4 -62 49 -106t123 -44t121 45t49 105h178q-6 -146 -97 -240t-251 -94zM168 0v1051h281v-1051h-281z" />
    <glyph glyph-name="Iogonek" unicode="&#x12e;" horiz-adv-x="874" 
d="M477 -438q-127 0 -197 52t-69 146q0 123 164 240h-252v229h170v1024h-170v230h629v-230h-170v-1024h170v-229h-224q-110 -115 -110 -201t104 -86q25 0 66 8v-147q-50 -12 -111 -12z" />
    <glyph glyph-name="iogonek" unicode="&#x12f;" horiz-adv-x="616" 
d="M168 1208v275h281v-275h-281zM168 0v1051h281v-1051h-70q-111 -115 -111 -201t105 -86q25 0 65 8v-147q-49 -12 -110 -12q-127 0 -197 52t-70 146q0 123 164 240h-57z" />
    <glyph glyph-name="Idotaccent" unicode="&#x130;" horiz-adv-x="874" 
d="M293 1618v266h285v-266h-285zM123 1253v230h629v-230h-170v-1024h170v-229h-629v229h170v1024h-170z" />
    <glyph glyph-name="dotlessi" unicode="&#x131;" horiz-adv-x="616" 
d="M168 0v1051h281v-1051h-281z" />
    <glyph glyph-name="IJ" unicode="&#x132;" horiz-adv-x="1632" 
d="M948 1253v230h500v-1286q0 -256 -129 -386t-365 -130q-80 0 -116 14v237q39 -8 102 -8q117 0 168 77t51 228v1024h-211zM123 1253v230h629v-230h-170v-1024h170v-229h-629v229h170v1024h-170z" />
    <glyph glyph-name="ij" unicode="&#x133;" horiz-adv-x="1232" 
d="M784 1208v275h281v-275h-281zM594 -479q-70 0 -115 18v225q41 -8 86 -8q219 0 219 285v1010h281v-1008q0 -264 -125 -393t-346 -129zM168 1208v275h281v-275h-281zM168 0v1051h281v-1051h-281z" />
    <glyph glyph-name="Jcircumflex" unicode="&#x134;" horiz-adv-x="757" 
d="M84 1581l217 324h256l217 -324h-205l-141 168l-139 -168h-205zM74 1253v230h499v-1286q0 -256 -129 -386t-364 -130q-80 0 -117 14v237q39 -8 103 -8q118 0 168 77t51 228v1024h-211z" />
    <glyph glyph-name="jcircumflex" unicode="&#x135;" horiz-adv-x="616" 
d="M-37 1204l217 324h256l217 -324h-204l-142 168l-139 -168h-205zM-23 -479q-70 0 -114 18v225q41 -8 86 -8q219 0 219 285v1010h281v-1008q1 -264 -125 -393t-347 -129z" />
    <glyph glyph-name="Kcommaaccent" unicode="&#x136;" horiz-adv-x="1378" 
d="M776 -86q55 0 87 -33t32 -86q0 -139 -225 -248l-82 -39l-92 97l139 149l-41 160h182zM184 0v1483h289v-652l502 652h354l-469 -594q-70 -90 -129 -135q63 -45 139 -140l496 -614h-354l-539 674v-674h-289z" />
    <glyph glyph-name="kcommaaccent" unicode="&#x137;" horiz-adv-x="1181" 
d="M672 -86q55 0 87 -33t32 -86q0 -139 -226 -248l-82 -39l-92 97l139 149l-41 160h183zM168 0v1552h281v-925l366 424h334l-338 -392q-47 -53 -115 -100q53 -37 121 -117l354 -442h-348l-374 475v-475h-281z" />
    <glyph glyph-name="Lacute" unicode="&#x139;" horiz-adv-x="1087" 
d="M186 1581l193 324h323l-303 -324h-213zM184 0v1483h287v-1245h580v-238h-867z" />
    <glyph glyph-name="lacute" unicode="&#x13a;" horiz-adv-x="679" 
d="M172 1614l193 323h323l-303 -323h-213zM426 -16q-260 0 -260 274v1294h280v-1257q0 -39 18 -55q35 -32 150 -9v-223q-69 -24 -188 -24z" />
    <glyph glyph-name="Lcommaaccent" unicode="&#x13b;" horiz-adv-x="1087" 
d="M668 -86q55 0 87 -33t31 -86q0 -139 -225 -248l-82 -39l-92 97l139 149l-41 160h183zM184 0v1483h287v-1245h580v-238h-867z" />
    <glyph glyph-name="lcommaaccent" unicode="&#x13c;" horiz-adv-x="679" 
d="M440 -86q55 0 87 -33t32 -86q0 -139 -225 -248l-82 -39l-92 97l139 149l-41 160h182zM426 -16q-260 0 -260 274v1294h280v-1257q0 -39 18 -55q35 -32 150 -9v-223q-69 -24 -188 -24z" />
    <glyph glyph-name="Lcaron" unicode="&#x13d;" horiz-adv-x="1087" 
d="M788 1552q53 0 88 -29q34 -30 34 -94t-81 -189q-24 -45 -47 -77l-34 -57h-154l76 237l-64 209h182zM184 0v1483h287v-1245h580v-238h-867z" />
    <glyph glyph-name="lcaron" unicode="&#x13e;" horiz-adv-x="679" 
d="M743 1552q53 0 87 -30t34 -93q0 -64 -80 -189q-24 -45 -47 -77l-35 -57h-153l76 237l-64 209h182zM426 -16q-260 0 -260 274v1294h280v-1257q0 -39 18 -55q35 -32 150 -9v-223q-69 -24 -188 -24z" />
    <glyph glyph-name="Ldot" unicode="&#x13f;" horiz-adv-x="1087" 
d="M651 678v278h295v-278h-295zM184 0v1483h287v-1245h580v-238h-867z" />
    <glyph glyph-name="ldot" unicode="&#x140;" horiz-adv-x="851" 
d="M590 633v266h282v-266h-282zM426 -16q-260 0 -260 274v1294h280v-1257q0 -39 18 -55q35 -32 150 -9v-223q-69 -24 -188 -24z" />
    <glyph glyph-name="Lslash" unicode="&#x141;" horiz-adv-x="1107" 
d="M205 1483h287v-547l278 117v-242l-278 -117v-456h579v-238h-866v575l-127 -51v242l127 51v666z" />
    <glyph glyph-name="lslash" unicode="&#x142;" horiz-adv-x="700" 
d="M186 1552h281v-634l190 77v-235l-190 -78v-387q0 -39 17 -55q34 -32 151 -9v-223q-70 -25 -189 -24q-260 0 -260 274v307l-141 -57v235l141 58v751z" />
    <glyph glyph-name="Nacute" unicode="&#x143;" horiz-adv-x="1570" 
d="M643 1581l193 324h323l-303 -324h-213zM184 0v1483h293l537 -856q51 -80 112 -226q-16 137 -16 226v856h276v-1483h-292l-537 856q-51 80 -115 225q18 -158 19 -225v-856h-277z" />
    <glyph glyph-name="nacute" unicode="&#x144;" horiz-adv-x="1284" 
d="M512 1204l193 324h323l-303 -324h-213zM168 0v1051h244l22 -86q131 119 326 119t288 -105q93 -104 93 -291v-688h-281v651q0 188 -192 189q-127 0 -219 -58v-782h-281z" />
    <glyph glyph-name="Ncommaaccent" unicode="&#x145;" horiz-adv-x="1570" 
d="M836 -86q55 0 87 -33t31 -86q0 -139 -225 -248l-82 -39l-92 97l139 149l-41 160h183zM184 0v1483h293l537 -856q51 -80 112 -226q-16 137 -16 226v856h276v-1483h-292l-537 856q-51 80 -115 225q18 -158 19 -225v-856h-277z" />
    <glyph glyph-name="ncommaaccent" unicode="&#x146;" horiz-adv-x="1284" 
d="M705 -86q55 0 87 -33t31 -86q0 -139 -225 -248l-82 -39l-92 97l139 149l-41 160h183zM168 0v1051h244l22 -86q131 119 326 119t288 -105q93 -104 93 -291v-688h-281v651q0 188 -192 189q-127 0 -219 -58v-782h-281z" />
    <glyph glyph-name="Ncaron" unicode="&#x147;" horiz-adv-x="1570" 
d="M911 1581h-256l-217 324h205l139 -170l142 170h204zM184 0v1483h293l537 -856q51 -80 112 -226q-16 137 -16 226v856h276v-1483h-292l-537 856q-51 80 -115 225q18 -158 19 -225v-856h-277z" />
    <glyph glyph-name="ncaron" unicode="&#x148;" horiz-adv-x="1284" 
d="M780 1204h-256l-217 324h205l139 -170l142 170h204zM168 0v1051h244l22 -86q131 119 326 119t288 -105q93 -104 93 -291v-688h-281v651q0 188 -192 189q-127 0 -219 -58v-782h-281z" />
    <glyph glyph-name="napostrophe" unicode="&#x149;" horiz-adv-x="1722" 
d="M606 0v1051h244l22 -86q131 119 326 119t288 -105q93 -104 93 -291v-688h-281v651q0 188 -192 189q-127 0 -219 -58v-782h-281zM303 1552q90 0 132 -32t42 -111q0 -166 -182 -362l-49 -54h-160l121 287l-62 272h158z" />
    <glyph glyph-name="Omacron" unicode="&#x14c;" horiz-adv-x="1527" 
d="M451 1628v213h626v-213h-626zM764 211q350 0 350 530t-350 531q-350 0 -350 -530t350 -531zM764 -33q-374 0 -519 230q-132 206 -130 544q0 774 649 775q372 0 519 -230q130 -203 130 -545q0 -774 -649 -774z" />
    <glyph glyph-name="omacron" unicode="&#x14d;" horiz-adv-x="1216" 
d="M295 1251v213h627v-213h-627zM608 195q236 1 236 331t-236 330t-236 -330t236 -331zM1133 527q-1 -257 -131 -409t-397 -151q-267 0 -394 150q-127 151 -127 407t130 408t397 152t395 -150q127 -150 127 -407z" />
    <glyph glyph-name="Obreve" unicode="&#x14e;" horiz-adv-x="1527" 
d="M764 1571q-160 0 -251 94t-97 240h176q4 -61 49 -105t123 -45q78 0 121 45t49 105h178q-6 -145 -97 -239t-251 -95zM764 211q350 0 350 530t-350 531q-350 0 -350 -530t350 -531zM764 -33q-374 0 -519 230q-132 206 -130 544q0 774 649 775q372 0 519 -230
q130 -203 130 -545q0 -774 -649 -774z" />
    <glyph glyph-name="obreve" unicode="&#x14f;" horiz-adv-x="1216" 
d="M608 1194q-160 0 -251 94t-97 240h176q4 -62 49 -106t123 -44t121 45t49 105h178q-6 -146 -97 -240t-251 -94zM608 195q236 1 236 331t-236 330t-236 -330t236 -331zM1133 527q-1 -257 -131 -409t-397 -151q-267 0 -394 150q-127 151 -127 407t130 408t397 152t395 -150
q127 -150 127 -407z" />
    <glyph glyph-name="Ohungarumlaut" unicode="&#x150;" horiz-adv-x="1527" 
d="M469 1581l131 324h295l-221 -324h-205zM856 1581l131 324h295l-221 -324h-205zM764 211q350 0 350 530t-350 531q-350 0 -350 -530t350 -531zM764 -33q-374 0 -519 230q-132 206 -130 544q0 774 649 775q372 0 519 -230q130 -203 130 -545q0 -774 -649 -774z" />
    <glyph glyph-name="ohungarumlaut" unicode="&#x151;" horiz-adv-x="1216" 
d="M313 1204l131 324h295l-221 -324h-205zM700 1204l131 324h295l-221 -324h-205zM608 195q236 1 236 331t-236 330t-236 -330t236 -331zM1133 527q-1 -257 -131 -409t-397 -151q-267 0 -394 150q-127 151 -127 407t130 408t397 152t395 -150q127 -150 127 -407z" />
    <glyph glyph-name="OE" unicode="&#x152;" horiz-adv-x="2103" 
d="M823 221q141 0 226 8v1022q-127 10 -236 11q-188 0 -297 -138t-108 -376q-1 -527 415 -527zM762 -10q-315 0 -486 197q-170 197 -170 551t178 554t496 201q147 0 285 -10h920v-238h-648v-366h557v-238h-557v-403h656v-238h-928q-153 -10 -303 -10z" />
    <glyph glyph-name="oe" unicode="&#x153;" horiz-adv-x="1873" 
d="M1319 864q-176 0 -193 -221h390q-21 221 -197 221zM608 195q236 1 236 331t-236 330t-236 -330t236 -331zM608 -33q-524 0 -524 558t524 558q264 0 379 -151q102 152 332 151q129 0 225 -45t150 -124q105 -154 102 -371q0 -61 -6 -99h-666q16 -236 273 -235q193 0 340 53
v-221q-158 -74 -373 -74q-252 0 -373 160q-117 -160 -383 -160z" />
    <glyph glyph-name="Racute" unicode="&#x154;" horiz-adv-x="1372" 
d="M547 1581l192 324h324l-303 -324h-213zM662 1260h-191v-455h191q120 0 188 59q68 60 68 172t-68 168t-188 56zM184 0v1483h504q524 0 524 -441q0 -160 -84 -265t-210 -140q63 -31 106 -100l328 -537h-338l-291 477q-43 70 -72 89t-98 20h-82v-586h-287z" />
    <glyph glyph-name="racute" unicode="&#x155;" horiz-adv-x="833" 
d="M342 1204l193 324h323l-303 -324h-213zM168 0v1051h264l10 -131q106 162 273 161q51 0 86 -12v-268q-68 14 -135 14q-129 0 -217 -84v-731h-281z" />
    <glyph glyph-name="Rcommaaccent" unicode="&#x156;" horiz-adv-x="1372" 
d="M760 -86q55 0 87 -33t32 -86q0 -139 -226 -248l-82 -39l-92 97l139 149l-40 160h182zM662 1260h-191v-455h191q120 0 188 59q68 60 68 172t-68 168t-188 56zM184 0v1483h504q524 0 524 -441q0 -160 -84 -265t-210 -140q63 -31 106 -100l328 -537h-338l-291 477
q-43 70 -72 89t-98 20h-82v-586h-287z" />
    <glyph glyph-name="rcommaaccent" unicode="&#x157;" horiz-adv-x="833" 
d="M358 -86q55 0 87 -33t32 -86q0 -139 -225 -248l-82 -39l-92 97l139 149l-41 160h182zM168 0v1051h264l10 -131q106 162 273 161q51 0 86 -12v-268q-68 14 -135 14q-129 0 -217 -84v-731h-281z" />
    <glyph glyph-name="Rcaron" unicode="&#x158;" horiz-adv-x="1372" 
d="M815 1581h-256l-217 324h205l139 -170l141 170h205zM662 1260h-191v-455h191q120 0 188 59q68 60 68 172t-68 168t-188 56zM184 0v1483h504q524 0 524 -441q0 -160 -84 -265t-210 -140q63 -31 106 -100l328 -537h-338l-291 477q-43 70 -72 89t-98 20h-82v-586h-287z" />
    <glyph glyph-name="rcaron" unicode="&#x159;" horiz-adv-x="833" 
d="M610 1204h-256l-217 324h205l139 -170l142 170h204zM168 0v1051h264l10 -131q106 162 273 161q51 0 86 -12v-268q-68 14 -135 14q-129 0 -217 -84v-731h-281z" />
    <glyph glyph-name="Sacute" unicode="&#x15a;" horiz-adv-x="1269" 
d="M494 1581l192 324h324l-303 -324h-213zM555 -33q-311 0 -453 86v238q164 -80 433 -80q324 0 323 203q0 84 -65 131q-67 47 -263 92t-308 149t-112 302t133 313q132 115 426 115t427 -86v-238q-166 80 -422 80t-256 -195q0 -84 66 -128t266 -88t309 -148t109 -302
t-152 -321q-150 -123 -461 -123z" />
    <glyph glyph-name="sacute" unicode="&#x15b;" horiz-adv-x="995" 
d="M387 1204l193 324h323l-303 -324h-213zM457 -31q-105 -1 -209 19t-154 49v225q52 -25 156 -43t188 -18q199 0 199 96q0 51 -43 75q-42 24 -190 58t-224 112q-76 76 -76 222t109 232t334 85q94 0 190 -19t140 -50v-226q-55 27 -153 45t-177 19q-154 0 -154 -92
q0 -49 41 -72q42 -22 190 -58t225 -112t77 -219t-123 -235t-346 -93z" />
    <glyph glyph-name="Scircumflex" unicode="&#x15c;" horiz-adv-x="1269" 
d="M291 1581l217 324h256l217 -324h-205l-141 168l-139 -168h-205zM555 -33q-311 0 -453 86v238q164 -80 433 -80q324 0 323 203q0 84 -65 131q-67 47 -263 92t-308 149t-112 302t133 313q132 115 426 115t427 -86v-238q-166 80 -422 80t-256 -195q0 -84 66 -128t266 -88
t309 -148t109 -302t-152 -321q-150 -123 -461 -123z" />
    <glyph glyph-name="scircumflex" unicode="&#x15d;" horiz-adv-x="995" 
d="M184 1204l217 324h256l217 -324h-204l-142 168l-139 -168h-205zM457 -31q-105 -1 -209 19t-154 49v225q52 -25 156 -43t188 -18q199 0 199 96q0 51 -43 75q-42 24 -190 58t-224 112q-76 76 -76 222t109 232t334 85q94 0 190 -19t140 -50v-226q-55 27 -153 45t-177 19
q-154 0 -154 -92q0 -49 41 -72q42 -22 190 -58t225 -112t77 -219t-123 -235t-346 -93z" />
    <glyph glyph-name="Scedilla" unicode="&#x15e;" horiz-adv-x="1269" 
d="M496 -303q98 0 98 63q0 35 -44 59t-104 27l72 121q-283 6 -416 86v238q164 -80 433 -80q324 0 323 203q0 84 -65 131q-67 47 -263 92t-308 149t-112 302t133 313q132 115 426 115t427 -86v-238q-166 80 -422 80t-256 -195q0 -84 66 -128t266 -88t309 -148
q109 -103 109 -291t-125 -308q-124 -120 -373 -143l-33 -69q63 -6 108 -50t46 -104q0 -90 -75 -138t-194 -48q-59 0 -116 14v131q45 -10 90 -10z" />
    <glyph glyph-name="scedilla" unicode="&#x15f;" horiz-adv-x="995" 
d="M395 -303q98 0 99 63q0 35 -44 59t-104 27l72 123q-229 10 -324 68v225q52 -25 156 -43t188 -18q199 0 199 96q0 51 -43 75q-42 24 -190 58t-224 112q-76 76 -76 222t109 232t334 85q94 0 190 -19t140 -50v-226q-55 27 -153 45t-177 19q-154 0 -154 -92q0 -49 41 -72
q42 -22 190 -58t225 -112t77 -209t-92 -220t-263 -110l-34 -75q63 -6 108 -50t45 -104q0 -90 -75 -138t-193 -48q-60 0 -117 14v131q45 -10 90 -10z" />
    <glyph glyph-name="Scaron" unicode="&#x160;" horiz-adv-x="1269" 
d="M762 1581h-256l-217 324h205l139 -170l141 170h205zM555 -33q-311 0 -453 86v238q164 -80 433 -80q324 0 323 203q0 84 -65 131q-67 47 -263 92t-308 149t-112 302t133 313q132 115 426 115t427 -86v-238q-166 80 -422 80t-256 -195q0 -84 66 -128t266 -88t309 -148
t109 -302t-152 -321q-150 -123 -461 -123z" />
    <glyph glyph-name="scaron" unicode="&#x161;" horiz-adv-x="995" 
d="M655 1204h-256l-217 324h205l139 -170l142 170h204zM457 -31q-105 -1 -209 19t-154 49v225q52 -25 156 -43t188 -18q199 0 199 96q0 51 -43 75q-42 24 -190 58t-224 112q-76 76 -76 222t109 232t334 85q94 0 190 -19t140 -50v-226q-55 27 -153 45t-177 19
q-154 0 -154 -92q0 -49 41 -72q42 -22 190 -58t225 -112t77 -219t-123 -235t-346 -93z" />
    <glyph glyph-name="Tcommaaccent" unicode="&#x162;" horiz-adv-x="1136" 
d="M618 -86q56 0 88 -33t31 -86q0 -139 -225 -248l-82 -39l-92 97l139 149l-41 160h182zM41 1245v238h1055v-238h-383v-1245h-289v1245h-383z" />
    <glyph glyph-name="tcommaaccent" unicode="&#x163;" horiz-adv-x="878" 
d="M592 -86q55 0 87 -33t32 -86q0 -139 -226 -248l-82 -39l-92 97l140 149l-41 160h182zM45 817v234h164v325h280v-325h345v-234h-345v-450q0 -84 32 -119t126 -35t182 18v-219q-117 -43 -254 -43q-207 0 -287 94t-79 285v469h-164z" />
    <glyph glyph-name="Tcaron" unicode="&#x164;" horiz-adv-x="1136" 
d="M694 1581h-256l-217 324h205l139 -170l142 170h204zM41 1245v238h1055v-238h-383v-1245h-289v1245h-383z" />
    <glyph glyph-name="tcaron" unicode="&#x165;" horiz-adv-x="878" 
d="M809 1626q53 0 87 -30t34 -78t-22 -95t-37 -73q-15 -25 -21 -36t-24 -39t-23 -38l-35 -57h-154l76 237l-63 209h182zM45 817v234h164v325h280v-325h345v-234h-345v-450q0 -84 32 -119t126 -35t182 18v-219q-117 -43 -254 -43q-207 0 -287 94t-79 285v469h-164z" />
    <glyph glyph-name="Tbar" unicode="&#x166;" horiz-adv-x="1136" 
d="M41 1245v238h1055v-238h-383v-448h260v-222h-260v-575h-289v575h-260v222h260v448h-383z" />
    <glyph glyph-name="tbar" unicode="&#x167;" horiz-adv-x="878" 
d="M45 817v234h164v325h280v-325h345v-234h-345v-188h226v-203h-226v-59q0 -84 32 -119t126 -35t182 18v-219q-117 -43 -254 -43q-207 0 -287 94t-79 285v78h-123v203h123v188h-164z" />
    <glyph glyph-name="Utilde" unicode="&#x168;" horiz-adv-x="1470" 
d="M348 1593q0 137 68 217t176 80q68 0 154 -48t118 -48q90 0 90 90h168q0 -137 -70 -217t-178 -80q-68 0 -152 48t-116 48q-86 0 -90 -90h-168zM735 -33q-174 0 -291 40t-177 118t-84 168t-23 213v977h289v-936q-1 -188 65 -262t222 -74t220 74q66 74 66 262v936h289v-977
q0 -123 -24 -213t-84 -168t-177 -118t-291 -40z" />
    <glyph glyph-name="utilde" unicode="&#x169;" horiz-adv-x="1265" 
d="M233 1217q0 137 68 217t176 79q68 0 154 -48t119 -48q90 0 90 90h168q0 -137 -70 -217t-178 -80q-68 0 -152 48t-116 49q-86 0 -91 -90h-168zM516 -33q-188 1 -280 105t-93 290v689h281v-652q0 -190 192 -190q111 0 201 55v787h281v-1051h-244l-23 84
q-127 -117 -315 -117z" />
    <glyph glyph-name="Umacron" unicode="&#x16a;" horiz-adv-x="1470" 
d="M422 1628v213h627v-213h-627zM735 -33q-174 0 -291 40t-177 118t-84 168t-23 213v977h289v-936q-1 -188 65 -262t222 -74t220 74q66 74 66 262v936h289v-977q0 -123 -24 -213t-84 -168t-177 -118t-291 -40z" />
    <glyph glyph-name="umacron" unicode="&#x16b;" horiz-adv-x="1265" 
d="M307 1251v213h627v-213h-627zM516 -33q-188 1 -280 105t-93 290v689h281v-652q0 -190 192 -190q111 0 201 55v787h281v-1051h-244l-23 84q-127 -117 -315 -117z" />
    <glyph glyph-name="Ubreve" unicode="&#x16c;" horiz-adv-x="1470" 
d="M735 1571q-160 0 -251 94t-97 240h176q4 -61 49 -105t123 -45q78 0 121 45t49 105h178q-6 -145 -97 -239t-251 -95zM735 -33q-174 0 -291 40t-177 118t-84 168t-23 213v977h289v-936q-1 -188 65 -262t222 -74t220 74q66 74 66 262v936h289v-977q0 -123 -24 -213t-84 -168
t-177 -118t-291 -40z" />
    <glyph glyph-name="ubreve" unicode="&#x16d;" horiz-adv-x="1265" 
d="M621 1194q-160 0 -251 94t-98 240h177q4 -62 49 -106t123 -44q79 0 121 45t49 105h178q-6 -146 -97 -240t-251 -94zM516 -33q-188 1 -280 105t-93 290v689h281v-652q0 -190 192 -190q111 0 201 55v787h281v-1051h-244l-23 84q-127 -117 -315 -117z" />
    <glyph glyph-name="Uring" unicode="&#x16e;" horiz-adv-x="1470" 
d="M836 1773q0 41 -29 71t-72 30t-73 -30t-29 -72q0 -42 30 -71q31 -30 73 -30t71 30t29 72zM981 1774q0 -100 -71 -167t-175 -67t-175 67t-71 167t71 166t175 67q104 -1 175 -67t71 -166zM735 -33q-174 0 -291 40t-177 118t-84 168t-23 213v977h289v-936q-1 -188 65 -262
t222 -74t220 74q66 74 66 262v936h289v-977q0 -123 -24 -213t-84 -168t-177 -118t-291 -40z" />
    <glyph glyph-name="uring" unicode="&#x16f;" horiz-adv-x="1265" 
d="M621 1327q43 0 71 30t29 72q0 41 -29 71q-30 30 -72 30t-72 -30t-30 -72t30 -71q30 -30 73 -30zM866 1430q0 -100 -70 -167t-175 -67q-104 0 -176 67q-71 67 -70 167t71 166t174 67q104 -1 176 -67q70 -66 70 -166zM516 -33q-188 1 -280 105t-93 290v689h281v-652
q0 -190 192 -190q111 0 201 55v787h281v-1051h-244l-23 84q-127 -117 -315 -117z" />
    <glyph glyph-name="Uhungarumlaut" unicode="&#x170;" horiz-adv-x="1470" 
d="M440 1581l131 324h295l-221 -324h-205zM827 1581l131 324h295l-221 -324h-205zM735 -33q-174 0 -291 40t-177 118t-84 168t-23 213v977h289v-936q-1 -188 65 -262t222 -74t220 74q66 74 66 262v936h289v-977q0 -123 -24 -213t-84 -168t-177 -118t-291 -40z" />
    <glyph glyph-name="uhungarumlaut" unicode="&#x171;" horiz-adv-x="1265" 
d="M326 1204l131 324h295l-222 -324h-204zM713 1204l131 324h295l-221 -324h-205zM516 -33q-188 1 -280 105t-93 290v689h281v-652q0 -190 192 -190q111 0 201 55v787h281v-1051h-244l-23 84q-127 -117 -315 -117z" />
    <glyph glyph-name="Uogonek" unicode="&#x172;" horiz-adv-x="1470" 
d="M545 -248q0 123 149 215q-324 12 -435 165q-56 77 -78 165t-21 209v977h289v-936q-1 -188 65 -262t222 -74t220 74q66 74 66 262v936h289v-977q0 -213 -80 -344t-291 -176q-92 -20 -140 -76t-48 -111q0 -86 104 -86q25 0 66 8v-147q-49 -12 -111 -12q-127 0 -197 49
q-69 49 -69 141z" />
    <glyph glyph-name="uogonek" unicode="&#x173;" horiz-adv-x="1265" 
d="M956 -438q-126 0 -196 52t-70 146q0 123 164 240l-23 84q-127 -117 -315 -117q-188 1 -280 105t-93 290v689h281v-652q0 -190 192 -190q111 0 201 55v787h281v-1051h-90q-111 -115 -111 -201t104 -86q25 0 66 8v-147q-50 -12 -111 -12z" />
    <glyph glyph-name="Wcircumflex" unicode="&#x174;" horiz-adv-x="2160" 
d="M735 1581l217 324h256l217 -324h-204l-142 168l-139 -168h-205zM1362 0l-248 946q-14 47 -35 166q-18 -106 -32 -166l-248 -946h-328l-446 1483h307l254 -957q18 -68 43 -227q23 129 49 227l258 957h289l258 -957q27 -98 49 -227q18 131 43 227l254 957h307l-446 -1483
h-328z" />
    <glyph glyph-name="wcircumflex" unicode="&#x175;" horiz-adv-x="1673" 
d="M492 1204l217 324h256l217 -324h-205l-141 168l-140 -168h-204zM1030 0l-158 557q-25 76 -36 158q-18 -92 -37 -158l-160 -557h-281l-342 1051h293l158 -576q18 -66 35 -164q25 119 39 164l164 576h264l159 -576q25 -98 39 -170q18 109 37 170l162 576h291l-344 -1051
h-283z" />
    <glyph glyph-name="Ycircumflex" unicode="&#x176;" horiz-adv-x="1308" 
d="M313 1581l217 324h256l218 -324h-205l-142 168l-139 -168h-205zM510 0v563l-502 920h334l219 -467q70 -150 92 -217q29 80 95 217l219 467h333l-501 -920v-563h-289z" />
    <glyph glyph-name="ycircumflex" unicode="&#x177;" horiz-adv-x="1075" 
d="M199 1204l217 324h256l217 -324h-205l-141 168l-140 -168h-204zM106 -479q-63 0 -106 14v229q41 -8 94 -8q119 0 185 43t118 185l-389 1067h305l191 -621q23 -80 37 -162q20 102 41 162l200 621h285l-377 -1061q-92 -258 -223 -364q-132 -105 -361 -105z" />
    <glyph glyph-name="Ydieresis" unicode="&#x178;" horiz-adv-x="1308" 
d="M727 1618v250h268v-250h-268zM319 1618v250h269v-250h-269zM510 0v563l-502 920h334l219 -467q70 -150 92 -217q29 80 95 217l219 467h333l-501 -920v-563h-289z" />
    <glyph glyph-name="Zacute" unicode="&#x179;" horiz-adv-x="1249" 
d="M481 1581l193 324h323l-303 -324h-213zM78 0v221l727 1024h-703v238h1039v-221l-725 -1024h755v-238h-1093z" />
    <glyph glyph-name="zacute" unicode="&#x17a;" horiz-adv-x="1052" 
d="M395 1204l193 324h323l-303 -324h-213zM90 0v172l502 645h-490v234h861v-172l-504 -646h524v-233h-893z" />
    <glyph glyph-name="Zdotaccent" unicode="&#x17b;" horiz-adv-x="1249" 
d="M479 1618v266h285v-266h-285zM78 0v221l727 1024h-703v238h1039v-221l-725 -1024h755v-238h-1093z" />
    <glyph glyph-name="zdotaccent" unicode="&#x17c;" horiz-adv-x="1052" 
d="M393 1241v266h285v-266h-285zM90 0v172l502 645h-490v234h861v-172l-504 -646h524v-233h-893z" />
    <glyph glyph-name="Zcaron" unicode="&#x17d;" horiz-adv-x="1249" 
d="M750 1581h-256l-218 324h205l140 -170l141 170h205zM78 0v221l727 1024h-703v238h1039v-221l-725 -1024h755v-238h-1093z" />
    <glyph glyph-name="zcaron" unicode="&#x17e;" horiz-adv-x="1052" 
d="M664 1204h-256l-218 324h205l140 -170l141 170h205zM90 0v172l502 645h-490v234h861v-172l-504 -646h524v-233h-893z" />
    <glyph glyph-name="florin" unicode="&#x192;" 
d="M1077 1503q121 0 207 -28l-35 -218q-70 16 -162 17q-190 0 -221 -193l-30 -186h372l-37 -233h-372l-58 -363q-78 -500 -548 -500q-72 0 -113 19l35 225q41 -8 86 -8q219 0 262 284l53 343h-315l37 233h315l37 225q61 383 487 383z" />
    <glyph glyph-name="Scommaaccent" unicode="&#x218;" horiz-adv-x="1269" 
d="M662 -86q55 0 87 -33t31 -86q0 -139 -225 -248l-82 -39l-92 97l139 149l-41 160h183zM555 -33q-311 0 -453 86v238q164 -80 433 -80q324 0 323 203q0 84 -65 131q-67 47 -263 92t-308 149t-112 302t133 313q132 115 426 115t427 -86v-238q-166 80 -422 80t-256 -195
q0 -84 66 -128t266 -88t309 -148t109 -302t-152 -321q-150 -123 -461 -123z" />
    <glyph glyph-name="scommaaccent" unicode="&#x219;" horiz-adv-x="995" 
d="M561 -86q55 0 87 -33t32 -86q0 -139 -225 -248l-82 -39l-92 97l139 149l-41 160h182zM457 -31q-105 -1 -209 19t-154 49v225q52 -25 156 -43t188 -18q199 0 199 96q0 51 -43 75q-42 24 -190 58t-224 112q-76 76 -76 222t109 232t334 85q94 0 190 -19t140 -50v-226
q-55 27 -153 45t-177 19q-154 0 -154 -92q0 -49 41 -72q42 -22 190 -58t225 -112t77 -219t-123 -235t-346 -93z" />
    <glyph glyph-name="uni021A" unicode="&#x21a;" horiz-adv-x="1136" 
d="M618 -86q56 0 88 -33t31 -86q0 -139 -225 -248l-82 -39l-92 97l139 149l-41 160h182zM41 1245v238h1055v-238h-383v-1245h-289v1245h-383z" />
    <glyph glyph-name="uni021B" unicode="&#x21b;" horiz-adv-x="878" 
d="M592 -86q55 0 87 -33t32 -86q0 -139 -226 -248l-82 -39l-92 97l140 149l-41 160h182zM45 817v234h164v325h280v-325h345v-234h-345v-450q0 -84 32 -119t126 -35t182 18v-219q-117 -43 -254 -43q-207 0 -287 94t-79 285v469h-164z" />
    <glyph glyph-name="dotlessj" unicode="&#x237;" horiz-adv-x="616" 
d="M-23 -479q-70 0 -114 18v225q41 -8 86 -8q219 0 219 285v1010h281v-1008q1 -264 -125 -393t-347 -129z" />
    <glyph glyph-name="circumflex" unicode="&#x2c6;" horiz-adv-x="933" 
d="M123 1204l217 324h256l217 -324h-205l-141 168l-139 -168h-205z" />
    <glyph glyph-name="caron" unicode="&#x2c7;" horiz-adv-x="933" 
d="M594 1204h-256l-217 324h205l139 -170l141 170h205z" />
    <glyph glyph-name="breve" unicode="&#x2d8;" horiz-adv-x="933" 
d="M467 1194q-160 0 -251 94t-97 240h176q4 -62 49 -106t123 -44t121 45t49 105h178q-6 -146 -97 -240t-251 -94z" />
    <glyph glyph-name="dotaccent" unicode="&#x2d9;" horiz-adv-x="933" 
d="M324 1241v266h284v-266h-284z" />
    <glyph glyph-name="ring" unicode="&#x2da;" horiz-adv-x="933" 
d="M567 1429q-1 41 -29 71t-71 30t-73 -30t-30 -72t30 -71q30 -30 73 -30t72 30q28 30 28 72zM713 1430q0 -100 -71 -167t-175 -67t-175 67t-71 167t71 166t175 67q104 -1 175 -67t71 -166z" />
    <glyph glyph-name="ogonek" unicode="&#x2db;" horiz-adv-x="933" 
d="M518 -438q-126 0 -196 52t-70 146q0 127 192 260h146q-131 -131 -131 -219t104 -88q25 0 66 8v-147q-50 -12 -111 -12z" />
    <glyph glyph-name="tilde" unicode="&#x2dc;" horiz-adv-x="933" 
d="M80 1217q0 137 67 217q68 80 177 79q68 0 154 -48t118 -48q90 0 90 90h168q0 -137 -70 -217t-178 -80q-68 0 -152 48t-116 49q-86 0 -90 -90h-168z" />
    <glyph glyph-name="hungarumlaut" unicode="&#x2dd;" horiz-adv-x="933" 
d="M59 1204l131 324h295l-221 -324h-205zM446 1204l132 324h294l-221 -324h-205z" />
    <glyph glyph-name="commatop" unicode="&#x312;" horiz-adv-x="933" 
d="M422 1204q-55 0 -87 33t-32 97t65 130t160 113l82 39l92 -96l-139 -154l41 -162h-182z" />
    <glyph glyph-name="caronslovak" unicode="&#x315;" horiz-adv-x="933" 
d="M504 1552q53 0 87 -30t34 -76q0 -47 -21 -93q-21 -47 -37 -75t-22 -38q-5 -11 -23 -39t-24 -38l-35 -57h-154l76 237l-63 209h182z" />
    <glyph glyph-name="commaaccent" unicode="&#x326;" horiz-adv-x="933" 
d="M530 -86q55 0 87 -33t32 -86q0 -139 -225 -248l-82 -39l-92 97l139 149l-41 160h182z" />
    <glyph glyph-name="tonos" unicode="&#x384;" horiz-adv-x="933" 
d="M406 1186l-99 387h320l-99 -387h-122z" />
    <glyph glyph-name="dieresistonos" unicode="&#x385;" horiz-adv-x="933" 
d="M418 1186l-107 387h312l-107 -387h-98zM680 1241v250h207v-250h-207zM47 1241v250h207v-250h-207z" />
    <glyph glyph-name="Alphatonos" unicode="&#x386;" horiz-adv-x="1411" 
d="M135 1178l-98 387h319l-98 -387h-123zM629 958l-135 -405h407l-133 405q-49 147 -70 269q-20 -122 -69 -269zM16 0l535 1483h309l535 -1483h-310l-106 319h-563l-105 -319h-295z" />
    <glyph glyph-name="Epsilontonos" unicode="&#x388;" horiz-adv-x="1460" 
d="M82 1178l-98 387h319l-98 -387h-123zM406 0v1483h935v-238h-647v-366h557v-238h-557v-403h656v-238h-944z" />
    <glyph glyph-name="Etatonos" unicode="&#x389;" horiz-adv-x="1753" 
d="M82 1178l-98 387h319l-98 -387h-123zM1280 0v643h-586v-643h-288v1483h288v-602h586v602h289v-1483h-289z" />
    <glyph glyph-name="Iotatonos" unicode="&#x38a;" horiz-adv-x="1157" 
d="M82 1178l-98 387h319l-98 -387h-123zM406 1253v230h628v-230h-170v-1024h170v-229h-628v229h169v1024h-169z" />
    <glyph glyph-name="Omicrontonos" unicode="&#x38c;" horiz-adv-x="1720" 
d="M82 1178l-98 387h319l-98 -387h-123zM956 211q350 0 351 530q0 530 -351 531q-350 0 -350 -530t350 -531zM956 -33q-372 0 -519 230q-130 203 -130 544q0 774 649 775q373 0 520 -230q130 -203 130 -545q-1 -774 -650 -774z" />
    <glyph glyph-name="Upsilontonos" unicode="&#x38e;" horiz-adv-x="1660" 
d="M82 1178l-98 387h319l-98 -387h-123zM862 0v563l-502 920h334l219 -467q70 -150 93 -217q29 80 94 217l219 467h334l-502 -920v-563h-289z" />
    <glyph glyph-name="Omegatonos" unicode="&#x38f;" horiz-adv-x="1746" 
d="M82 1178l-98 387h319l-98 -387h-123zM954 1272q-350 0 -350 -502q0 -412 268 -588v-182h-604v238h258q-221 197 -221 567q0 287 151 490q76 101 204 161t296 60t297 -58t204 -158q147 -199 147 -495q0 -371 -224 -567h260v-238h-604v182q268 176 269 588q-1 502 -351 502
z" />
    <glyph glyph-name="iotadieresistonos" unicode="&#x390;" horiz-adv-x="679" 
d="M264 1186l-106 387h311l-107 -387h-98zM526 1241v250h207v-250h-207zM-106 1241v250h206v-250h-206zM426 -16q-260 0 -260 274v793h280v-756q0 -39 18 -55q35 -32 150 -9v-223q-69 -24 -188 -24z" />
    <glyph glyph-name="Alpha" unicode="&#x391;" horiz-adv-x="1411" 
d="M629 958l-135 -405h407l-133 405q-49 147 -70 269q-20 -122 -69 -269zM16 0l535 1483h309l535 -1483h-310l-106 319h-563l-105 -319h-295z" />
    <glyph glyph-name="Beta" unicode="&#x392;" horiz-adv-x="1351" 
d="M668 1251h-193v-389h176q121 0 173 52t53 153q0 184 -209 184zM702 645h-227v-416h252q221 0 221 199q0 217 -246 217zM184 0v1483h502q244 -1 366 -101t122 -290q0 -221 -168 -318q240 -104 239 -371q0 -187 -125 -295t-387 -108h-549z" />
    <glyph glyph-name="Gamma" unicode="&#x393;" horiz-adv-x="1087" 
d="M184 0v1483h867v-238h-578v-1245h-289z" />
    <glyph glyph-name="uni0394" unicode="&#x394;" horiz-adv-x="1447" 
d="M641 979l-295 -741h737l-295 741q-43 102 -73 231q-27 -116 -74 -231zM57 0v221l512 1262h310l512 -1262v-221h-1334z" />
    <glyph glyph-name="Epsilon" unicode="&#x395;" horiz-adv-x="1239" 
d="M184 0v1483h936v-238h-647v-366h557v-238h-557v-403h655v-238h-944z" />
    <glyph glyph-name="Zeta" unicode="&#x396;" horiz-adv-x="1249" 
d="M78 0v221l727 1024h-703v238h1039v-221l-725 -1024h755v-238h-1093z" />
    <glyph glyph-name="Eta" unicode="&#x397;" horiz-adv-x="1531" 
d="M1059 0v643h-586v-643h-289v1483h289v-602h586v602h289v-1483h-289z" />
    <glyph glyph-name="Theta" unicode="&#x398;" horiz-adv-x="1527" 
d="M764 211q350 0 350 530t-350 531q-350 0 -350 -530t350 -531zM764 -33q-374 0 -519 230q-132 206 -130 544q0 774 649 775q372 0 519 -230q130 -203 130 -545q0 -774 -649 -774zM535 618v238h458v-238h-458z" />
    <glyph glyph-name="Iota" unicode="&#x399;" horiz-adv-x="874" 
d="M123 1253v230h629v-230h-170v-1024h170v-229h-629v229h170v1024h-170z" />
    <glyph glyph-name="Kappa" unicode="&#x39a;" horiz-adv-x="1378" 
d="M184 0v1483h289v-652l502 652h354l-469 -594q-70 -90 -129 -135q63 -45 139 -140l496 -614h-354l-539 674v-674h-289z" />
    <glyph glyph-name="Lambda" unicode="&#x39b;" horiz-adv-x="1411" 
d="M16 0l535 1483h309l535 -1483h-310l-317 958q-49 147 -70 269q-20 -121 -69 -269l-318 -958h-295z" />
    <glyph glyph-name="Mu" unicode="&#x39c;" horiz-adv-x="1869" 
d="M184 0v1483h303l351 -602q68 -119 98 -217q27 90 98 217l350 602h302v-1483h-273v819q0 125 19 309q-57 -164 -132 -286l-278 -469h-176l-279 469q-66 109 -129 282q18 -184 19 -305v-819h-273z" />
    <glyph glyph-name="Nu" unicode="&#x39d;" horiz-adv-x="1570" 
d="M184 0v1483h293l537 -856q51 -80 112 -226q-16 137 -16 226v856h276v-1483h-292l-537 856q-51 80 -115 225q18 -158 19 -225v-856h-277z" />
    <glyph glyph-name="Xi" unicode="&#x39e;" horiz-adv-x="1230" 
d="M111 1241v242h1001v-242h-1001zM236 637v246h757v-246h-757zM102 0v242h1018v-242h-1018z" />
    <glyph glyph-name="Omicron" unicode="&#x39f;" horiz-adv-x="1527" 
d="M764 211q350 0 350 530t-350 531q-350 0 -350 -530t350 -531zM764 -33q-374 0 -519 230q-132 206 -130 544q0 774 649 775q372 0 519 -230q130 -203 130 -545q0 -774 -649 -774z" />
    <glyph glyph-name="Pi" unicode="&#x3a0;" horiz-adv-x="1454" 
d="M184 0v1483h1106v-1483h-289v1245h-528v-1245h-289z" />
    <glyph glyph-name="Rho" unicode="&#x3a1;" horiz-adv-x="1277" 
d="M674 1260h-203v-523h178q268 0 269 264q0 121 -62 190t-182 69zM184 0v1483h516q512 0 512 -482q0 -237 -133 -363t-401 -126h-207v-512h-287z" />
    <glyph glyph-name="Sigma" unicode="&#x3a3;" horiz-adv-x="1179" 
d="M98 0v221l449 527l-441 514v221h988v-238h-637l366 -403v-174l-383 -430h654v-238h-996z" />
    <glyph glyph-name="Tau" unicode="&#x3a4;" horiz-adv-x="1136" 
d="M41 1245v238h1055v-238h-383v-1245h-289v1245h-383z" />
    <glyph glyph-name="Upsilon" unicode="&#x3a5;" horiz-adv-x="1308" 
d="M510 0v563l-502 920h334l219 -467q70 -150 92 -217q29 80 95 217l219 467h333l-501 -920v-563h-289z" />
    <glyph glyph-name="Phi" unicode="&#x3a6;" horiz-adv-x="1671" 
d="M369 772q0 -166 86 -272t245 -125v774q-152 -15 -242 -113t-89 -264zM1303 772q-1 166 -91 263t-241 114v-774q158 19 245 125t87 272zM692 0v154q-286 12 -452 182t-166 437t170 425t448 168v117h287v-117q279 -10 449 -168t169 -425t-167 -437t-451 -182v-154h-287z
" />
    <glyph glyph-name="Chi" unicode="&#x3a7;" horiz-adv-x="1314" 
d="M4 0l483 760l-460 723h335l252 -428q29 -53 45 -101q25 59 50 101l254 428h323l-461 -723l486 -760h-336l-277 471q-23 39 -47 100q-10 -33 -47 -100l-276 -471h-324z" />
    <glyph glyph-name="Psi" unicode="&#x3a8;" horiz-adv-x="1615" 
d="M98 1483h291v-443q0 -326 270 -368v811h287v-813q281 39 281 370v443h291v-484q0 -227 -140 -390t-432 -185v-424h-287v426q-147 12 -259 64q-202 94 -271 309q-31 94 -31 200v484z" />
    <glyph glyph-name="uni03A9" unicode="&#x3a9;" horiz-adv-x="1585" 
d="M793 1272q-350 0 -351 -502q0 -412 269 -588v-182h-605v238h259q-221 197 -222 567q0 287 151 490q75 101 204 161t297 60t297 -58q130 -58 204 -158q146 -200 146 -495q0 -371 -223 -567h260v-238h-605v182q268 176 269 588q0 502 -350 502z" />
    <glyph glyph-name="Iotadieresis" unicode="&#x3aa;" horiz-adv-x="874" 
d="M506 1618v250h268v-250h-268zM98 1618v250h269v-250h-269zM123 1253v230h629v-230h-170v-1024h170v-229h-629v229h170v1024h-170z" />
    <glyph glyph-name="Upsilondieresis" unicode="&#x3ab;" horiz-adv-x="1308" 
d="M727 1618v250h268v-250h-268zM319 1618v250h269v-250h-269zM510 0v563l-502 920h334l219 -467q70 -150 92 -217q29 80 95 217l219 467h333l-501 -920v-563h-289z" />
    <glyph glyph-name="alphatonos" unicode="&#x3ac;" horiz-adv-x="1257" 
d="M573 1186l-98 387h320l-99 -387h-123zM599 205q124 0 210 92v457q-86 92 -209 92q-229 0 -229 -320t228 -321zM526 -33q-210 1 -326 147t-116 411t119 411t332 147q172 0 290 -129l21 97h244v-756q0 -39 14 -55q24 -28 129 -11v-223q-66 -23 -176 -22q-164 0 -221 125
q-54 -61 -138 -101t-172 -41z" />
    <glyph glyph-name="epsilontonos" unicode="&#x3ad;" horiz-adv-x="989" 
d="M461 1186l-99 387h320l-98 -387h-123zM536 -31q-225 0 -346 89t-120 225q0 197 190 270q-147 70 -147 235q0 137 107 216q108 78 313 78t348 -66v-207q-141 51 -314 51q-84 0 -127 -29t-43 -73q0 -123 170 -123h181v-201h-205q-188 0 -189 -121q0 -117 213 -116
q184 0 344 53v-215q-150 -66 -375 -66z" />
    <glyph glyph-name="etatonos" unicode="&#x3ae;" horiz-adv-x="1284" 
d="M592 1186l-98 387h319l-98 -387h-123zM168 0v1051h244l22 -86q131 119 326 119t288 -105q93 -104 93 -291v-1155h-281v1118q0 188 -192 189q-127 0 -219 -58v-782h-281z" />
    <glyph glyph-name="iotatonos" unicode="&#x3af;" horiz-adv-x="679" 
d="M252 1186l-98 387h319l-98 -387h-123zM426 -16q-260 0 -260 274v793h280v-756q0 -39 18 -55q35 -32 150 -9v-223q-69 -24 -188 -24z" />
    <glyph glyph-name="upsilondieresistonos" unicode="&#x3b0;" horiz-adv-x="1191" 
d="M553 1186l-107 387h312l-107 -387h-98zM815 1241v250h207v-250h-207zM182 1241v250h207v-250h-207zM1094 592q0 -322 -108 -474t-374 -151q-266 0 -374 135t-107 396v553h281v-543q0 -156 40 -235t160 -79t158 92q39 91 39 311t-59 454h272q72 -242 72 -459z" />
    <glyph glyph-name="alpha" unicode="&#x3b1;" horiz-adv-x="1277" 
d="M599 205q124 0 210 92v457q-86 92 -209 92q-229 0 -229 -320t228 -321zM526 -33q-210 1 -326 147t-116 411t119 411t332 147q172 0 290 -129l21 97h244v-756q0 -39 14 -55q24 -28 129 -11v-223q-66 -23 -176 -22q-164 0 -221 125q-54 -61 -138 -101t-172 -41z" />
    <glyph glyph-name="beta" unicode="&#x3b2;" horiz-adv-x="1275" 
d="M449 1077v-825q102 -47 231 -47q236 0 235 227q0 121 -73 201q-74 80 -264 112v191q150 28 210 94t62 141q0 75 -45 127t-147 52q-210 2 -209 -273zM168 -467v1571q0 229 140 351t366 122t343 -108q118 -108 118 -273q-1 -109 -63 -201t-187 -143q317 -98 317 -416
q0 -211 -129 -340t-348 -129q-164 0 -276 70v-504h-281z" />
    <glyph glyph-name="gamma" unicode="&#x3b3;" horiz-adv-x="1101" 
d="M707 -467h-281v438l-299 817q-13 39 -53 39t-70 -6v221q61 25 156 25q174 0 227 -170l143 -469q23 -80 37 -162q20 102 41 162l201 623h285l-387 -1082v-436z" />
    <glyph glyph-name="delta" unicode="&#x3b4;" horiz-adv-x="1216" 
d="M608 195q236 0 236 324t-236 325q-236 0 -236 -324t236 -325zM508 1036q68 0 123 -14q-45 45 -94 88l-334 276v166h803v-233h-383l176 -135q334 -260 334 -658q-1 -256 -131 -408t-399 -151q-269 0 -394 154q-125 155 -125 405t121 380t303 130z" />
    <glyph glyph-name="epsilon" unicode="&#x3b5;" horiz-adv-x="985" 
d="M541 -31q-225 0 -346 89t-121 225q0 197 190 270q-147 70 -147 235q0 137 107 216q108 78 313 78t348 -66v-207q-141 51 -314 51q-84 0 -127 -29t-43 -73q0 -123 170 -123h181v-201h-205q-188 0 -189 -121q0 -117 213 -116q184 0 344 53v-215q-149 -66 -374 -66z" />
    <glyph glyph-name="zeta" unicode="&#x3b6;" horiz-adv-x="983" 
d="M623 0q-272 0 -399 128q-126 128 -126 362t128 457q128 222 337 372h-432v233h868v-166q-238 -125 -425 -387t-187 -501q0 -270 262 -271h117q193 0 192 -153q1 -196 -118 -391h-244q80 172 96 317h-69z" />
    <glyph glyph-name="eta" unicode="&#x3b7;" horiz-adv-x="1284" 
d="M168 0v1051h244l22 -86q131 119 326 119t288 -105q93 -104 93 -291v-1155h-281v1118q0 188 -192 189q-127 0 -219 -58v-782h-281z" />
    <glyph glyph-name="theta" unicode="&#x3b8;" horiz-adv-x="1228" 
d="M614 1348q-211 0 -239 -447h479q-29 447 -240 447zM612 197q219 0 244 471h-483q20 -471 239 -471zM614 -37q-392 0 -494 488q-30 143 -30 317q0 362 131 586t396 223q265 0 393 -221q128 -220 129 -584q0 -364 -131 -587q-132 -222 -394 -222z" />
    <glyph glyph-name="iota" unicode="&#x3b9;" horiz-adv-x="679" 
d="M426 -16q-260 0 -260 274v793h280v-756q0 -39 18 -55q35 -32 150 -9v-223q-69 -24 -188 -24z" />
    <glyph glyph-name="kappa" unicode="&#x3ba;" horiz-adv-x="1181" 
d="M168 0v1051h281v-424l366 424h334l-338 -392q-47 -53 -115 -100q53 -37 121 -117l354 -442h-348l-374 475v-475h-281z" />
    <glyph glyph-name="lambda" unicode="&#x3bb;" horiz-adv-x="1146" 
d="M198 1341q-66 0 -108 -8v228q49 16 119 16q176 0 275 -70t173 -264l375 -981q14 -39 54 -39t69 6v-221q-61 -25 -156 -24q-176 0 -233 170l-152 440q-33 92 -59 237q-31 -168 -55 -237l-207 -594h-285l402 1083l-27 74q-37 100 -78 142t-107 42z" />
    <glyph glyph-name="uni03BC" unicode="&#x3bc;" horiz-adv-x="1310" 
d="M547 -25q-61 0 -117 19q18 -80 19 -225v-236h-281v1518h281v-648q0 -186 192 -186q119 0 201 49v785h280v-756q0 -39 14 -55q25 -28 130 -11v-223q-66 -23 -176 -22q-160 0 -218 116q-135 -125 -325 -125z" />
    <glyph glyph-name="nu" unicode="&#x3bd;" horiz-adv-x="1075" 
d="M389 0l-381 1051h305l191 -623q23 -82 37 -160q20 96 41 160l200 623h285l-375 -1051h-303z" />
    <glyph glyph-name="xi" unicode="&#x3be;" horiz-adv-x="942" 
d="M618 0q-270 0 -405 139t-135 359q0 135 72 239t190 158q-203 92 -203 319q0 170 109 266q108 96 312 97q204 0 347 -66v-206q-141 51 -313 51q-84 0 -127 -48t-43 -124q0 -180 207 -180h205v-226h-201q-125 0 -197 -72t-72 -197q0 -126 74 -204q72 -78 207 -78h117
q193 0 192 -153q0 -197 -118 -391h-244q80 172 96 317h-70z" />
    <glyph glyph-name="omicron" unicode="&#x3bf;" horiz-adv-x="1216" 
d="M608 195q236 1 236 331t-236 330t-236 -330t236 -331zM1133 527q-1 -257 -131 -409t-397 -151q-267 0 -394 150q-127 151 -127 407t130 408t397 152t395 -150q127 -150 127 -407z" />
    <glyph glyph-name="pi" unicode="&#x3c0;" horiz-adv-x="1366" 
d="M57 817v234h1235v-234h-202v-518q0 -39 17 -55t63 -16t87 8v-224q-70 -25 -188 -24q-260 0 -260 274v555h-301v-817h-281v817h-170z" />
    <glyph glyph-name="rho" unicode="&#x3c1;" horiz-adv-x="1228" 
d="M612 205q125 0 185 89q59 89 59 232q0 330 -231 330q-221 0 -222 -332v-268q84 -51 209 -51zM123 -467v1004q0 254 120 400t386 146q266 1 391 -149t125 -409t-129 -409t-357 -149q-152 0 -256 74v-508h-280z" />
    <glyph glyph-name="sigma1" unicode="&#x3c2;" horiz-adv-x="956" 
d="M608 0q-268 0 -396 145t-128 396t124 395t347 145q223 0 328 -55v-229q-113 41 -251 41t-199 -84q-62 -84 -62 -222q1 -138 67 -221q66 -84 197 -84h100q193 0 193 -153q0 -197 -119 -391h-244q80 172 97 317h-54z" />
    <glyph glyph-name="sigma" unicode="&#x3c3;" horiz-adv-x="1243" 
d="M827 526q0 184 -96 291h-102q-127 0 -192 -83t-64 -226q0 -313 227 -313q227 -1 227 331zM600 -33q-516 0 -516 541q0 252 130 397t394 146h631v-234h-244q121 -139 121 -311q0 -242 -127 -390t-389 -149z" />
    <glyph glyph-name="tau" unicode="&#x3c4;" horiz-adv-x="927" 
d="M16 817v234h895v-234h-340v-522q-1 -39 17 -55q35 -32 151 -9v-223q-72 -25 -188 -24q-260 0 -260 274v559h-275z" />
    <glyph glyph-name="upsilon" unicode="&#x3c5;" horiz-adv-x="1191" 
d="M1094 592q0 -322 -108 -474t-374 -151q-266 0 -374 135t-107 396v553h281v-543q0 -156 40 -235t160 -79t158 92q39 91 39 311t-59 454h272q72 -242 72 -459z" />
    <glyph glyph-name="phi" unicode="&#x3c6;" horiz-adv-x="1521" 
d="M358 523q0 -146 75 -230t204 -94v651q-129 -10 -204 -96t-75 -231zM1163 524q0 150 -73 235q-74 85 -205 93v-653q131 7 205 91t73 234zM901 1552v-481q263 -11 405 -155t142 -393t-139 -391t-408 -152v-447h-280v447q-266 12 -407 154q-140 142 -140 389t142 390
t405 158v481h280z" />
    <glyph glyph-name="chi" unicode="&#x3c7;" horiz-adv-x="1073" 
d="M78 827q-38 0 -70 -6v221q61 25 156 25q143 0 211 -135l121 -240q45 -94 59 -162q18 78 63 162l187 359h287l-392 -738l265 -501q29 -56 67 -56t70 6v-221q-61 -25 -156 -24q-141 0 -211 135l-131 258q-45 88 -61 162q-16 -74 -62 -162l-194 -377h-287l399 754l-254 485
q-29 55 -67 55z" />
    <glyph glyph-name="psi" unicode="&#x3c8;" horiz-adv-x="1488" 
d="M612 -467v444q-248 35 -364 179t-117 370v525h281v-514q0 -276 211 -330v1053h260v-1057q121 19 172 117t51 272q0 268 -88 459h266q106 -213 106 -477t-119 -416q-120 -154 -378 -183v-442h-281z" />
    <glyph glyph-name="omega" unicode="&#x3c9;" horiz-adv-x="1681" 
d="M515 -33q-224 1 -320 143t-97 400q0 319 181 541h276q-166 -250 -166 -521q0 -172 32 -254t126 -82t128 80q34 78 34 234v219h264v-219q0 -156 34 -235t128 -79t126 82t31 254q0 274 -166 521h277q180 -233 180 -541q0 -258 -96 -400q-95 -142 -319 -142t-328 155
q-101 -156 -325 -156z" />
    <glyph glyph-name="iotadieresis" unicode="&#x3ca;" horiz-adv-x="679" 
d="M383 1241v250h268v-250h-268zM-25 1241v250h269v-250h-269zM426 -16q-260 0 -260 274v793h280v-756q0 -39 18 -55q35 -32 150 -9v-223q-69 -24 -188 -24z" />
    <glyph glyph-name="upsilondieresis" unicode="&#x3cb;" horiz-adv-x="1191" 
d="M672 1241v250h268v-250h-268zM264 1241v250h268v-250h-268zM1094 592q0 -322 -108 -474t-374 -151q-266 0 -374 135t-107 396v553h281v-543q0 -156 40 -235t160 -79t158 92q39 91 39 311t-59 454h272q72 -242 72 -459z" />
    <glyph glyph-name="omicrontonos" unicode="&#x3cc;" horiz-adv-x="1216" 
d="M547 1186l-98 387h319l-98 -387h-123zM608 195q236 1 236 331t-236 330t-236 -330t236 -331zM1133 527q-1 -257 -131 -409t-397 -151q-267 0 -394 150q-127 151 -127 407t130 408t397 152t395 -150q127 -150 127 -407z" />
    <glyph glyph-name="upsilontonos" unicode="&#x3cd;" horiz-adv-x="1191" 
d="M541 1186l-99 387h320l-98 -387h-123zM1094 592q0 -322 -108 -474t-374 -151q-266 0 -374 135t-107 396v553h281v-543q0 -156 40 -235t160 -79t158 92q39 91 39 311t-59 454h272q72 -242 72 -459z" />
    <glyph glyph-name="omegatonos" unicode="&#x3ce;" horiz-adv-x="1681" 
d="M778 1186l-98 387h319l-98 -387h-123zM515 -33q-224 1 -320 143t-97 400q0 319 181 541h276q-166 -250 -166 -521q0 -172 32 -254t126 -82t128 80q34 78 34 234v219h264v-219q0 -156 34 -235t128 -79t126 82t31 254q0 274 -166 521h277q180 -233 180 -541
q0 -258 -96 -400q-95 -142 -319 -142t-328 155q-101 -156 -325 -156z" />
    <glyph glyph-name="uni0401" unicode="&#x401;" horiz-adv-x="1239" 
d="M725 1618v250h268v-250h-268zM317 1618v250h269v-250h-269zM184 0v1483h936v-238h-647v-366h557v-238h-557v-403h655v-238h-944z" />
    <glyph glyph-name="uni0402" unicode="&#x402;" horiz-adv-x="1529" 
d="M41 1245v238h932v-238h-322v-336h260q512 0 512 -450q0 -219 -131 -339t-379 -120h-71v225h43q121 1 182 61t61 171t-64 170q-65 59 -179 59h-234v-686h-289v1245h-321z" />
    <glyph glyph-name="uni0403" unicode="&#x403;" horiz-adv-x="1087" 
d="M475 1581l193 324h323l-303 -324h-213zM184 0v1483h867v-238h-578v-1245h-289z" />
    <glyph glyph-name="uni0404" unicode="&#x404;" horiz-adv-x="1271" 
d="M739 -33q-315 0 -474 205q-159 204 -159 566t166 570t486 208q260 0 424 -91v-239q-164 80 -408 80q-162 0 -257 -106t-107 -294h587v-237h-589q23 -414 376 -414q231 0 414 76v-240q-191 -84 -459 -84z" />
    <glyph glyph-name="uni0405" unicode="&#x405;" horiz-adv-x="1269" 
d="M555 -33q-311 0 -453 86v238q164 -80 433 -80q324 0 323 203q0 84 -65 131q-67 47 -263 92t-308 149t-112 302t133 313q132 115 426 115t427 -86v-238q-166 80 -422 80t-256 -195q0 -84 66 -128t266 -88t309 -148t109 -302t-152 -321q-150 -123 -461 -123z" />
    <glyph glyph-name="uni0406" unicode="&#x406;" horiz-adv-x="874" 
d="M123 1253v230h629v-230h-170v-1024h170v-229h-629v229h170v1024h-170z" />
    <glyph glyph-name="uni0407" unicode="&#x407;" horiz-adv-x="874" 
d="M506 1618v250h268v-250h-268zM98 1618v250h269v-250h-269zM123 1253v230h629v-230h-170v-1024h170v-229h-629v229h170v1024h-170z" />
    <glyph glyph-name="uni0408" unicode="&#x408;" horiz-adv-x="757" 
d="M74 1253v230h499v-1286q0 -256 -129 -386t-364 -130q-80 0 -117 14v237q39 -8 103 -8q118 0 168 77t51 228v1024h-211z" />
    <glyph glyph-name="uni0409" unicode="&#x409;" horiz-adv-x="2146" 
d="M1542 645h-233v-420h209q268 0 268 213q0 102 -64 154t-180 53zM1020 0v1245h-381l-49 -512q-41 -422 -134 -586t-276 -163q-102 0 -160 20v232q102 -23 145 4q67 39 103 222q23 112 39 288l70 733h932v-615h260q512 0 512 -430q0 -214 -136 -326t-399 -112h-526z" />
    <glyph glyph-name="uni040A" unicode="&#x40a;" horiz-adv-x="2185" 
d="M1581 645h-233v-420h208q268 0 269 213q1 102 -63 154t-181 53zM1059 0v643h-586v-643h-289v1483h289v-602h586v602h289v-615h260q512 0 512 -430q0 -214 -136 -326t-399 -112h-526z" />
    <glyph glyph-name="uni040B" unicode="&#x40b;" horiz-adv-x="1632" 
d="M41 1245v238h952v-238h-321v-336q150 31 278 31q268 0 393 -127t125 -379v-434h-288v422q0 285 -275 285q-129 0 -233 -19v-688h-289v1245h-342z" />
    <glyph glyph-name="uni040C" unicode="&#x40c;" horiz-adv-x="1390" 
d="M600 1581l193 324h323l-303 -324h-213zM184 0v1483h287v-627h82q71 0 99 20t71 89l315 518h338l-352 -578q-84 -133 -188 -160q104 -25 188 -157l358 -588h-338l-321 528q-43 70 -72 89t-98 20h-82v-637h-287z" />
    <glyph glyph-name="uni040E" unicode="&#x40e;" horiz-adv-x="1306" 
d="M666 1571q-160 0 -251 94t-98 240h177q4 -61 49 -105t123 -45q78 0 120 45t50 105h178q-6 -145 -97 -239t-251 -95zM297 -12q-72 0 -115 14v229q39 -8 94 -8q171 0 244 183l-487 1077h289l272 -596q49 -113 72 -203q25 100 73 203l271 596h288l-483 -1067
q-104 -228 -217 -328t-301 -100z" />
    <glyph glyph-name="uni040F" unicode="&#x40f;" horiz-adv-x="1441" 
d="M592 -362v362h-408v1483h289v-1245h496v1245h288v-1483h-405v-362h-260z" />
    <glyph glyph-name="uni0410" unicode="&#x410;" horiz-adv-x="1411" 
d="M629 958l-135 -405h407l-133 405q-49 147 -70 269q-20 -122 -69 -269zM16 0l535 1483h309l535 -1483h-310l-106 319h-563l-105 -319h-295z" />
    <glyph glyph-name="uni0411" unicode="&#x411;" horiz-adv-x="1323" 
d="M707 645h-234v-420h209q268 0 268 213q0 102 -63 154t-180 53zM184 0v1483h959v-238h-670v-377h260q512 0 512 -430q0 -214 -136 -326t-398 -112h-527z" />
    <glyph glyph-name="uni0412" unicode="&#x412;" horiz-adv-x="1351" 
d="M668 1251h-193v-389h176q121 0 173 52t53 153q0 184 -209 184zM702 645h-227v-416h252q221 0 221 199q0 217 -246 217zM184 0v1483h502q244 -1 366 -101t122 -290q0 -221 -168 -318q240 -104 239 -371q0 -187 -125 -295t-387 -108h-549z" />
    <glyph glyph-name="uni0413" unicode="&#x413;" horiz-adv-x="1087" 
d="M184 0v1483h867v-238h-578v-1245h-289z" />
    <glyph glyph-name="uni0414" unicode="&#x414;" horiz-adv-x="1634" 
d="M1077 1245h-372l-21 -373q-29 -504 -178 -634h571v1007zM49 -362v600h105q209 0 241 596l37 649h934v-1245h219v-600h-260v362h-1016v-362h-260z" />
    <glyph glyph-name="uni0415" unicode="&#x415;" horiz-adv-x="1239" 
d="M184 0v1483h936v-238h-647v-366h557v-238h-557v-403h655v-238h-944z" />
    <glyph glyph-name="uni0416" unicode="&#x416;" horiz-adv-x="2052" 
d="M817 856h66v627h286v-627h66q53 0 78 18t67 91l316 518h321l-352 -578q-86 -135 -174 -160q106 -25 190 -157l359 -588h-338l-322 528q-43 72 -67 90q-25 18 -78 19h-66v-637h-286v637h-66q-53 -1 -78 -19t-67 -90l-322 -528h-338l359 588q80 131 188 157
q-90 25 -172 160l-352 578h321l316 -518q43 -72 67 -91q25 -18 78 -18z" />
    <glyph glyph-name="uni0417" unicode="&#x417;" horiz-adv-x="1196" 
d="M535 -33q-154 -1 -249 19t-196 65v234q98 -41 188 -59t231 -17q142 0 213 59q71 60 71 158t-68 158t-199 61h-245v217h215q121 0 183 62t62 154t-61 146t-168 54q-229 0 -385 -76v228q155 86 401 86t378 -108t132 -298q0 -238 -196 -332q248 -109 248 -379
q0 -188 -146 -310t-409 -122z" />
    <glyph glyph-name="uni0418" unicode="&#x418;" horiz-adv-x="1570" 
d="M184 0v1483h277v-856q0 -61 -21 -250q61 154 125 250l549 856h272v-1483h-276v856q0 92 20 250q-68 -160 -124 -250l-545 -856h-277z" />
    <glyph glyph-name="uni0419" unicode="&#x419;" horiz-adv-x="1570" 
d="M784 1571q-160 0 -250 94t-98 240h176q4 -61 50 -105t122 -45q78 0 121 45t49 105h179q-5 -145 -97 -239t-252 -95zM184 0v1483h277v-856q0 -61 -21 -250q61 154 125 250l549 856h272v-1483h-276v856q0 92 20 250q-68 -160 -124 -250l-545 -856h-277z" />
    <glyph glyph-name="uni041A" unicode="&#x41a;" horiz-adv-x="1390" 
d="M184 0v1483h287v-627h82q71 0 99 20t71 89l315 518h338l-352 -578q-84 -133 -188 -160q104 -25 188 -157l358 -588h-338l-321 528q-43 70 -72 89t-98 20h-82v-637h-287z" />
    <glyph glyph-name="uni041B" unicode="&#x41b;" horiz-adv-x="1492" 
d="M1020 0v1245h-381l-49 -512q-41 -422 -134 -586t-276 -163q-102 0 -160 20v232q102 -23 145 4q67 39 103 222q23 112 39 288l70 733h932v-1483h-289z" />
    <glyph glyph-name="uni041C" unicode="&#x41c;" horiz-adv-x="1869" 
d="M184 0v1483h303l351 -602q68 -119 98 -217q27 90 98 217l350 602h302v-1483h-273v819q0 125 19 309q-57 -164 -132 -286l-278 -469h-176l-279 469q-66 109 -129 282q18 -184 19 -305v-819h-273z" />
    <glyph glyph-name="uni041D" unicode="&#x41d;" horiz-adv-x="1531" 
d="M1059 0v643h-586v-643h-289v1483h289v-602h586v602h289v-1483h-289z" />
    <glyph glyph-name="uni041E" unicode="&#x41e;" horiz-adv-x="1527" 
d="M764 211q350 0 350 530t-350 531q-350 0 -350 -530t350 -531zM764 -33q-374 0 -519 230q-132 206 -130 544q0 774 649 775q372 0 519 -230q130 -203 130 -545q0 -774 -649 -774z" />
    <glyph glyph-name="uni041F" unicode="&#x41f;" horiz-adv-x="1474" 
d="M184 0v1483h1106v-1483h-289v1245h-528v-1245h-289z" />
    <glyph glyph-name="uni0420" unicode="&#x420;" horiz-adv-x="1277" 
d="M674 1260h-203v-523h178q268 0 269 264q0 121 -62 190t-182 69zM184 0v1483h516q512 0 512 -482q0 -237 -133 -363t-401 -126h-207v-512h-287z" />
    <glyph glyph-name="uni0421" unicode="&#x421;" horiz-adv-x="1271" 
d="M774 1266q-366 0 -366 -537q0 -266 91 -390t285 -124q231 0 414 76v-240q-191 -84 -459 -84q-315 0 -474 205q-159 204 -159 566t166 570t486 208q260 0 424 -91v-239q-164 80 -408 80z" />
    <glyph glyph-name="uni0422" unicode="&#x422;" horiz-adv-x="1136" 
d="M41 1245v238h1055v-238h-383v-1245h-289v1245h-383z" />
    <glyph glyph-name="uni0423" unicode="&#x423;" horiz-adv-x="1306" 
d="M297 -12q-72 0 -115 14v229q39 -8 94 -8q171 0 244 183l-487 1077h289l272 -596q49 -113 72 -203q25 100 73 203l271 596h288l-483 -1067q-104 -228 -217 -328t-301 -100z" />
    <glyph glyph-name="uni0424" unicode="&#x424;" horiz-adv-x="1671" 
d="M369 772q0 -166 86 -272t245 -125v774q-152 -15 -242 -113t-89 -264zM1303 772q-1 166 -91 263t-241 114v-774q158 19 245 125t87 272zM692 0v154q-286 12 -452 182t-166 437t170 425t448 168v117h287v-117q279 -10 449 -168t169 -425t-167 -437t-451 -182v-154h-287z
" />
    <glyph glyph-name="uni0425" unicode="&#x425;" horiz-adv-x="1314" 
d="M4 0l483 760l-460 723h335l252 -428q29 -53 45 -101q25 59 50 101l254 428h323l-461 -723l486 -760h-336l-277 471q-23 39 -47 100q-10 -33 -47 -100l-276 -471h-324z" />
    <glyph glyph-name="uni0426" unicode="&#x426;" horiz-adv-x="1548" 
d="M1239 -362v362h-1055v1483h289v-1245h518v1245h289v-1245h219v-600h-260z" />
    <glyph glyph-name="uni0427" unicode="&#x427;" horiz-adv-x="1396" 
d="M924 0v594q-133 -31 -279 -31q-518 0 -518 486v434h289v-422q0 -125 68 -195t199 -70q132 0 241 19v668h288v-1483h-288z" />
    <glyph glyph-name="uni0428" unicode="&#x428;" horiz-adv-x="2177" 
d="M184 0v1483h289v-1245h471v1245h289v-1245h471v1245h289v-1483h-1809z" />
    <glyph glyph-name="uni0429" unicode="&#x429;" horiz-adv-x="2260" 
d="M184 0v1483h289v-1245h471v1245h289v-1245h471v1245h289v-1245h219v-600h-260v362h-1768z" />
    <glyph glyph-name="uni042A" unicode="&#x42a;" horiz-adv-x="1507" 
d="M903 645h-233v-420h209q268 0 268 213q1 102 -63 154t-181 53zM33 1245v238h637v-615h260q512 0 512 -430q0 -214 -136 -326t-399 -112h-526v1245h-348z" />
    <glyph glyph-name="uni042B" unicode="&#x42b;" horiz-adv-x="1898" 
d="M707 645h-234v-420h209q268 0 268 213q0 102 -63 154t-180 53zM184 0v1483h289v-615h260q512 0 512 -430q0 -214 -136 -326t-398 -112h-527zM1425 0v1483h289v-1483h-289z" />
    <glyph glyph-name="uni042C" unicode="&#x42c;" horiz-adv-x="1310" 
d="M707 645h-234v-420h209q268 0 268 213q0 102 -63 154t-180 53zM184 0v1483h289v-615h260q512 0 512 -430q0 -214 -136 -326t-398 -112h-527z" />
    <glyph glyph-name="uni042D" unicode="&#x42d;" horiz-adv-x="1271" 
d="M297 629v237h567q-14 186 -109 292t-257 108q-244 0 -408 -80v239q164 90 424 91q319 0 485 -208t166 -570q-1 -362 -159 -566q-158 -205 -474 -205q-268 0 -458 84v240q182 -76 413 -76q354 0 377 414h-567z" />
    <glyph glyph-name="uni042E" unicode="&#x42e;" horiz-adv-x="2189" 
d="M1425 211q350 0 351 530q0 530 -351 531q-350 0 -350 -530t350 -531zM1425 -33q-349 0 -495 198q-136 179 -152 478h-305v-643h-289v1483h289v-602h309q55 635 643 635q373 0 520 -230q130 -203 130 -545q-1 -774 -650 -774z" />
    <glyph glyph-name="uni042F" unicode="&#x42f;" horiz-adv-x="1372" 
d="M711 1260q-121 0 -189 -56t-67 -168q-1 -112 67 -172q68 -59 189 -59h190v455h-190zM901 0v586h-82q-71 0 -99 -20t-71 -89l-291 -477h-338l328 537q43 72 105 100q-125 35 -209 140t-84 265q0 440 524 441h504v-1483h-287z" />
    <glyph glyph-name="uni0430" unicode="&#x430;" horiz-adv-x="1142" 
d="M694 444q-326 0 -326 -126q2 -135 168 -136q92 0 181 60v202h-23zM717 647q0 103 -50 147t-169 44q-188 0 -336 -66v223q154 86 380 86t341 -99t114 -320v-662h-256l-14 80q-133 -113 -297 -113t-257 86q-91 86 -91 228q0 346 553 346l82 -2v22z" />
    <glyph glyph-name="uni0431" unicode="&#x431;" horiz-adv-x="1224" 
d="M612 819q-117 0 -221 -63v-111q0 -235 51 -343t181 -107q239 0 239 312t-250 312zM1151 503q1 -247 -137 -391t-405 -145q-267 0 -387 169t-120 511q0 235 32 391t106 249t167 138t242 76l381 76v-248l-348 -69q-140 -29 -198 -86t-81 -224q121 96 287 97
q217 -1 339 -149t122 -395z" />
    <glyph glyph-name="uni0432" unicode="&#x432;" horiz-adv-x="1171" 
d="M608 836h-164v-203h136q182 0 182 108q0 95 -154 95zM616 436h-172v-223h209q164 0 164 104q0 119 -201 119zM168 0v1051h455q213 0 318 -73t106 -204q0 -160 -138 -227q193 -70 193 -246q0 -135 -109 -218t-338 -83h-487z" />
    <glyph glyph-name="uni0433" unicode="&#x433;" horiz-adv-x="917" 
d="M168 0v1051h729v-234h-448v-817h-281z" />
    <glyph glyph-name="uni0434" unicode="&#x434;" horiz-adv-x="1366" 
d="M846 817h-258l-29 -231q-35 -272 -125 -353h412v584zM20 -303v536h86q40 1 60 9t45 44q40 58 74 330l53 435h788v-818h199v-536h-260v303h-784v-303h-261z" />
    <glyph glyph-name="uni0435" unicode="&#x435;" horiz-adv-x="1112" 
d="M559 864q-178 0 -194 -221h389q-17 221 -195 221zM602 -31q-254 1 -387 147t-133 400t115 411t360 156q129 0 225 -45t150 -124q105 -154 102 -371q0 -61 -6 -99h-666q16 -233 273 -233q193 0 340 53v-221q-158 -74 -373 -74z" />
    <glyph glyph-name="uni0436" unicode="&#x436;" horiz-adv-x="1665" 
d="M653 635h39v416h281v-416h39q37 0 52 2q35 5 64 57l209 357h303l-256 -418q-53 -84 -106 -105q72 -27 123 -106l256 -422h-334l-213 360q-27 46 -40 54t-58 8h-39v-422h-281v422h-39q-47 0 -59 -8t-39 -54l-213 -360h-334l256 422q47 78 121 106q-57 25 -104 105
l-256 418h303l209 -357q25 -41 45 -50t71 -9z" />
    <glyph glyph-name="uni0437" unicode="&#x437;" horiz-adv-x="997" 
d="M920 283q0 -135 -121 -225t-346 -89q-225 0 -375 66v215q160 -53 358 -53t199 116q0 121 -189 121h-204v201h180q170 0 170 123q0 46 -43 74t-127 28q-172 0 -313 -51v207q143 66 348 66t313 -78t107 -216q0 -168 -150 -235q193 -74 193 -270z" />
    <glyph glyph-name="uni0438" unicode="&#x438;" horiz-adv-x="1347" 
d="M168 0v1051h272v-502q0 -84 -18 -232q63 133 133 232l358 502h267v-1051h-273v502q0 102 17 233q-61 -135 -131 -233l-355 -502h-270z" />
    <glyph glyph-name="uni0439" unicode="&#x439;" horiz-adv-x="1347" 
d="M674 1194q-160 0 -251 94t-97 240h176q4 -62 49 -106t123 -44t121 45t49 105h178q-6 -146 -97 -240t-251 -94zM168 0v1051h272v-502q0 -84 -18 -232q63 133 133 232l358 502h267v-1051h-273v502q0 102 17 233q-61 -135 -131 -233l-355 -502h-270z" />
    <glyph glyph-name="uni043A" unicode="&#x43a;" horiz-adv-x="1193" 
d="M168 0v1051h281v-416h47q51 0 70 9t48 50l240 357h311l-286 -418q-53 -82 -115 -105q80 -33 131 -106l287 -422h-334l-244 360q-29 42 -45 52t-63 10h-47v-422h-281z" />
    <glyph glyph-name="uni043B" unicode="&#x43b;" horiz-adv-x="1310" 
d="M862 0v817h-284l-23 -244q-21 -227 -73 -360t-124 -181t-169 -48t-156 24v223q35 -10 91 -10t98 74t63 289l43 467h815v-1051h-281z" />
    <glyph glyph-name="uni043C" unicode="&#x43c;" horiz-adv-x="1562" 
d="M168 0v1051h299l252 -420q39 -63 61 -123q12 33 64 123l254 420h297v-1051h-269v428q0 135 19 320q-47 -115 -121 -242l-160 -275h-170l-159 275q-74 127 -121 242q20 -174 20 -320v-428h-266z" />
    <glyph glyph-name="uni043D" unicode="&#x43d;" horiz-adv-x="1316" 
d="M868 0v424h-419v-424h-281v1051h281v-394h419v394h281v-1051h-281z" />
    <glyph glyph-name="uni043E" unicode="&#x43e;" horiz-adv-x="1216" 
d="M608 195q236 1 236 331t-236 330t-236 -330t236 -331zM1133 527q-1 -257 -131 -409t-397 -151q-267 0 -394 150q-127 151 -127 407t130 408t397 152t395 -150q127 -150 127 -407z" />
    <glyph glyph-name="uni043F" unicode="&#x43f;" horiz-adv-x="1292" 
d="M168 0v1051h956v-1051h-280v817h-395v-817h-281z" />
    <glyph glyph-name="uni0440" unicode="&#x440;" horiz-adv-x="1275" 
d="M658 205q125 0 185 88t60 229q0 140 -61 232q-60 92 -186 92t-207 -53v-537q84 -51 209 -51zM168 -467v1518h244l22 -88q106 121 312 121t325 -146t119 -408t-129 -412t-356 -151q-152 0 -256 74v-508h-281z" />
    <glyph glyph-name="uni0441" unicode="&#x441;" horiz-adv-x="956" 
d="M547 -31q-219 -1 -341 147t-122 412t124 408t347 145q223 0 328 -55v-229q-113 41 -251 41t-199 -84q-62 -84 -62 -224t63 -230q63 -89 184 -89q160 0 273 41v-223q-125 -60 -344 -60z" />
    <glyph glyph-name="uni0442" unicode="&#x442;" horiz-adv-x="980" 
d="M20 817v234h941v-234h-330v-817h-281v817h-330z" />
    <glyph glyph-name="uni0443" unicode="&#x443;" horiz-adv-x="1075" 
d="M106 -479q-63 0 -106 14v229q41 -8 94 -8q119 0 185 43t118 185l-389 1067h305l191 -621q23 -80 37 -162q20 102 41 162l200 621h285l-377 -1061q-92 -258 -223 -364q-132 -105 -361 -105z" />
    <glyph glyph-name="uni0444" unicode="&#x444;" horiz-adv-x="1792" 
d="M586 846q-104 0 -158 -91t-53 -233q-1 -142 51 -229q52 -88 158 -88t172 51v537q-66 53 -170 53zM1208 205q106 0 158 88q51 88 51 229q0 140 -53 232q-54 92 -158 92t-170 -53v-537q66 -51 172 -51zM756 -467v506q-82 -72 -221 -72q-211 0 -328 150q-117 151 -117 413
t109 408t290 145q181 0 267 -102v571h280v-571q86 102 268 102t290 -145q108 -144 108 -408t-117 -414t-328 -149q-141 0 -221 72v-506h-280z" />
    <glyph glyph-name="uni0445" unicode="&#x445;" horiz-adv-x="1091" 
d="M10 0l377 532l-367 519h328l203 -326l205 326h317l-371 -516l379 -535h-325l-213 346l-215 -346h-318z" />
    <glyph glyph-name="uni0446" unicode="&#x446;" horiz-adv-x="1351" 
d="M1051 -303v303h-883v1051h281v-818h382v818h281v-818h199v-536h-260z" />
    <glyph glyph-name="uni0447" unicode="&#x447;" horiz-adv-x="1232" 
d="M784 0v346q-115 -37 -239 -37q-233 0 -344 109t-111 291v342h281v-334q0 -193 221 -193q100 0 192 17v510h281v-1051h-281z" />
    <glyph glyph-name="uni0448" unicode="&#x448;" horiz-adv-x="1910" 
d="M168 0v1051h281v-818h366v818h281v-818h366v818h281v-1051h-1575z" />
    <glyph glyph-name="uni0449" unicode="&#x449;" horiz-adv-x="1982" 
d="M168 0v1051h281v-818h366v818h281v-818h366v818h281v-818h199v-536h-261v303h-1513z" />
    <glyph glyph-name="uni044A" unicode="&#x44a;" horiz-adv-x="1320" 
d="M784 485h-178v-272h154q221 0 221 137q0 72 -48 104q-49 31 -149 31zM20 817v234h586v-355h203q459 0 459 -342q0 -176 -122 -265t-355 -89h-465v817h-306z" />
    <glyph glyph-name="uni044B" unicode="&#x44b;" horiz-adv-x="1699" 
d="M627 485h-178v-272h153q221 0 221 137q0 72 -48 104t-148 31zM168 0v1051h281v-355h202q459 0 459 -342q0 -176 -122 -265t-355 -89h-465zM1251 0v1051h281v-1051h-281z" />
    <glyph glyph-name="uni044C" unicode="&#x44c;" horiz-adv-x="1163" 
d="M627 485h-178v-272h153q221 0 221 137q0 72 -48 104t-148 31zM168 0v1051h281v-355h202q459 0 459 -342q0 -176 -122 -265t-355 -89h-465z" />
    <glyph glyph-name="uni044D" unicode="&#x44d;" horiz-adv-x="989" 
d="M195 420v219h421q-12 92 -77 148q-66 56 -166 57q-158 0 -267 -39v221q104 55 328 55t348 -144q124 -143 123 -407q0 -264 -128 -412t-341 -148t-338 59v217q113 -41 273 -41q102 0 169 58t78 157h-423z" />
    <glyph glyph-name="uni044E" unicode="&#x44e;" horiz-adv-x="1830" 
d="M1223 195q235 1 235 331t-236 330t-235 -330q0 -330 236 -331zM1747 527q0 -257 -130 -409t-384 -151q-254 0 -381 122t-150 335h-253v-424h-281v1051h281v-394h258q31 199 159 313q129 114 357 113q270 1 397 -149t127 -407z" />
    <glyph glyph-name="uni044F" unicode="&#x44f;" horiz-adv-x="1198" 
d="M408 713q0 -137 208 -138h138v263h-136q-210 0 -210 -125zM754 0v377h-58q-41 0 -61 -13t-51 -55l-242 -309h-326l291 369q37 45 70 61q-109 29 -181 109t-73 178q0 334 473 334h434v-1051h-276z" />
    <glyph glyph-name="uni0451" unicode="&#x451;" horiz-adv-x="1112" 
d="M627 1241v250h268v-250h-268zM219 1241v250h268v-250h-268zM559 864q-178 0 -194 -221h389q-17 221 -195 221zM602 -31q-254 1 -387 147t-133 400t115 411t360 156q129 0 225 -45t150 -124q105 -154 102 -371q0 -61 -6 -99h-666q16 -233 273 -233q193 0 340 53v-221
q-158 -74 -373 -74z" />
    <glyph glyph-name="uni0452" unicode="&#x452;" horiz-adv-x="1284" 
d="M45 1214v222h123v116h281v-116h184v-222h-184v-258q106 106 292 107q436 0 437 -637q0 -396 -127 -586t-351 -190q-70 0 -114 18v217q41 -8 86 -8q106 0 163 124q56 124 56 419q0 406 -232 405q-129 0 -210 -53v-772h-281v1214h-123z" />
    <glyph glyph-name="uni0453" unicode="&#x453;" horiz-adv-x="917" 
d="M401 1204l193 324h324l-304 -324h-213zM168 0v1051h729v-234h-448v-817h-281z" />
    <glyph glyph-name="uni0454" unicode="&#x454;" horiz-adv-x="972" 
d="M547 -31q-219 -1 -341 147t-122 412t124 408t347 145q223 0 328 -55v-223q-113 41 -267 41q-98 0 -162 -56t-79 -149h426v-219h-424q13 -98 77 -156t164 -59q160 0 273 41v-217q-125 -60 -344 -60z" />
    <glyph glyph-name="uni0455" unicode="&#x455;" horiz-adv-x="995" 
d="M457 -31q-105 -1 -209 19t-154 49v225q52 -25 156 -43t188 -18q199 0 199 96q0 51 -43 75q-42 24 -190 58t-224 112q-76 76 -76 222t109 232t334 85q94 0 190 -19t140 -50v-226q-55 27 -153 45t-177 19q-154 0 -154 -92q0 -49 41 -72q42 -22 190 -58t225 -112t77 -219
t-123 -235t-346 -93z" />
    <glyph glyph-name="uni0456" unicode="&#x456;" horiz-adv-x="616" 
d="M168 1208v275h281v-275h-281zM168 0v1051h281v-1051h-281z" />
    <glyph glyph-name="uni0457" unicode="&#x457;" horiz-adv-x="616" 
d="M377 1241v250h268v-250h-268zM-31 1241v250h269v-250h-269zM168 0v1051h281v-1051h-281z" />
    <glyph glyph-name="uni0458" unicode="&#x458;" horiz-adv-x="616" 
d="M168 1208v275h281v-275h-281zM-23 -479q-70 0 -114 18v225q41 -8 86 -8q219 0 219 285v1010h281v-1008q1 -264 -125 -393t-347 -129z" />
    <glyph glyph-name="uni0459" unicode="&#x459;" horiz-adv-x="1902" 
d="M1333 485h-178v-272h154q221 0 221 137q0 72 -48 104q-49 31 -149 31zM874 0v817h-284l-23 -244q-38 -436 -196 -541q-71 -48 -169 -48t-157 24v223q37 -10 82 -10q65 0 107 74t63 289l43 467h815v-355h203q459 0 459 -342q0 -176 -122 -265t-356 -89h-465z" />
    <glyph glyph-name="uni045A" unicode="&#x45a;" horiz-adv-x="1896" 
d="M1327 485h-178v-272h154q221 0 221 137q0 72 -48 104q-49 31 -149 31zM1333 0h-465v424h-419v-424h-281v1051h281v-394h419v394h281v-355h203q459 0 458 -342q0 -354 -477 -354z" />
    <glyph glyph-name="uni045B" unicode="&#x45b;" horiz-adv-x="1284" 
d="M45 1214v222h123v116h281v-116h184v-222h-184v-235q123 104 315 104t284 -104q93 -104 93 -291v-688h-281v651q0 188 -192 189q-127 0 -219 -58v-782h-281v1214h-123z" />
    <glyph glyph-name="uni045C" unicode="&#x45c;" horiz-adv-x="1193" 
d="M510 1204l192 324h324l-303 -324h-213zM168 0v1051h281v-416h47q51 0 70 9t48 50l240 357h311l-286 -418q-53 -82 -115 -105q80 -33 131 -106l287 -422h-334l-244 360q-29 42 -45 52t-63 10h-47v-422h-281z" />
    <glyph glyph-name="uni045E" unicode="&#x45e;" horiz-adv-x="1075" 
d="M532 1194q-160 0 -250 94t-98 240h176q4 -62 50 -106t122 -44q78 0 121 45t49 105h179q-5 -146 -97 -240t-252 -94zM106 -479q-63 0 -106 14v229q41 -8 94 -8q119 0 185 43t118 185l-389 1067h305l191 -621q23 -80 37 -162q20 102 41 162l200 621h285l-377 -1061
q-92 -258 -223 -364q-132 -105 -361 -105z" />
    <glyph glyph-name="uni045F" unicode="&#x45f;" horiz-adv-x="1280" 
d="M510 -303v303h-342v1051h281v-818h382v818h281v-1051h-342v-303h-260z" />
    <glyph glyph-name="uni0490" unicode="&#x490;" horiz-adv-x="1128" 
d="M184 0v1483h647v321h261v-559h-619v-1245h-289z" />
    <glyph glyph-name="uni0491" unicode="&#x491;" horiz-adv-x="958" 
d="M168 0v1051h510v303h260v-537h-489v-817h-281z" />
    <glyph glyph-name="uni0E3F" unicode="&#xe3f;" 
d="M903 1058q0 154 -125 189v-381q125 38 125 192zM455 1260v-406h110v406h-110zM455 653v-432h110v432h-110zM975 431q0 196 -197 218v-428q197 14 197 210zM174 0v1483h385v190h225v-194q406 -33 406 -387q0 -221 -168 -318q240 -104 240 -371q0 -182 -118 -288t-360 -115
v-190h-225v190h-385z" />
    <glyph glyph-name="Wgrave" unicode="&#x1e80;" horiz-adv-x="2160" 
d="M1008 1581l-303 324h323l193 -324h-213zM1362 0l-248 946q-14 47 -35 166q-18 -106 -32 -166l-248 -946h-328l-446 1483h307l254 -957q18 -68 43 -227q23 129 49 227l258 957h289l258 -957q27 -98 49 -227q18 131 43 227l254 957h307l-446 -1483h-328z" />
    <glyph glyph-name="wgrave" unicode="&#x1e81;" horiz-adv-x="1673" 
d="M764 1204l-303 324h323l193 -324h-213zM1030 0l-158 557q-25 76 -36 158q-18 -92 -37 -158l-160 -557h-281l-342 1051h293l158 -576q18 -66 35 -164q25 119 39 164l164 576h264l159 -576q25 -98 39 -170q18 109 37 170l162 576h291l-344 -1051h-283z" />
    <glyph glyph-name="Wacute" unicode="&#x1e82;" horiz-adv-x="2160" 
d="M938 1581l192 324h324l-303 -324h-213zM1362 0l-248 946q-14 47 -35 166q-18 -106 -32 -166l-248 -946h-328l-446 1483h307l254 -957q18 -68 43 -227q23 129 49 227l258 957h289l258 -957q27 -98 49 -227q18 131 43 227l254 957h307l-446 -1483h-328z" />
    <glyph glyph-name="wacute" unicode="&#x1e83;" horiz-adv-x="1673" 
d="M694 1204l193 324h323l-303 -324h-213zM1030 0l-158 557q-25 76 -36 158q-18 -92 -37 -158l-160 -557h-281l-342 1051h293l158 -576q18 -66 35 -164q25 119 39 164l164 576h264l159 -576q25 -98 39 -170q18 109 37 170l162 576h291l-344 -1051h-283z" />
    <glyph glyph-name="Wdieresis" unicode="&#x1e84;" horiz-adv-x="2160" 
d="M1149 1618v250h268v-250h-268zM741 1618v250h269v-250h-269zM1362 0l-248 946q-14 47 -35 166q-18 -106 -32 -166l-248 -946h-328l-446 1483h307l254 -957q18 -68 43 -227q23 129 49 227l258 957h289l258 -957q27 -98 49 -227q18 131 43 227l254 957h307l-446 -1483h-328
z" />
    <glyph glyph-name="wdieresis" unicode="&#x1e85;" horiz-adv-x="1673" 
d="M905 1241v250h269v-250h-269zM498 1241v250h268v-250h-268zM1030 0l-158 557q-25 76 -36 158q-18 -92 -37 -158l-160 -557h-281l-342 1051h293l158 -576q18 -66 35 -164q25 119 39 164l164 576h264l159 -576q25 -98 39 -170q18 109 37 170l162 576h291l-344 -1051h-283z
" />
    <glyph glyph-name="Ygrave" unicode="&#x1ef2;" horiz-adv-x="1308" 
d="M586 1581l-303 324h323l193 -324h-213zM510 0v563l-502 920h334l219 -467q70 -150 92 -217q29 80 95 217l219 467h333l-501 -920v-563h-289z" />
    <glyph glyph-name="ygrave" unicode="&#x1ef3;" horiz-adv-x="1075" 
d="M471 1204l-303 324h324l192 -324h-213zM106 -479q-63 0 -106 14v229q41 -8 94 -8q119 0 185 43t118 185l-389 1067h305l191 -621q23 -80 37 -162q20 102 41 162l200 621h285l-377 -1061q-92 -258 -223 -364q-132 -105 -361 -105z" />
    <glyph glyph-name="endash" unicode="&#x2013;" horiz-adv-x="1024" 
d="M53 487v246h918v-246h-918z" />
    <glyph glyph-name="emdash" unicode="&#x2014;" horiz-adv-x="1638" 
d="M53 487v246h1532v-246h-1532z" />
    <glyph glyph-name="uni2015" unicode="&#x2015;" horiz-adv-x="1638" 
d="M53 487v246h1532v-246h-1532z" />
    <glyph glyph-name="quoteleft" unicode="&#x2018;" horiz-adv-x="602" 
d="M299 993q-90 0 -132 33t-42 111q0 166 182 362l49 53h160l-121 -286l62 -273h-158z" />
    <glyph glyph-name="quoteright" unicode="&#x2019;" horiz-adv-x="602" 
d="M303 1552q90 0 132 -32t42 -111q0 -166 -182 -362l-49 -54h-160l121 287l-62 272h158z" />
    <glyph glyph-name="quotesinglbase" unicode="&#x201a;" horiz-adv-x="602" 
d="M303 221q90 0 132 -33t42 -110q0 -166 -182 -363l-49 -53h-160l121 287l-62 272h158z" />
    <glyph glyph-name="quotedblleft" unicode="&#x201c;" horiz-adv-x="1073" 
d="M770 993q-90 0 -132 33t-42 111q0 166 182 362l49 53h160l-121 -286l62 -273h-158zM299 993q-90 0 -132 33t-42 111q0 166 182 362l49 53h160l-121 -286l62 -273h-158z" />
    <glyph glyph-name="quotedblright" unicode="&#x201d;" horiz-adv-x="1073" 
d="M774 1552q90 0 132 -32t42 -111q0 -166 -182 -362l-49 -54h-160l121 287l-62 272h158zM303 1552q90 0 132 -32t42 -111q0 -166 -182 -362l-49 -54h-160l121 287l-62 272h158z" />
    <glyph glyph-name="quotedblbase" unicode="&#x201e;" horiz-adv-x="1073" 
d="M774 221q90 0 132 -33t42 -110q0 -166 -182 -363l-49 -53h-160l121 287l-62 272h158zM303 221q90 0 132 -33t42 -110q0 -166 -182 -363l-49 -53h-160l121 287l-62 272h158z" />
    <glyph glyph-name="dagger" unicode="&#x2020;" horiz-adv-x="956" 
d="M94 1004v200h295q-27 82 -27 189v90h232v-90q0 -98 -29 -189h297v-200h-297q29 -90 29 -189v-289h-232v289q0 106 27 189h-295z" />
    <glyph glyph-name="daggerdbl" unicode="&#x2021;" horiz-adv-x="956" 
d="M94 1012v200h295q-27 82 -27 189v82h232v-82q0 -98 -29 -189h297v-200h-274v-238h274v-201h-297q29 -90 29 -188v-82h-232v82q0 106 27 188h-295v201h275v238h-275z" />
    <glyph glyph-name="bullet" unicode="&#x2022;" horiz-adv-x="1269" 
d="M221 193v1097l950 -549z" />
    <glyph glyph-name="ellipsis" unicode="&#x2026;" horiz-adv-x="1951" 
d="M1442 0v303h321v-303h-321zM805 0v303h321v-303h-321zM188 0v303h322v-303h-322z" />
    <glyph glyph-name="perthousand" unicode="&#x2030;" horiz-adv-x="3129" 
d="M524 0l901 1483h246l-901 -1483h-246zM1661 172q84 0 127 62t43 168t-43 170q-43 62 -127 62t-127 -62t-43 -168t43 -170q43 -62 127 -62zM1658 -25q-204 0 -306 118t-102 308q0 191 104 311q106 120 310 120t306 -118t102 -308t-104 -311q-106 -120 -310 -120zM535 848
q84 0 127 62t43 168t-43 170q-43 62 -127 62t-127 -62t-43 -168t43 -170q43 -62 127 -62zM532 651q-204 0 -307 118q-102 118 -102 308q0 191 105 311q106 120 310 120t306 -118t102 -308t-105 -311q-105 -120 -309 -120zM2595 172q84 0 127 62t43 168t-43 170
q-43 62 -127 62t-127 -62t-43 -168t43 -170q43 -62 127 -62zM2592 -25q-204 0 -306 118t-102 308q0 191 104 311q106 120 310 120t306 -118t102 -308t-105 -311q-105 -120 -309 -120z" />
    <glyph glyph-name="guilsinglleft" unicode="&#x2039;" horiz-adv-x="843" 
d="M475 233l-348 381l348 381h242l-281 -381l281 -381h-242z" />
    <glyph glyph-name="guilsinglright" unicode="&#x203a;" horiz-adv-x="843" 
d="M127 233l281 381l-281 381h242l348 -381l-348 -381h-242z" />
    <glyph glyph-name="fraction" unicode="&#x2044;" horiz-adv-x="260" 
d="M-412 0l863 1483h217l-861 -1483h-219z" />
    <glyph glyph-name="uni2070" unicode="&#x2070;" horiz-adv-x="897" 
d="M446 897q133 0 134 254q0 131 -32 192t-102 61t-102 -60q-32 -62 -31 -193q0 -254 133 -254zM449 739q-201 0 -275 108t-74 300q0 303 173 385q71 33 173 33q201 0 275 -108t74 -300q0 -303 -173 -385q-71 -33 -173 -33z" />
    <glyph glyph-name="uni2074" unicode="&#x2074;" horiz-adv-x="897" 
d="M469 1018v160q0 74 8 116q-41 -75 -96 -143l-107 -133h195zM469 752v125h-416v122l434 553h195v-534h147v-141h-147v-125h-213z" />
    <glyph glyph-name="uni2075" unicode="&#x2075;" horiz-adv-x="897" 
d="M760 993q0 -115 -83 -185t-264 -69q-181 0 -270 52v161q99 -47 247 -47t149 82q0 106 -371 113l16 452h555v-166h-346l-6 -126q373 -33 373 -267z" />
    <glyph glyph-name="uni2076" unicode="&#x2076;" horiz-adv-x="897" 
d="M453 1133q-76 0 -131 -35q4 -203 135 -203q63 0 95 33t32 88q0 117 -131 117zM516 1292q120 0 199 -72q80 -72 80 -202q0 -129 -92 -204t-249 -75q-157 1 -250 97t-93 298t108 317q109 114 305 114q139 0 221 -41v-164q-91 47 -207 47t-158 -44t-52 -134q68 63 188 63z
" />
    <glyph glyph-name="uni2077" unicode="&#x2077;" horiz-adv-x="897" 
d="M133 1386v166h629v-129l-313 -671h-230l303 634h-389z" />
    <glyph glyph-name="uni2078" unicode="&#x2078;" horiz-adv-x="897" 
d="M449 1235q51 0 79 27t29 71q1 84 -111 84t-112 -84q0 -43 32 -71t83 -27zM315 987q-1 -43 35 -67t98 -25q62 0 97 25q35 26 35 68t-35 72t-97 30t-98 -30t-35 -73zM449 739q-171 -1 -263 61t-92 167q0 152 166 204q-133 51 -133 181q0 102 85 157t237 55q151 0 235 -54
q84 -56 84 -158q0 -129 -125 -181q158 -51 158 -204q0 -104 -90 -166t-262 -62z" />
    <glyph glyph-name="uni2079" unicode="&#x2079;" horiz-adv-x="897" 
d="M442 1178q80 0 131 34q-6 195 -134 195t-128 -117q0 -112 131 -112zM371 737q-139 0 -221 41v164q90 -47 206 -47t159 44q42 44 52 134v8q-67 -63 -187 -63t-200 71t-80 199t91 202q91 73 249 73q158 -1 251 -97t93 -298t-108 -317q-108 -114 -305 -114z" />
    <glyph glyph-name="uni2080" unicode="&#x2080;" horiz-adv-x="897" 
d="M446 -150q133 0 134 254q0 130 -32 192t-102 62t-102 -61t-31 -193q0 -254 133 -254zM449 -307q-201 -1 -275 107t-74 300q0 303 173 385q71 33 173 33q201 0 275 -108t74 -299q0 -303 -173 -385q-71 -33 -173 -33z" />
    <glyph glyph-name="uni2081" unicode="&#x2081;" horiz-adv-x="897" 
d="M141 -295v168h203v444l-203 -45v177l277 57h139v-633h203v-168h-619z" />
    <glyph glyph-name="uni2082" unicode="&#x2082;" horiz-adv-x="897" 
d="M98 -295v152l146 94q158 102 221 167t63 132q0 100 -161 100q-131 0 -254 -59v155q123 72 293 72t256 -75q88 -75 88 -183q0 -199 -318 -387h363v-168h-697z" />
    <glyph glyph-name="uni2083" unicode="&#x2083;" horiz-adv-x="897" 
d="M410 -307q-184 0 -275 51v160q106 -45 272 -45t166 86q0 45 -47 73t-141 29h-113v148h113q74 0 127 18t53 57q0 82 -147 82t-264 -47v156q124 57 282 57t254 -62t96 -155q0 -133 -139 -184q145 -51 146 -189q1 -111 -99 -173t-284 -62z" />
    <glyph glyph-name="uni2084" unicode="&#x2084;" horiz-adv-x="897" 
d="M469 -29v160q0 74 8 117q-41 -76 -96 -144l-107 -133h195zM469 -295v125h-416v123l434 553h195v-535h147v-141h-147v-125h-213z" />
    <glyph glyph-name="uni2085" unicode="&#x2085;" horiz-adv-x="897" 
d="M760 -53q0 -115 -83 -185t-264 -69q-181 0 -270 51v162q99 -47 247 -47t149 82q0 106 -371 112l16 453h555v-166h-346l-6 -127q373 -33 373 -266z" />
    <glyph glyph-name="uni2086" unicode="&#x2086;" horiz-adv-x="897" 
d="M453 86q-76 0 -131 -35q4 -203 135 -203q63 0 95 33t32 88q0 117 -131 117zM795 -29q0 -129 -92 -203t-249 -75q-157 0 -250 96t-93 299q1 202 109 316t304 114q139 0 221 -41v-164q-91 47 -207 47t-158 -44t-52 -134q68 64 188 64t199 -73q80 -73 80 -202z" />
    <glyph glyph-name="uni2087" unicode="&#x2087;" horiz-adv-x="897" 
d="M133 340v166h629v-129l-313 -672h-230l303 635h-389z" />
    <glyph glyph-name="uni2088" unicode="&#x2088;" horiz-adv-x="897" 
d="M449 188q51 0 79 27t29 72q1 84 -111 84t-112 -84q0 -43 32 -71t83 -28zM580 -59q0 43 -35 73t-97 29q-62 0 -98 -30q-36 -31 -35 -73q-1 -42 35 -67t98 -25t97 25t35 68zM449 -307q-172 0 -264 61q-91 61 -91 166q0 152 166 205q-133 51 -133 180q0 101 85 157t237 56
q151 0 235 -55t84 -158q0 -129 -125 -180q158 -51 158 -205q0 -104 -90 -166t-262 -61z" />
    <glyph glyph-name="uni2089" unicode="&#x2089;" horiz-adv-x="897" 
d="M442 131q80 0 131 35q-6 195 -135 194q-127 0 -127 -114t131 -115zM371 -309q-139 0 -221 41v164q90 -48 206 -48t159 44q42 44 52 135v8q-67 -63 -187 -63t-200 70q-80 71 -80 200q0 130 91 202t249 72t251 -96t93 -299t-108 -317t-305 -113z" />
    <glyph glyph-name="uni20A1" unicode="&#x20a1;" 
d="M451 758q0 -312 104 -439l47 875q-151 -124 -151 -436zM817 1266h-18l-54 -1045q37 -6 82 -6h43l2 6l54 1041q-70 4 -109 4zM790 -33q-39 0 -53 2l-8 -159h-207l10 198q-190 72 -286 262t-96 480t116 488q116 196 344 255l11 180h206l-8 -157q109 -6 113 -7l10 164h207
l-12 -209q51 -20 88 -39v-239q-59 27 -107 41l-51 -991q78 16 174 55v-240q-94 -41 -180 -59l-10 -182h-207l8 159q-23 -2 -62 -2z" />
    <glyph glyph-name="uni20A4" unicode="&#x20a4;" 
d="M197 842v213h178v37q0 200 123 312t338 112q147 0 260 -46v-221q-94 33 -206 33t-169 -55t-57 -158v-14h403v-213h-403v-197h403v-213h-403v-20q0 -129 -74 -179h639v-233h-1069v209h37q88 0 133 59t45 156v8h-178v213h178v197h-178z" />
    <glyph glyph-name="uni20A6" unicode="&#x20a6;" 
d="M936 627v215h-174l98 -215q41 -96 92 -246q-16 158 -16 246zM422 856v-211h172l-96 211q-41 90 -103 289q27 -195 27 -289zM41 842v213h125v428h303l195 -428h272v428h256v-428h125v-213h-125v-197h125v-213h-125v-432h-303l-199 432h-268v-432h-256v432h-125v213h125
v197h-125z" />
    <glyph glyph-name="uni20A8" unicode="&#x20a8;" 
d="M391 1315h-80v-492h80q86 -1 123 57t37 196t-36 188t-124 51zM82 0v1483h334q194 -1 280 -99t86 -307q0 -141 -55 -242t-147 -133q33 -27 45 -71l84 -303q27 -94 71 -137q46 -41 128 -41t128 30t45 87q0 58 -29 97q-30 38 -113 91t-129 114t-46 165t77 186q77 80 225 80
t208 -48v-174q-61 43 -172 43t-111 -96q0 -63 114 -142t159 -144t45 -183q1 -118 -97 -202q-98 -85 -309 -85t-300 80q-46 41 -71 88t-43 121l-83 322q-10 43 -30 60t-59 17h-6v-657h-229z" />
    <glyph glyph-name="uni20A9" unicode="&#x20a9;" 
d="M383 188q0 125 20 277l5 29h-62l4 -29q20 -152 21 -277h12zM989 188q0 125 21 277l4 29h-62l4 -29q20 -152 21 -277h12zM653 1018l-4 -33h62l-4 33q-20 152 -21 276h-12q-1 -124 -21 -276zM911 811l19 -143h106l19 143h-144zM305 811l19 -143h106l19 143h-144zM627 811
l-19 -143h144l-19 143h-106zM20 803v190h66l-80 490h213l64 -498h188l64 498h290l64 -498h188l64 498h213l-82 -490h65v-190h-96l-20 -127h116v-191h-147l-80 -485h-272l-64 494h-188l-64 -494h-272l-80 485h-150v191h117l-20 127h-97z" />
    <glyph glyph-name="uni20AA" unicode="&#x20aa;" 
d="M137 0v1483h395q238 0 315 -77t77 -314v-811h-189v870q0 92 -37 129t-129 37h-243v-1317h-189zM825 0q-239 0 -315 77t-76 314v811h189v-870q1 -92 37 -129t128 -37h244v1317h189v-1483h-396z" />
    <glyph glyph-name="uni20AB" unicode="&#x20ab;" 
d="M659 496q125 0 207 51v282q-86 53 -215 53t-181 -45q-52 -46 -52 -145q-1 -198 241 -196zM152 0v201h1001v-201h-1001zM682 1214v201h184v68h287v-68h117v-201h-117v-927h-246l-26 100q-115 -133 -322 -133t-321 116t-113 320q0 204 114 320q115 114 315 114t312 -90v180
h-184z" />
    <glyph glyph-name="Euro" unicode="&#x20ac;" 
d="M90 840v196h154q59 224 215 352q157 128 397 128t395 -72v-236q-154 66 -374 66q-260 0 -345 -238h553v-196h-593q-8 -110 0 -181h593v-196h-563q39 -139 127 -197t238 -59q219 0 383 63v-231q-180 -72 -428 -72t-400 128t-204 368h-148v196h121q-2 29 -2 75t4 106h-123z
" />
    <glyph glyph-name="uni20AD" unicode="&#x20ad;" 
d="M66 645v213h108v625h289v-652l502 652h354l-406 -512q-47 -59 -114 -113h387v-213h-375q68 -53 111 -106l434 -539h-355l-538 674v-674h-289v645h-108z" />
    <glyph glyph-name="uni20AE" unicode="&#x20ae;" 
d="M823 0h-288v242l-273 -92v227l273 92v217l-273 -92v227l273 92v332h-383v238h1054v-238h-383v-231l273 94v-227l-273 -95v-217l273 95v-228l-273 -94v-342z" />
    <glyph glyph-name="uni20B1" unicode="&#x20b1;" 
d="M621 563q180 0 235 111h-395v-111h160zM645 1270h-184v-111h399q-53 111 -215 111zM887 918q0 45 -2 65h-424v-133h424q2 23 2 68zM53 975v192h121v316h485q209 0 326 -77t160 -239h147v-192h-125v-53q0 -43 -2 -64h127v-192h-149q-47 -162 -170 -240t-336 -78h-176v-348
h-287v666h-121v192h121v117h-121z" />
    <glyph glyph-name="uni20B2" unicode="&#x20b2;" 
d="M362 732q0 -408 218 -496v1005q-218 -101 -218 -509zM573 -190v170q-494 78 -493 768q0 314 127 510t366 243v172h226v-160q205 -12 342 -92v-237q-147 78 -348 88v-1065q88 2 155 20v484h275v-639q-195 -88 -424 -103v-159h-226z" />
    <glyph glyph-name="uni20B4" unicode="&#x20b4;" 
d="M756 -33q-311 0 -462 123t-151 330q0 43 4 65h-127v191h211q74 82 256 127h-467v190h850q23 31 23 84q0 195 -256 195t-422 -80v238q133 86 427 86t426 -115t132 -324q0 -45 -6 -84h143v-190h-245q-53 -53 -129 -80t-189 -47h563v-191h-870q-14 -29 -14 -71
q0 -203 323 -203q268 0 432 80v-238q-141 -86 -452 -86z" />
    <glyph glyph-name="uni20B5" unicode="&#x20b5;" 
d="M451 748q0 -238 63 -362t195 -159v1024q-258 -75 -258 -503zM709 -190v161q-279 23 -419 226t-140 540t142 539t417 233v164h227v-166q174 -18 289 -82v-239q-121 59 -289 74v-1043q158 10 305 74v-240q-143 -61 -305 -78v-163h-227z" />
    <glyph glyph-name="uni2113" unicode="&#x2113;" horiz-adv-x="1056" 
d="M502 1116v-436q176 94 176 407q0 197 -88 197t-88 -168zM566 -29q-188 -1 -266 93q-79 94 -79 286v49l-123 -30v184l123 37v514q1 184 103 294t268 110t266 -94q100 -93 100 -305t-120 -385t-336 -249v-106q0 -84 30 -119t127 -35q96 0 181 39v-219q-86 -64 -274 -64z
" />
    <glyph glyph-name="uni2116" unicode="&#x2116;" horiz-adv-x="2684" 
d="M1665 170v225h926v-225h-926zM2128 782q209 0 209 259t-209 259t-209 -259t209 -259zM2125 586q-228 0 -338 121t-110 333t113 333q113 122 340 122t338 -121q110 -121 110 -333q0 -211 -112 -333t-341 -122zM184 0v1483h293l537 -856q51 -80 112 -226q-16 137 -16 226
v856h276v-1483h-292l-537 856q-51 80 -115 225q18 -158 19 -225v-856h-277z" />
    <glyph glyph-name="uni2117" unicode="&#x2117;" horiz-adv-x="1781" 
d="M926 985h-107v-235h86q63 0 96 34t33 86q1 115 -108 115zM602 322v829h338q317 0 317 -281q0 -137 -85 -214t-244 -76h-109v-258h-217zM891 131q276 0 419 165q142 166 142 446t-142 445t-418 165t-420 -165q-142 -165 -142 -446t142 -445t419 -165zM891 -33
q-352 0 -558 217t-206 557t206 557q206 218 558 218t558 -218t206 -557q0 -340 -206 -557t-558 -217z" />
    <glyph glyph-name="trademark" unicode="&#x2122;" horiz-adv-x="1892" 
d="M74 1325v158h651v-158h-231v-588h-189v588h-231zM831 737v746h230l145 -256q45 -80 66 -144q31 84 67 144l146 256h217v-746h-178v299q0 119 12 232q-23 -53 -123 -232l-72 -125h-149l-72 125q-94 158 -125 232q14 -133 15 -232v-299h-179z" />
    <glyph glyph-name="Omega" unicode="&#x2126;" horiz-adv-x="1585" 
d="M793 1272q-350 0 -351 -502q0 -412 269 -588v-182h-605v238h259q-221 197 -222 567q0 287 151 490q75 101 204 161t297 60t297 -58q130 -58 204 -158q146 -200 146 -495q0 -371 -223 -567h260v-238h-605v182q268 176 269 588q0 502 -350 502z" />
    <glyph glyph-name="uni212E" unicode="&#x212e;" horiz-adv-x="1781" 
d="M885 1372q-219 0 -353 -115v-426h705v437q-133 104 -352 104zM911 -33q-352 0 -558 217t-206 559t197 557q197 216 547 216t547 -216t196 -559q0 -33 -2 -47h-1100v-458q143 -125 379 -125q161 0 305 59t222 156l98 -103q-100 -119 -264 -187t-361 -69z" />
    <glyph glyph-name="uni2153" unicode="&#x2153;" horiz-adv-x="2054" 
d="M1568 -12q-184 0 -276 51v160q106 -45 272 -45t167 86q1 46 -47 74t-142 28h-112v147h112q74 1 127 19t53 57q0 82 -147 82t-264 -47v156q123 57 281 57t255 -62q96 -62 97 -155q0 -133 -140 -184q145 -51 146 -189q0 -111 -100 -173q-98 -62 -282 -62zM485 0l863 1483
h217l-860 -1483h-220zM141 682v168h203v444l-203 -45v176l277 58h139v-633h203v-168h-619z" />
    <glyph glyph-name="uni2154" unicode="&#x2154;" horiz-adv-x="2054" 
d="M1568 -12q-184 0 -276 51v160q106 -45 272 -45t167 86q1 46 -47 74t-142 28h-112v147h112q74 1 127 19t53 57q0 82 -147 82t-264 -47v156q123 57 281 57t255 -62q96 -62 97 -155q0 -133 -140 -184q145 -51 146 -189q0 -111 -100 -173q-98 -62 -282 -62zM485 0l863 1483
h217l-860 -1483h-220zM98 682v152l146 94q158 102 221 167t63 132q0 100 -161 100q-131 0 -254 -59v155q123 72 293 72t256 -75q88 -75 88 -183q0 -203 -318 -387h363v-168h-697z" />
    <glyph glyph-name="uni2155" unicode="&#x2155;" horiz-adv-x="2054" 
d="M1917 242q0 -114 -83 -184t-264 -70t-270 51v162q100 -47 248 -47t148 82q0 106 -371 112l16 453h555v-166h-346l-6 -127q373 -33 373 -266zM485 0l863 1483h217l-860 -1483h-220zM141 682v168h203v444l-203 -45v176l277 58h139v-633h203v-168h-619z" />
    <glyph glyph-name="uni2156" unicode="&#x2156;" horiz-adv-x="2054" 
d="M1917 242q0 -114 -83 -184t-264 -70t-270 51v162q100 -47 248 -47t148 82q0 106 -371 112l16 453h555v-166h-346l-6 -127q373 -33 373 -266zM485 0l863 1483h217l-860 -1483h-220zM98 682v152l146 94q158 102 221 167t63 132q0 100 -161 100q-131 0 -254 -59v155
q123 72 293 72t256 -75q88 -75 88 -183q0 -203 -318 -387h363v-168h-697z" />
    <glyph glyph-name="uni2157" unicode="&#x2157;" horiz-adv-x="2054" 
d="M1917 242q0 -114 -83 -184t-264 -70t-270 51v162q100 -47 248 -47t148 82q0 106 -371 112l16 453h555v-166h-346l-6 -127q373 -33 373 -266zM485 0l863 1483h217l-860 -1483h-220zM410 670q-184 0 -275 51v160q106 -45 272 -45t166 86q0 46 -47 74t-141 28h-113v147h113
q74 1 127 19t53 57q0 82 -147 82t-264 -47v156q124 57 282 57t254 -62t96 -155q0 -133 -139 -184q145 -51 146 -189q1 -111 -99 -173t-284 -62z" />
    <glyph glyph-name="uni2158" unicode="&#x2158;" horiz-adv-x="2054" 
d="M1917 242q0 -114 -83 -184t-264 -70t-270 51v162q100 -47 248 -47t148 82q0 106 -371 112l16 453h555v-166h-346l-6 -127q373 -33 373 -266zM485 0l863 1483h217l-860 -1483h-220zM469 948v160q0 74 8 117q-41 -76 -96 -144l-107 -133h195zM469 682v125h-416v123l434 553
h195v-535h147v-141h-147v-125h-213z" />
    <glyph glyph-name="uni2159" unicode="&#x2159;" horiz-adv-x="2054" 
d="M1610 381q-76 0 -131 -35q4 -203 135 -203q63 0 95 33t32 88q0 117 -131 117zM1952 266q0 -130 -92 -204t-249 -74t-250 96t-93 299t108 317t305 113q139 0 222 -41v-164q-91 47 -207 47t-158 -44t-53 -134q67 63 187 63t200 -72q80 -73 80 -202zM485 0l863 1483h217
l-860 -1483h-220zM141 682v168h203v444l-203 -45v176l277 58h139v-633h203v-168h-619z" />
    <glyph glyph-name="uni215A" unicode="&#x215a;" horiz-adv-x="2054" 
d="M1610 381q-76 0 -131 -35q4 -203 135 -203q63 0 95 33t32 88q0 117 -131 117zM1952 266q0 -130 -92 -204t-249 -74t-250 96t-93 299t108 317t305 113q139 0 222 -41v-164q-91 47 -207 47t-158 -44t-53 -134q67 63 187 63t200 -72q80 -73 80 -202zM485 0l863 1483h217
l-860 -1483h-220zM760 924q0 -114 -83 -184t-264 -70t-270 51v162q99 -47 247 -47t149 82q0 106 -371 112l16 453h555v-166h-346l-6 -127q373 -33 373 -266z" />
    <glyph glyph-name="uni215B" unicode="&#x215b;" horiz-adv-x="2054" 
d="M1606 483q51 0 80 27t28 72q0 84 -112 84t-111 -84q0 -43 32 -71t83 -28zM1737 236q0 42 -35 72t-97 30q-61 0 -97 -30t-36 -72t36 -68q35 -25 97 -25t97 25t35 68zM1606 -12q-172 0 -264 61q-91 61 -91 166q0 152 166 205q-133 51 -133 180q0 102 85 158t237 55
q152 0 236 -55t83 -158q0 -129 -125 -180q158 -51 158 -205q0 -103 -90 -165t-262 -62zM485 0l863 1483h217l-860 -1483h-220zM141 682v168h203v444l-203 -45v176l277 58h139v-633h203v-168h-619z" />
    <glyph glyph-name="uni215C" unicode="&#x215c;" horiz-adv-x="2054" 
d="M1606 483q51 0 80 27t28 72q0 84 -112 84t-111 -84q0 -43 32 -71t83 -28zM1737 236q0 42 -35 72t-97 30q-61 0 -97 -30t-36 -72t36 -68q35 -25 97 -25t97 25t35 68zM1606 -12q-172 0 -264 61q-91 61 -91 166q0 152 166 205q-133 51 -133 180q0 102 85 158t237 55
q152 0 236 -55t83 -158q0 -129 -125 -180q158 -51 158 -205q0 -103 -90 -165t-262 -62zM485 0l863 1483h217l-860 -1483h-220zM410 670q-184 0 -275 51v160q106 -45 272 -45t166 86q0 46 -47 74t-141 28h-113v147h113q74 1 127 19t53 57q0 82 -147 82t-264 -47v156
q124 57 282 57t254 -62t96 -155q0 -133 -139 -184q145 -51 146 -189q1 -111 -99 -173t-284 -62z" />
    <glyph glyph-name="uni215D" unicode="&#x215d;" horiz-adv-x="2054" 
d="M1606 483q51 0 80 27t28 72q0 84 -112 84t-111 -84q0 -43 32 -71t83 -28zM1737 236q0 42 -35 72t-97 30q-61 0 -97 -30t-36 -72t36 -68q35 -25 97 -25t97 25t35 68zM1606 -12q-172 0 -264 61q-91 61 -91 166q0 152 166 205q-133 51 -133 180q0 102 85 158t237 55
q152 0 236 -55t83 -158q0 -129 -125 -180q158 -51 158 -205q0 -103 -90 -165t-262 -62zM485 0l863 1483h217l-860 -1483h-220zM760 924q0 -114 -83 -184t-264 -70t-270 51v162q99 -47 247 -47t149 82q0 106 -371 112l16 453h555v-166h-346l-6 -127q373 -33 373 -266z" />
    <glyph glyph-name="uni215E" unicode="&#x215e;" horiz-adv-x="2054" 
d="M1606 483q51 0 80 27t28 72q0 84 -112 84t-111 -84q0 -43 32 -71t83 -28zM1737 236q0 42 -35 72t-97 30q-61 0 -97 -30t-36 -72t36 -68q35 -25 97 -25t97 25t35 68zM1606 -12q-172 0 -264 61q-91 61 -91 166q0 152 166 205q-133 51 -133 180q0 102 85 158t237 55
q152 0 236 -55t83 -158q0 -129 -125 -180q158 -51 158 -205q0 -103 -90 -165t-262 -62zM485 0l863 1483h217l-860 -1483h-220zM133 1317v166h629v-129l-313 -672h-230l303 635h-389z" />
    <glyph glyph-name="uni2190" unicode="&#x2190;" horiz-adv-x="1871" 
d="M1798 858v-237h-1270l453 -453l-166 -168l-741 741l741 742l166 -168l-457 -457h1274z" />
    <glyph glyph-name="uni2191" unicode="&#x2191;" horiz-adv-x="1871" 
d="M1057 -147h-246v1271l-453 -450l-163 162l741 741l741 -741l-166 -162l-454 454v-1275z" />
    <glyph glyph-name="uni2192" unicode="&#x2192;" horiz-adv-x="1871" 
d="M74 625v237h1269l-452 453l166 168l741 -742l-741 -741l-166 168l457 457h-1274z" />
    <glyph glyph-name="uni2193" unicode="&#x2193;" horiz-adv-x="1871" 
d="M815 1552h246v-1271l452 450l164 -162l-741 -741l-741 741l165 162l455 -455v1276z" />
    <glyph glyph-name="uni2196" unicode="&#x2196;" horiz-adv-x="1871" 
d="M518 365h-235v1048h1048v-227h-645l905 -903l-170 -170l-903 901v-649z" />
    <glyph glyph-name="uni2197" unicode="&#x2197;" horiz-adv-x="1871" 
d="M543 1186v227h1048v-1048h-235v649l-903 -901l-170 170l905 903h-645z" />
    <glyph glyph-name="uni2198" unicode="&#x2198;" horiz-adv-x="1871" 
d="M543 113v227h645l-905 903l170 170l903 -901v649h235v-1048h-1048z" />
    <glyph glyph-name="uni2199" unicode="&#x2199;" horiz-adv-x="1871" 
d="M283 113v1048h235v-649l903 901l170 -170l-905 -903h645v-227h-1048z" />
    <glyph glyph-name="partialdiff" unicode="&#x2202;" horiz-adv-x="1216" 
d="M608 195q236 0 236 302t-236 302t-236 -302t236 -302zM608 -33q-524 0 -524 529q0 229 123 367t340 138q86 0 172 -40q-92 133 -217 239t-244 170l115 133q303 -105 525 -358q108 -123 171 -283t64 -330q1 -262 -125 -414t-400 -151z" />
    <glyph glyph-name="Delta" unicode="&#x2206;" horiz-adv-x="1447" 
d="M641 979l-295 -741h737l-295 741q-43 102 -73 231q-27 -116 -74 -231zM57 0v221l512 1262h310l512 -1262v-221h-1334z" />
    <glyph glyph-name="product" unicode="&#x220f;" horiz-adv-x="1544" 
d="M1055 -467v1712h-566v-1712h-288v1950h1142v-1950h-288z" />
    <glyph glyph-name="summation" unicode="&#x2211;" horiz-adv-x="1218" 
d="M90 -467v221l533 754l-533 754v221h1038v-238h-702l465 -655v-164l-465 -655h702v-238h-1038z" />
    <glyph glyph-name="minus" unicode="&#x2212;" horiz-adv-x="1228" 
d="M61 487v246h1106v-246h-1106z" />
    <glyph glyph-name="radical" unicode="&#x221a;" horiz-adv-x="1343" 
d="M41 817v234h418l190 -623q23 -80 37 -162q20 102 41 162l356 1055h285l-530 -1483h-303l-297 817h-197z" />
    <glyph glyph-name="infinity" unicode="&#x221e;" horiz-adv-x="2146" 
d="M1567 371q85 0 138 63q52 63 52 178q0 114 -52 178q-51 64 -137 64t-158 -60t-179 -182q107 -121 179 -181t157 -60zM582 854q-86 0 -138 -64q-51 -65 -51 -178q0 -114 51 -178q52 -64 138 -64t162 62q76 61 178 180q-104 122 -179 182t-161 60zM567 129q-190 0 -313 133
t-123 350q0 216 123 350t313 134q133 0 252 -82t256 -228q131 146 250 228t250 82q190 0 315 -133t125 -351t-125 -350q-125 -133 -315 -133q-131 0 -250 82t-250 227q-137 -145 -256 -227t-252 -82z" />
    <glyph glyph-name="integral" unicode="&#x222b;" horiz-adv-x="948" 
d="M135 -479q-70 0 -115 18v225q41 -8 86 -8q219 0 220 285v1014q0 264 125 393t346 129q70 0 114 -18v-226q-41 8 -86 8q-219 0 -219 -284v-1014q0 -264 -125 -393t-346 -129z" />
    <glyph glyph-name="approxequal" unicode="&#x2248;" horiz-adv-x="1228" 
d="M813 195q-96 0 -212 45t-167 45t-83 -24t-34 -60h-231q0 147 94 238t234 91q96 0 215 -45t171 -45t84 23t31 61h232q1 -147 -97 -238t-237 -91zM813 684q-96 0 -212 45t-167 45t-83 -24t-34 -60h-231q0 146 94 238t234 92q96 0 215 -45t171 -45t84 22t31 62h232
q0 -147 -97 -239q-98 -91 -237 -91z" />
    <glyph glyph-name="notequal" unicode="&#x2260;" horiz-adv-x="1228" 
d="M86 731v230h614l121 215h215l-121 -215h228v-230h-355l-135 -246h490v-229h-617l-116 -211h-217l116 211h-223v229h350l137 246h-487z" />
    <glyph glyph-name="lessequal" unicode="&#x2264;" horiz-adv-x="1228" 
d="M82 0v246h1065v-246h-1065zM711 381l-590 432l590 432h385l-582 -432l582 -432h-385z" />
    <glyph glyph-name="greaterequal" unicode="&#x2265;" horiz-adv-x="1228" 
d="M82 0v246h1065v-246h-1065zM129 381l582 432l-582 432h385l590 -432l-590 -432h-385z" />
    <glyph glyph-name="uni2300" unicode="&#x2300;" horiz-adv-x="1486" 
d="M1114 741q0 102 -49 191l-514 -514q86 -51 192 -51q156 0 264 108q107 108 107 266zM373 741q0 -106 49 -190l512 512q-84 53 -191 53q-156 0 -263 -108t-107 -267zM152 741q0 246 170 417t421 171q195 0 349 -108l139 139l131 -131l-139 -139q113 -152 112 -349
q0 -247 -170 -417t-422 -170q-199 0 -348 108l-139 -139l-131 131l137 137q-110 155 -110 350z" />
    <glyph glyph-name="uni25AA" unicode="&#x25aa;" horiz-adv-x="770" 
d="M172 414v399h426v-399h-426z" />
    <glyph glyph-name="uni25BA" unicode="&#x25ba;" horiz-adv-x="1269" 
d="M221 193v1097l950 -549z" />
    <glyph glyph-name="uni25C0" unicode="&#x25c0;" horiz-adv-x="1269" 
d="M1049 193l-951 548l951 549v-1097z" />
    <glyph glyph-name="uni25C6" unicode="&#x25c6;" horiz-adv-x="1269" 
d="M1200 741l-565 -565l-565 565l565 566z" />
    <glyph glyph-name="lozenge" unicode="&#x25ca;" horiz-adv-x="1527" 
d="M936 0h-344l-500 741l500 742h344l500 -742zM391 741l373 -553l373 553l-373 553z" />
    <glyph glyph-name="uni5143" unicode="&#x5143;" horiz-adv-x="2048" 
d="M362 1245v238h1324v-238h-1324zM135 748v237h1763v-237h-522v-498q0 -59 26 -87t104 -28q156 0 155 146v159l266 -49v-123q0 -196 -103 -276q-102 -80 -328 -80t-317 71t-92 255v510h-256q-80 -635 -595 -869l-148 197q375 184 444 672h-397z" />
    <glyph glyph-name="uni5186" unicode="&#x5186;" horiz-adv-x="2048" 
d="M530 1257v-507h357v507h-357zM1155 1257v-507h363v507h-363zM242 -88v1571h1562v-1223q0 -215 -84 -282t-356 -66h-70l-43 238h101q92 0 129 28t37 94v256h-988v-616h-288z" />
    <glyph glyph-name="section.alt01" unicode="&#xf62f;" 
d="M791 10q0 -166 -82 -264q95 43 159 128t64 216q0 180 -117 381l-135 234q-100 177 -100 339t84 261q-94 -43 -160 -128t-66 -216q0 -180 117 -381l135 -234q101 -170 101 -336zM422 -215q76 0 119 46t43 135t-78 220l-158 271q-129 227 -129 465q0 295 181 440
q180 145 438 145t352 -65v-234q-106 57 -240 58q-76 0 -120 -46t-44 -132t78 -224l158 -270q129 -222 129 -442t-86 -355q-162 -254 -526 -254q-258 0 -369 68v233q115 -59 252 -59z" />
    <glyph glyph-name="zero.lntx" unicode="&#xf630;" horiz-adv-x="1478" 
d="M739 205q315 1 315 537t-314 536q-316 0 -316 -536t315 -537zM261 193q-130 205 -130 541t132 549q69 110 190 171q121 62 287 62t288 -58q320 -155 320 -710q0 -166 -32 -303q-112 -478 -578 -478q-334 0 -477 226z" />
    <glyph glyph-name="one.lntx" unicode="&#xf631;" horiz-adv-x="970" 
d="M399 0v1214l-333 -73v245l436 97h186v-1483h-289z" />
    <glyph glyph-name="two.lntx" unicode="&#xf632;" 
d="M119 0v215l313 262q230 191 326 315t96 237t-72 178t-217 65q-211 0 -415 -101v238q172 107 450 107t416 -132q137 -132 137 -338q0 -207 -169 -399q-85 -96 -165 -167t-203 -167l-98 -75h701v-238h-1100z" />
    <glyph glyph-name="three.lntx" unicode="&#xf633;" horiz-adv-x="1273" 
d="M535 -33q-298 0 -437 86v238q164 -80 437 -80q147 0 228 58q81 57 81 159t-85 160t-255 59h-176v246h176q139 0 224 45t85 142q0 96 -77 144t-201 48q-229 0 -402 -84v237q63 39 189 65t237 26q261 0 407 -111t146 -293q0 -229 -221 -338q252 -109 252 -364
q0 -199 -155 -321t-453 -122z" />
    <glyph glyph-name="four.lntx" unicode="&#xf634;" horiz-adv-x="1396" 
d="M786 526v334q0 162 17 273q-59 -124 -141 -228l-304 -379h428zM786 0v291h-753v190l774 1002h268v-957h277v-235h-277v-291h-289z" />
    <glyph glyph-name="five.lntx" unicode="&#xf635;" horiz-adv-x="1318" 
d="M595 -33q-296 0 -435 86v238q164 -80 415 -80q289 0 289 223q0 93 -94 158q-127 88 -463 97q-37 1 -98 3l27 791h884v-238h-604l-12 -313q659 -53 659 -492q0 -211 -136 -342t-432 -131z" />
    <glyph glyph-name="six.lntx" unicode="&#xf636;" horiz-adv-x="1396" 
d="M711 741q-145 0 -275 -90q0 -223 73 -337t203 -116t198 72q68 72 67 199q0 272 -266 272zM1266 486q0 -230 -148 -374t-408 -145q-259 -1 -411 183t-152 524q-1 412 177 626t512 216q211 0 348 -64v-238q-154 70 -346 70t-283 -106q-90 -106 -111 -320q135 115 312 115
q246 0 378 -128q132 -129 132 -359z" />
    <glyph glyph-name="seven.lntx" unicode="&#xf637;" horiz-adv-x="1232" 
d="M98 1245v238h1037v-201l-590 -1282h-312l582 1245h-717z" />
    <glyph glyph-name="eight.lntx" unicode="&#xf638;" horiz-adv-x="1439" 
d="M721 872q111 0 177 62t67 158q0 96 -68 150q-67 54 -177 54t-178 -54t-69 -149q1 -95 69 -158t179 -63zM432 421q0 -99 78 -163t210 -63q132 0 210 63q78 62 78 162t-77 168t-211 68t-211 -68t-77 -167zM1309 395q-1 -190 -153 -309t-436 -119t-436 119t-153 309
q0 133 73 233t216 148q-113 49 -173 138t-61 202q0 190 142 294t392 106q249 0 391 -104t142 -296q0 -115 -57 -203t-168 -137q281 -98 281 -381z" />
    <glyph glyph-name="nine.lntx" unicode="&#xf639;" horiz-adv-x="1396" 
d="M686 762q152 0 275 90q-4 213 -78 322q-74 108 -201 110t-195 -68t-67 -192q0 -262 266 -262zM561 -33q-211 0 -348 64v237q155 -70 349 -70t283 112t109 335q-135 -115 -313 -115q-246 0 -378 125t-132 351q1 226 149 368t407 142t411 -184t151 -523q0 -412 -177 -627
t-511 -215z" />
    <glyph glyph-name="apple" unicode="&#xf8ff;" horiz-adv-x="4673" 
d="M3781 150q245 0 417 173t172 417t-173 418q-173 173 -416 173q-203 0 -361 -123q162 -205 162 -468t-162 -468q158 -122 361 -122zM2818 1331q-202 0 -360 -123q162 -205 162 -468t-162 -468q158 -122 360 -122t360 122q-162 205 -162 468t162 468q-158 123 -360 123z
M2054 740q0 263 162 468q-158 123 -360 123t-359 -123q160 -205 160 -468t-160 -468q157 -122 359 -122t360 122q-162 205 -162 468zM303 740q0 -246 173 -418t417 -172q205 0 360 122q-159 205 -159 468t159 468q-156 123 -360 123q-244 0 -417 -173t-173 -418zM1485 740
q0 189 -111 343q-109 -150 -109 -343t109 -343q111 154 111 343zM2226 740q0 -189 111 -343q111 154 111 343t-111 343q-111 -154 -111 -343zM3410 740q0 185 -111 343q-111 -154 -111 -343t111 -343q111 158 111 343zM3781 1503q315 0 538 -223q223 -224 223 -540
t-223 -539t-538 -224q-272 0 -482 170q-213 -170 -481 -170t-481 170q-209 -170 -481 -170t-482 170q-209 -170 -481 -170q-315 1 -539 223t-223 539q0 317 222 541t540 223q272 0 481 -170q209 170 481 170t482 -170q213 170 481 170t481 -170q210 170 482 170z" />
    </font>
</defs>
</svg>
